<?xml version="1.0" encoding="UTF-8" standalone="no"?>
<svg
   xmlns:dc="http://purl.org/dc/elements/1.1/"
   xmlns:cc="http://creativecommons.org/ns#"
   xmlns:rdf="http://www.w3.org/1999/02/22-rdf-syntax-ns#"
   xmlns:svg="http://www.w3.org/2000/svg"
   xmlns="http://www.w3.org/2000/svg"
   viewBox="0 0 74.998749 86.60125"
   height="86.60125"
   width="74.998749"
   xml:space="preserve"
   version="1.1"
   id="svg3355"><metadata
     id="metadata3361"><rdf:RDF><cc:Work
         rdf:about=""><dc:format>image/svg+xml</dc:format><dc:type
           rdf:resource="http://purl.org/dc/dcmitype/StillImage" /><dc:title></dc:title></cc:Work></rdf:RDF></metadata><defs
     id="defs3359"><clipPath
       id="clipPath3369"
       clipPathUnits="userSpaceOnUse"><path
         id="path3371"
         d="m 366,309.302 59.999,0 0,69.281 -59.999,0 0,-69.281 z" /></clipPath></defs><g
     transform="matrix(1.25,0,0,-1.25,-437.16679,465.27228)"
     id="g3363"><g
       id="g3365"><g
         transform="translate(-16.266564,-6.3651772)"
         clip-path="url(#clipPath3369)"
         id="g3367"><g
           transform="translate(396,378.583)"
           id="g3373"><path
             id="path3375"
             style="fill:none;stroke:#231f20;stroke-width:4;stroke-linecap:butt;stroke-linejoin:miter;stroke-miterlimit:10;stroke-dasharray:none;stroke-opacity:1"
             d="m 0,0 0,0 -30,17.321 0,-34.641 0,-34.641 30,-17.32 30,17.32 0,34.641 L 0,0 Z" /></g><g
           transform="translate(396,378.583)"
           id="g3377"><path
             id="path3379"
             style="fill:none;stroke:#231f20;stroke-width:4;stroke-linecap:round;stroke-linejoin:miter;stroke-miterlimit:10;stroke-dasharray:none;stroke-opacity:1"
             d="m 0,0 0,-34.641 -30,-17.32" /></g><g
           transform="translate(366,361.2627)"
           id="g3381"><path
             id="path3383"
             style="fill:none;stroke:#231f20;stroke-width:4;stroke-linecap:butt;stroke-linejoin:bevel;stroke-miterlimit:10;stroke-dasharray:none;stroke-opacity:1"
             d="M 0,0 30,17.32" /></g><g
           transform="translate(396,309.3018)"
           id="g3385"><path
             id="path3387"
             style="fill:none;stroke:#231f20;stroke-width:4;stroke-linecap:butt;stroke-linejoin:miter;stroke-miterlimit:10;stroke-dasharray:none;stroke-opacity:1"
             d="m 0,0 0,0 -30,17.32 0,-34.641 0,-34.641 30,-17.32 30,17.32 0,34.641 L 0,0 Z" /></g><g
           transform="translate(396,309.3018)"
           id="g3389"><path
             id="path3391"
             style="fill:none;stroke:#231f20;stroke-width:4;stroke-linecap:round;stroke-linejoin:miter;stroke-miterlimit:10;stroke-dasharray:none;stroke-opacity:1"
             d="m 0,0 0,-34.642 -30,-17.32" /></g><g
           transform="translate(366,291.9805)"
           id="g3393"><path
             id="path3395"
             style="fill:none;stroke:#231f20;stroke-width:4;stroke-linecap:butt;stroke-linejoin:bevel;stroke-miterlimit:10;stroke-dasharray:none;stroke-opacity:1"
             d="M 0,0 30,17.321" /></g></g></g></g></svg>
