<?xml version="1.0" encoding="UTF-8" standalone="no"?>
<svg
   xmlns:dc="http://purl.org/dc/elements/1.1/"
   xmlns:cc="http://creativecommons.org/ns#"
   xmlns:rdf="http://www.w3.org/1999/02/22-rdf-syntax-ns#"
   xmlns:svg="http://www.w3.org/2000/svg"
   xmlns="http://www.w3.org/2000/svg"
   viewBox="0 0 74.998749 86.60125"
   height="86.60125"
   width="74.998749"
   xml:space="preserve"
   version="1.1"
   id="svg2"><metadata
     id="metadata8"><rdf:RDF><cc:Work
         rdf:about=""><dc:format>image/svg+xml</dc:format><dc:type
           rdf:resource="http://purl.org/dc/dcmitype/StillImage" /><dc:title></dc:title></cc:Work></rdf:RDF></metadata><defs
     id="defs6"><clipPath
       id="clipPath16"
       clipPathUnits="userSpaceOnUse"><path
         id="path18"
         d="m 366,309.302 59.999,0 0,69.281 -59.999,0 0,-69.281 z" /></clipPath></defs><g
     transform="matrix(1.25,0,0,-1.25,-457.5,473.22875)"
     id="g10"><g
       id="g12"><g
         clip-path="url(#clipPath16)"
         id="g14"><g
           transform="translate(396,378.583)"
           id="g20"><path
             id="path22"
             style="fill:none;stroke:#231f20;stroke-width:1;stroke-linecap:butt;stroke-linejoin:miter;stroke-miterlimit:10;stroke-dasharray:none;stroke-opacity:1"
             d="m 0,0 0,0 -30,17.321 0,-34.641 0,-34.641 30,-17.32 30,17.32 0,34.641 L 0,0 Z" /></g><g
           transform="translate(396,378.583)"
           id="g24"><path
             id="path26"
             style="fill:none;stroke:#231f20;stroke-width:1;stroke-linecap:round;stroke-linejoin:miter;stroke-miterlimit:10;stroke-dasharray:none;stroke-opacity:1"
             d="m 0,0 0,-34.641 -30,-17.32" /></g><g
           transform="translate(366,361.2627)"
           id="g28"><path
             id="path30"
             style="fill:none;stroke:#231f20;stroke-width:1;stroke-linecap:butt;stroke-linejoin:bevel;stroke-miterlimit:10;stroke-dasharray:none;stroke-opacity:1"
             d="M 0,0 30,17.32" /></g><g
           transform="translate(396,309.3018)"
           id="g32"><path
             id="path34"
             style="fill:none;stroke:#231f20;stroke-width:1;stroke-linecap:butt;stroke-linejoin:miter;stroke-miterlimit:10;stroke-dasharray:none;stroke-opacity:1"
             d="m 0,0 0,0 -30,17.32 0,-34.641 0,-34.641 30,-17.32 30,17.32 0,34.641 L 0,0 Z" /></g><g
           transform="translate(396,309.3018)"
           id="g36"><path
             id="path38"
             style="fill:none;stroke:#231f20;stroke-width:1;stroke-linecap:round;stroke-linejoin:miter;stroke-miterlimit:10;stroke-dasharray:none;stroke-opacity:1"
             d="m 0,0 0,-34.642 -30,-17.32" /></g><g
           transform="translate(366,291.9805)"
           id="g40"><path
             id="path42"
             style="fill:none;stroke:#231f20;stroke-width:1;stroke-linecap:butt;stroke-linejoin:bevel;stroke-miterlimit:10;stroke-dasharray:none;stroke-opacity:1"
             d="M 0,0 30,17.321" /></g></g></g></g></svg>
