<svg xmlns="http://www.w3.org/2000/svg" viewBox="0 0 331 381.9109"><title>BitBrew Logo Construction</title><path fill="#231f20" d="M83 143.323l82.499-47.63L83 48.063v95.26z"/><path fill="#231f20" d="M165.499 95.693v95.261L83 238.586l82.499 47.63 82.499-47.63v-95.263l-82.499-47.63z"/><path fill="none" stroke="#02d298" stroke-miterlimit="10" stroke-dasharray="10,5" d="M.502 190.953L330.293.55M.502 95.694L165.501.433M.502 381.476l329.995-190.521M165.501 381.474l164.996-95.259M330.293 95.809L.502 286.217"/><path fill="none" stroke="#02d298" stroke-miterlimit="10" d="M.5 381.476v-5"/><path fill="none" stroke="#02d298" stroke-miterlimit="10" stroke-dasharray="10.165557861328125,5.0827789306640625" d="M.5 371.393V7.974"/><path fill="none" stroke="#02d298" stroke-miterlimit="10" d="M.5 5.433v-5"/><path fill="none" stroke="#02d298" stroke-miterlimit="10" stroke-dasharray="10,5" d="M330.5.433v381.042M330.5 190.955L.502.433M.502 190.955L330.5 381.478M.502 286.214l164.999 95.261M.502 95.695l329.996 190.521M165.501.434l164.997 95.26M83 .433v381.042M247.998.433v381.042M165.501.433v381.042"/></svg>