<svg xmlns="http://www.w3.org/2000/svg" viewBox="0 0 225.6519 161.0019"><title>BitBrew Logo</title><path d="M18.3 126c4.75 0 7.002 2.25 7.002 9.35 0 4.701-.85 6.5-3.15 7.75 2.5 1.102 3.55 3.05 3.55 8.15 0 7.502-2.25 9.752-7 9.752H0V126zm-1.2 14c.75 0 1-.25 1-3.75s-.25-3.75-1-3.75H7.2v7.5zm.4 14.502c.75 0 1-.25 1-4.15s-.25-4.15-1-4.15H7.2v8.3zM33.91 126h7.2v35.002h-7.2zM65.505 132.5v28.502h-7.2V132.5h-9.5V126h26.2v6.5zM101.055 126c4.75 0 7.001 2.25 7.001 9.35 0 4.701-.85 6.5-3.15 7.75 2.5 1.102 3.55 3.05 3.55 8.15 0 7.502-2.25 9.752-7 9.752H82.754V126zm-1.2 14c.75 0 1-.25 1-3.75s-.25-3.75-1-3.75h-9.9v7.5zm.4 14.502c.75 0 1-.25 1-4.15s-.25-4.15-1-4.15h-10.3v8.3zM135.62 161.002l-5.8-12.352h-5.801v12.352h-7.2V126h18.451c4.75 0 7 2.25 7 7v8.45c0 3.95-1.55 6.2-4.85 6.8l5.95 12.752zm-1.55-18.752c.75 0 1-.25 1-1v-7.75c0-.75-.25-1-1-1h-10.051v9.75zM175.05 126v6.6h-16.351v7.25h13.25v6.5H158.7v8.05h16.35v6.602H151.5V126zM209.25 161.002l-5.75-22.803-5.75 22.803h-7.95L181.05 126h7.5l5.45 25.7 6.45-25.7h6.101l6.45 25.7 5.45-25.7h7.2l-8.8 35.002z" fill="#fff"/><path fill="#02d298" d="M112.426 21L76.053 0v42l36.373-21v42L76.053 84l36.373 21 36.373-21V42l-36.373-21z"/></svg>