<svg xmlns="http://www.w3.org/2000/svg" viewBox="0 0 225.6519 35.002"><title>BitBrew Logotype</title><path d="M18.3 0c4.75 0 7.002 2.25 7.002 9.35 0 4.701-.85 6.5-3.15 7.75 2.5 1.102 3.55 3.05 3.55 8.15 0 7.502-2.25 9.752-7 9.752H0V0zm-1.2 14c.75 0 1-.25 1-3.75s-.25-3.75-1-3.75H7.2V14zm.4 14.502c.75 0 1-.25 1-4.15s-.25-4.15-1-4.15H7.2v8.3zM33.91 0h7.2v35.002h-7.2zM65.505 6.5v28.502h-7.2V6.5h-9.5V0h26.2v6.5zM101.055 0c4.75 0 7.001 2.25 7.001 9.35 0 4.701-.85 6.5-3.15 7.75 2.5 1.102 3.55 3.05 3.55 8.15 0 7.502-2.25 9.752-7 9.752H82.754V0zm-1.2 14c.75 0 1-.25 1-3.75s-.25-3.75-1-3.75h-9.9V14zm.4 14.502c.75 0 1-.25 1-4.15s-.25-4.15-1-4.15h-10.3v8.3zM135.62 35.002l-5.8-12.352h-5.801v12.352h-7.2V0h18.451c4.75 0 7 2.25 7 7v8.451c0 3.95-1.55 6.2-4.85 6.799l5.95 12.752zm-1.55-18.752c.75 0 1-.25 1-1V7.5c0-.75-.25-1-1-1h-10.051v9.75zM175.05 0v6.6h-16.351v7.25h13.25v6.5H158.7v8.05h16.35v6.602H151.5V0zM209.25 35.002l-5.75-22.803-5.75 22.803h-7.95L181.05 0h7.5L194 25.7 200.45 0h6.101l6.45 25.701L218.451 0h7.2l-8.8 35.002z"/></svg>