<svg width="1050" height="200" viewBox="0 0 1050 200" xmlns="http://www.w3.org/2000/svg"><title>brand-attributes</title><g fill="none" fill-rule="evenodd"><path d="M296.152 26.808h10.416L305.196 30h-13.328l4.452-21h3.584l-3.752 17.808zM308.892 30l3.332-15.708h3.64L312.532 30h-3.64zm7.504-19.124c-.205.15-.462.252-.77.308-.308.056-.63.084-.966.084-.392 0-.71-.042-.952-.126-.243-.084-.43-.2-.56-.35-.112-.15-.177-.355-.196-.616-.019-.261 0-.55.056-.868.075-.43.191-.793.35-1.092.159-.299.34-.523.546-.672.336-.224.859-.336 1.568-.336.747 0 1.232.14 1.456.42.15.13.238.34.266.63.028.29.023.593-.014.91-.075.373-.173.71-.294 1.008a1.716 1.716 0 0 1-.49.7zM327.148 30l1.96-9.212c.093-.43.163-.817.21-1.162.047-.345.07-.649.07-.91 0-.467-.084-.812-.252-1.036-.205-.261-.504-.434-.896-.518a5.471 5.471 0 0 0-1.148-.126c-.728 0-1.381.08-1.96.238-.579.159-1.083.322-1.512.49L321.016 30h-3.64l3.332-15.708h2.912l.112 2.408h.224l1.932-1.96a9.64 9.64 0 0 1 1.316-.448c.541-.15 1.232-.224 2.072-.224 1.045 0 1.909.196 2.59.588.681.392 1.143 1.073 1.386 2.044h.224l2.072-1.96c.336-.15.784-.299 1.344-.448.56-.15 1.26-.224 2.1-.224.784 0 1.47.107 2.058.322.588.215 1.031.537 1.33.966.205.28.36.597.462.952.103.355.154.793.154 1.316 0 .765-.14 1.801-.42 3.108L340.616 30h-3.668l1.932-9.212c.205-.877.308-1.568.308-2.072 0-.467-.084-.812-.252-1.036-.205-.261-.509-.434-.91-.518a5.67 5.67 0 0 0-1.162-.126c-.579 0-1.171.065-1.778.196-.607.13-1.162.29-1.666.476L330.816 30h-3.668zm18.2 0l3.332-15.708h3.64L348.988 30h-3.64zm7.504-19.124c-.205.15-.462.252-.77.308-.308.056-.63.084-.966.084-.392 0-.71-.042-.952-.126-.243-.084-.43-.2-.56-.35-.112-.15-.177-.355-.196-.616-.019-.261 0-.55.056-.868.075-.43.191-.793.35-1.092.159-.299.34-.523.546-.672.336-.224.859-.336 1.568-.336.747 0 1.232.14 1.456.42.15.13.238.34.266.63.028.29.023.593-.014.91-.075.373-.173.71-.294 1.008a1.716 1.716 0 0 1-.49.7zm12.628 6.104h-4.816l-1.624 7.616c-.056.28-.103.546-.14.798a4.57 4.57 0 0 0-.056.658c0 .504.154.84.462 1.008.308.168.789.252 1.442.252.224 0 .476-.01.756-.028.28-.019.56-.042.84-.07.28-.028.541-.056.784-.084.243-.028.448-.06.616-.098l-.728 2.716c-.541.13-1.11.252-1.708.364-.597.112-1.325.168-2.184.168-1.456 0-2.501-.257-3.136-.77-.635-.513-.952-1.311-.952-2.394 0-.336.023-.681.07-1.036.047-.355.107-.719.182-1.092l1.708-8.008h-2.352l.588-2.688h2.324l.588-2.772 3.808-.672-.728 3.444h5.32l-1.064 2.688zm9.38-9.688l-3.78 17.724c-.112.504-.168.924-.168 1.26 0 .448.117.756.35.924.233.168.583.252 1.05.252.355 0 .705-.023 1.05-.07l.91-.126-.56 2.604c-.43.093-.92.182-1.47.266-.55.084-1.05.126-1.498.126-1.213 0-2.11-.247-2.688-.742-.579-.495-.868-1.274-.868-2.338 0-.317.023-.658.07-1.022.047-.364.117-.751.21-1.162l3.752-17.696h3.64zm1.96 17.5c0-.97.098-1.946.294-2.926.196-.98.471-1.904.826-2.772.355-.868.789-1.652 1.302-2.352s1.087-1.246 1.722-1.638a7.583 7.583 0 0 1 2.198-.952c.793-.205 1.722-.308 2.786-.308 1.96 0 3.383.369 4.27 1.106.887.737 1.33 1.797 1.33 3.178 0 1.643-.616 2.884-1.848 3.724-1.232.84-3.21 1.26-5.936 1.26-.541 0-1.083-.014-1.624-.042a22.478 22.478 0 0 1-1.512-.126c-.037.299-.075.579-.112.84a5.537 5.537 0 0 0-.056.784c0 .877.196 1.512.588 1.904.28.28.663.48 1.148.602.485.121 1.064.182 1.736.182 1.083 0 2.123-.093 3.122-.28.999-.187 1.806-.336 2.422-.448l-.84 2.8c-.784.261-1.661.485-2.632.672-.97.187-2.016.28-3.136.28-2.11 0-3.659-.485-4.648-1.456-.933-.896-1.4-2.24-1.4-4.032zm8.624-8.288c-.99 0-1.81.243-2.464.728-.784.597-1.39 1.67-1.82 3.22.373.037.863.07 1.47.098.607.028 1.19.033 1.75.014 1.045-.019 1.9-.191 2.562-.518.663-.327.994-.9.994-1.722 0-.485-.177-.91-.532-1.274-.355-.364-1.008-.546-1.96-.546zm19.012 8.344c0 .373-.037.765-.112 1.176a5.584 5.584 0 0 1-1.008 2.324c-.261.355-.57.653-.924.896-.523.355-1.176.611-1.96.77-.784.159-1.755.238-2.912.238-.99 0-1.927-.075-2.814-.224a24.5 24.5 0 0 1-2.17-.448l.196-2.688c.541.13 1.25.266 2.128.406.877.14 1.773.21 2.688.21.71 0 1.265-.037 1.666-.112.401-.075.714-.187.938-.336.243-.15.434-.387.574-.714.14-.327.21-.649.21-.966 0-.187-.014-.34-.042-.462a.911.911 0 0 0-.21-.378c-.187-.224-.518-.434-.994-.63s-.99-.397-1.54-.602a18.948 18.948 0 0 1-1.61-.686c-.523-.252-.924-.546-1.204-.882-.43-.504-.644-1.204-.644-2.1a7 7 0 0 1 .56-2.674 5.2 5.2 0 0 1 .728-1.218c.299-.373.653-.69 1.064-.952.541-.336 1.18-.57 1.918-.7.737-.13 1.582-.196 2.534-.196 1.064 0 2.035.075 2.912.224.877.15 1.559.27 2.044.364l-.504 2.604a37.308 37.308 0 0 0-2.1-.266 24.203 24.203 0 0 0-2.464-.126c-.672 0-1.209.037-1.61.112-.401.075-.723.215-.966.42-.205.187-.373.453-.504.798-.13.345-.196.686-.196 1.022 0 .15.014.294.042.434.028.14.098.275.21.406.243.261.611.49 1.106.686.495.196 1.013.392 1.554.588.541.196 1.06.401 1.554.616.495.215.873.462 1.134.742.243.261.425.593.546.994.121.401.182.845.182 1.33zm14.588 0c0 .373-.037.765-.112 1.176a5.584 5.584 0 0 1-1.008 2.324c-.261.355-.57.653-.924.896-.523.355-1.176.611-1.96.77-.784.159-1.755.238-2.912.238-.99 0-1.927-.075-2.814-.224a24.5 24.5 0 0 1-2.17-.448l.196-2.688c.541.13 1.25.266 2.128.406.877.14 1.773.21 2.688.21.71 0 1.265-.037 1.666-.112.401-.075.714-.187.938-.336.243-.15.434-.387.574-.714.14-.327.21-.649.21-.966 0-.187-.014-.34-.042-.462a.911.911 0 0 0-.21-.378c-.187-.224-.518-.434-.994-.63s-.99-.397-1.54-.602a18.948 18.948 0 0 1-1.61-.686c-.523-.252-.924-.546-1.204-.882-.43-.504-.644-1.204-.644-2.1a7 7 0 0 1 .56-2.674 5.2 5.2 0 0 1 .728-1.218c.299-.373.653-.69 1.064-.952.541-.336 1.18-.57 1.918-.7.737-.13 1.582-.196 2.534-.196 1.064 0 2.035.075 2.912.224.877.15 1.559.27 2.044.364l-.504 2.604a37.308 37.308 0 0 0-2.1-.266 24.203 24.203 0 0 0-2.464-.126c-.672 0-1.209.037-1.61.112-.401.075-.723.215-.966.42-.205.187-.373.453-.504.798-.13.345-.196.686-.196 1.022 0 .15.014.294.042.434.028.14.098.275.21.406.243.261.611.49 1.106.686.495.196 1.013.392 1.554.588.541.196 1.06.401 1.554.616.495.215.873.462 1.134.742.243.261.425.593.546.994.121.401.182.845.182 1.33zm7.336 5.012c-.205.15-.453.252-.742.308a5.62 5.62 0 0 1-1.05.084c-.485 0-.863-.042-1.134-.126-.27-.084-.471-.2-.602-.35a.779.779 0 0 1-.196-.392 2.447 2.447 0 0 1-.056-.532c0-.485.08-.952.238-1.4.159-.448.387-.775.686-.98.205-.15.462-.252.77-.308.308-.056.63-.084.966-.084.877 0 1.437.15 1.68.448.205.205.308.532.308.98 0 .485-.08.947-.238 1.386-.159.439-.369.76-.63.966zM312.448 49l-2.772 12.992a31.64 31.64 0 0 1-.63 2.45c-.215.7-.448 1.316-.7 1.848a6.889 6.889 0 0 1-.826 1.358c-.299.373-.625.71-.98 1.008-.299.243-.63.467-.994.672a7.06 7.06 0 0 1-1.274.546c-.485.159-1.05.28-1.694.364-.644.084-1.395.126-2.254.126-.915 0-1.713-.065-2.394-.196-.681-.13-1.265-.308-1.75-.532a4.957 4.957 0 0 1-1.218-.77 4.103 4.103 0 0 1-.77-.882 4.63 4.63 0 0 1-.518-1.162c-.14-.457-.21-.985-.21-1.582 0-.485.037-1.017.112-1.596.075-.579.215-1.335.42-2.268L296.628 49h1.596l-2.632 12.46c-.205.877-.336 1.577-.392 2.1a13.726 13.726 0 0 0-.084 1.456c0 .877.177 1.559.532 2.044.299.448.83.859 1.596 1.232.765.373 1.848.56 3.248.56.672 0 1.265-.028 1.778-.084.513-.056.966-.14 1.358-.252a5.133 5.133 0 0 0 1.05-.42 4.95 4.95 0 0 0 .854-.588c.28-.224.532-.485.756-.784.224-.299.439-.667.644-1.106.205-.439.401-.957.588-1.554.187-.597.364-1.307.532-2.128L310.824 49h1.624zm13.076 21l2.072-9.632c.093-.467.168-.887.224-1.26.056-.373.084-.719.084-1.036 0-.69-.168-1.26-.504-1.708-.243-.317-.593-.537-1.05-.658-.457-.121-1.003-.182-1.638-.182-1.12 0-2.147.145-3.08.434a19.27 19.27 0 0 0-2.772 1.106L316.088 70h-1.624l3.332-15.708h1.12v2.128h.14l1.064-1.092c.485-.224 1.185-.485 2.1-.784.915-.299 1.96-.448 3.136-.448.84 0 1.559.098 2.156.294.597.196 1.073.518 1.428.966.43.56.644 1.325.644 2.296 0 .373-.037.798-.112 1.274-.075.476-.159.985-.252 1.526L327.176 70h-1.652zm17.192-14.7c-.933 0-1.745.103-2.436.308a5.727 5.727 0 0 0-1.848.924 5.713 5.713 0 0 0-1.484 1.666c-.41.681-.747 1.41-1.008 2.184-.261.775-.453 1.55-.574 2.324-.121.775-.182 1.48-.182 2.114 0 1.344.27 2.315.812 2.912.336.392.793.677 1.372.854.579.177 1.26.266 2.044.266 1.083 0 2.063-.089 2.94-.266.877-.177 1.605-.331 2.184-.462l-.336 1.4c-.579.187-1.288.369-2.128.546-.84.177-1.82.266-2.94.266-2.09 0-3.584-.513-4.48-1.54-.747-.821-1.12-2.063-1.12-3.724 0-.877.084-1.783.252-2.716.168-.933.415-1.834.742-2.702.327-.868.733-1.67 1.218-2.408a7.685 7.685 0 0 1 1.652-1.834 7.337 7.337 0 0 1 2.31-1.148c.868-.261 1.862-.392 2.982-.392.97 0 1.867.051 2.688.154.821.103 1.475.2 1.96.294l-.224 1.4c-.504-.075-1.115-.163-1.834-.266-.719-.103-1.573-.154-2.562-.154zm21.98 3.78c0 .84-.08 1.717-.238 2.632a16.847 16.847 0 0 1-.686 2.66 12.01 12.01 0 0 1-1.134 2.394 8.117 8.117 0 0 1-1.554 1.862 6.882 6.882 0 0 1-2.254 1.26c-.868.299-1.965.448-3.29.448-1.363 0-2.431-.182-3.206-.546-.775-.364-1.367-.835-1.778-1.414-.261-.355-.476-.812-.644-1.372-.168-.56-.252-1.25-.252-2.072 0-.859.08-1.74.238-2.646.159-.905.397-1.778.714-2.618.317-.84.71-1.62 1.176-2.338a7.41 7.41 0 0 1 1.624-1.806 8.402 8.402 0 0 1 2.268-1.176c.859-.299 1.904-.448 3.136-.448 1.213 0 2.217.145 3.01.434.793.29 1.386.677 1.778 1.162.336.41.602.9.798 1.47.196.57.294 1.274.294 2.114zm-4.816 8.652c.504-.392.952-.91 1.344-1.554.392-.644.728-1.353 1.008-2.128.28-.775.495-1.573.644-2.394.15-.821.224-1.615.224-2.38 0-.653-.075-1.209-.224-1.666-.15-.457-.345-.817-.588-1.078-.299-.355-.728-.644-1.288-.868-.56-.224-1.335-.336-2.324-.336-.952 0-1.773.121-2.464.364-.69.243-1.25.532-1.68.868-.467.336-.896.803-1.288 1.4-.392.597-.733 1.27-1.022 2.016a14.48 14.48 0 0 0-.686 2.366c-.168.83-.252 1.647-.252 2.45 0 .579.056 1.101.168 1.568.112.467.27.84.476 1.12.299.41.737.76 1.316 1.05.579.29 1.419.434 2.52.434.877 0 1.661-.107 2.352-.322.69-.215 1.279-.518 1.764-.91zM379.116 70l2.072-9.632c.093-.467.168-.887.224-1.26.056-.373.084-.719.084-1.036 0-.69-.168-1.26-.504-1.708-.243-.317-.593-.537-1.05-.658-.457-.121-1.003-.182-1.638-.182-1.12 0-2.147.145-3.08.434a19.27 19.27 0 0 0-2.772 1.106L369.68 70h-1.624l3.332-15.708h1.12v2.128h.14l1.064-1.092c.485-.224 1.185-.485 2.1-.784.915-.299 1.96-.448 3.136-.448.84 0 1.559.098 2.156.294.597.196 1.073.518 1.428.966.43.56.644 1.325.644 2.296 0 .373-.037.798-.112 1.274-.075.476-.159.985-.252 1.526L380.768 70h-1.652zm18.088-5.068c.019.803-.13 1.6-.448 2.394a4.094 4.094 0 0 1-1.484 1.89c-.541.355-1.209.602-2.002.742-.793.14-1.74.21-2.842.21-.896 0-1.773-.051-2.632-.154a20.179 20.179 0 0 1-2.128-.35l.056-1.428c.597.13 1.32.257 2.17.378.85.121 1.722.182 2.618.182.99 0 1.778-.056 2.366-.168.588-.112 1.06-.29 1.414-.532.373-.243.677-.625.91-1.148.233-.523.35-1.11.35-1.764a2.69 2.69 0 0 0-.098-.7 1.043 1.043 0 0 0-.406-.588c-.28-.243-.705-.457-1.274-.644-.57-.187-1.171-.378-1.806-.574a30.104 30.104 0 0 1-1.834-.63c-.588-.224-1.05-.495-1.386-.812-.467-.448-.7-1.083-.7-1.904 0-.915.182-1.778.546-2.59.364-.812.845-1.433 1.442-1.862.541-.373 1.19-.635 1.946-.784.756-.15 1.638-.224 2.646-.224.933 0 1.783.051 2.548.154a60.97 60.97 0 0 1 1.82.266l-.224 1.344a34.368 34.368 0 0 0-1.918-.266 20.412 20.412 0 0 0-2.31-.126c-.952 0-1.703.06-2.254.182-.55.121-1.013.322-1.386.602-.41.317-.723.751-.938 1.302a4.852 4.852 0 0 0-.322 1.778c0 .523.15.924.448 1.204.28.243.71.467 1.288.672.579.205 1.185.401 1.82.588.635.187 1.246.383 1.834.588.588.205 1.022.43 1.302.672.299.261.513.56.644.896.13.336.205.737.224 1.204zm14.84-9.268H406.5l-2.1 9.828c-.093.373-.159.686-.196.938-.037.252-.056.48-.056.686 0 .653.187 1.087.56 1.302.373.215.877.322 1.512.322.71 0 1.367-.06 1.974-.182a20.964 20.964 0 0 0 1.414-.322l-.364 1.4c-.392.112-.9.229-1.526.35-.625.121-1.311.182-2.058.182-1.12 0-1.941-.229-2.464-.686-.523-.457-.784-1.134-.784-2.03 0-.261.028-.56.084-.896.056-.336.13-.69.224-1.064l2.128-9.828H401.6l.504-1.372h3.024l.7-3.276 1.736-.42-.756 3.696h5.824l-.588 1.372zm5.628-1.372v2.128h.168l.952-1.12c.504-.317 1.12-.602 1.848-.854s1.54-.378 2.436-.378a13.338 13.338 0 0 1 2.016.14l-.28 1.596a10.496 10.496 0 0 0-2.24-.224c-.99 0-1.895.168-2.716.504-.821.336-1.559.719-2.212 1.148L414.928 70h-1.624l3.332-15.708h1.036zM435.592 70l-.084-1.96h-.112l-1.036 1.176c-.299.168-.868.387-1.708.658-.84.27-1.876.406-3.108.406-1.045 0-1.88-.107-2.506-.322-.625-.215-1.087-.537-1.386-.966a3.373 3.373 0 0 1-.364-.868 4.297 4.297 0 0 1-.14-1.148c0-.97.182-1.871.546-2.702.364-.83.863-1.433 1.498-1.806.71-.43 1.885-.77 3.528-1.022s3.733-.49 6.272-.714c.15-.69.257-1.27.322-1.736.065-.467.098-.887.098-1.26 0-.635-.13-1.11-.392-1.428-.205-.28-.565-.495-1.078-.644-.513-.15-1.246-.224-2.198-.224-.485 0-.99.023-1.512.07-.523.047-1.027.103-1.512.168-.485.065-.933.13-1.344.196-.41.065-.756.126-1.036.182l.364-1.372c.597-.15 1.386-.299 2.366-.448.98-.15 2.03-.224 3.15-.224 1.139 0 2.035.093 2.688.28.653.187 1.139.457 1.456.812a2.2 2.2 0 0 1 .532.952c.093.355.14.775.14 1.26 0 .467-.042.994-.126 1.582a36.9 36.9 0 0 1-.406 2.226L436.628 70h-1.036zm1.12-7.952c-.915.056-1.843.13-2.786.224-.943.093-1.815.2-2.618.322-.803.121-1.493.252-2.072.392s-.97.294-1.176.462c-.43.373-.756.868-.98 1.484a5.302 5.302 0 0 0-.336 1.82c0 .261.028.504.084.728.056.224.14.41.252.56.168.243.495.448.98.616.485.168 1.12.252 1.904.252.635 0 1.241-.051 1.82-.154a14.772 14.772 0 0 0 1.582-.364c.476-.14.9-.294 1.274-.462.373-.168.672-.308.896-.42l1.176-5.46zM442.48 70l3.332-15.708h1.624L444.104 70h-1.624zm5.852-20.16c-.205.15-.504.224-.896.224-.373 0-.635-.075-.784-.224a.433.433 0 0 1-.126-.28 1.625 1.625 0 0 1 .014-.364c.019-.261.075-.485.168-.672.093-.187.196-.317.308-.392.15-.13.43-.196.84-.196.392 0 .653.075.784.224a.433.433 0 0 1 .126.28c.01.112.005.243-.014.392-.037.485-.177.821-.42 1.008zM461.128 70l2.072-9.632c.093-.467.168-.887.224-1.26.056-.373.084-.719.084-1.036 0-.69-.168-1.26-.504-1.708-.243-.317-.593-.537-1.05-.658-.457-.121-1.003-.182-1.638-.182-1.12 0-2.147.145-3.08.434a19.27 19.27 0 0 0-2.772 1.106L451.692 70h-1.624l3.332-15.708h1.12v2.128h.14l1.064-1.092c.485-.224 1.185-.485 2.1-.784.915-.299 1.96-.448 3.136-.448.84 0 1.559.098 2.156.294.597.196 1.073.518 1.428.966.43.56.644 1.325.644 2.296 0 .373-.037.798-.112 1.274-.075.476-.159.985-.252 1.526L462.78 70h-1.652zm7.98-4.984a15.565 15.565 0 0 1 1.036-5.572c.336-.859.733-1.633 1.19-2.324.457-.69.966-1.25 1.526-1.68a7.206 7.206 0 0 1 2.226-1.106c.83-.252 1.778-.378 2.842-.378.933 0 1.727.098 2.38.294.653.196 1.18.467 1.582.812a3.1 3.1 0 0 1 .882 1.232c.187.476.28.994.28 1.554 0 .896-.173 1.638-.518 2.226-.345.588-.845 1.05-1.498 1.386-.653.336-1.447.574-2.38.714-.933.14-1.988.21-3.164.21a51.844 51.844 0 0 1-2.394-.056c-.401-.019-.78-.037-1.134-.056a50.302 50.302 0 0 1-.924-.056c-.205 1.083-.308 1.979-.308 2.688 0 .541.051 1.04.154 1.498.103.457.275.835.518 1.134.317.448.793.775 1.428.98.635.205 1.4.308 2.296.308.56 0 1.101-.033 1.624-.098.523-.065 1.022-.14 1.498-.224a16.438 16.438 0 0 0 2.31-.574l-.448 1.428c-.56.205-1.316.415-2.268.63-.952.215-1.988.322-3.108.322-1.157 0-2.114-.145-2.87-.434-.756-.29-1.349-.714-1.778-1.274-.653-.821-.98-2.016-.98-3.584zm8.68-9.716c-.859 0-1.615.103-2.268.308a5.138 5.138 0 0 0-1.708.896c-.541.467-1.017 1.073-1.428 1.82-.41.747-.765 1.624-1.064 2.632.243.019.579.037 1.008.056.43.019.873.033 1.33.042l1.302.028c.41.01.719.014.924.014.84 0 1.6-.042 2.282-.126.681-.084 1.26-.247 1.736-.49s.845-.57 1.106-.98c.261-.41.392-.924.392-1.54 0-.84-.285-1.493-.854-1.96-.57-.467-1.489-.7-2.758-.7zm23.66-8.176h1.624L498.2 70h-1.176l.028-1.904h-.112l-.182.196c-.121.13-.252.266-.392.406l-.574.574c-.15.075-.364.168-.644.28-.28.112-.625.224-1.036.336-.41.112-.887.205-1.428.28-.541.075-1.13.112-1.764.112-.859 0-1.582-.098-2.17-.294a3.622 3.622 0 0 1-1.498-.938c-.355-.355-.63-.817-.826-1.386-.196-.57-.294-1.32-.294-2.254 0-.877.093-1.797.28-2.758.187-.961.453-1.895.798-2.8.345-.905.76-1.736 1.246-2.492.485-.756 1.036-1.377 1.652-1.862.616-.485 1.344-.854 2.184-1.106.84-.252 1.801-.378 2.884-.378.952 0 1.806.06 2.562.182.756.121 1.46.257 2.114.406l1.596-7.476zm-10.304 9.492c-.541.43-1.022.99-1.442 1.68-.42.69-.77 1.437-1.05 2.24-.28.803-.495 1.615-.644 2.436-.15.821-.224 1.559-.224 2.212 0 .672.08 1.237.238 1.694.159.457.369.817.63 1.078.28.28.672.495 1.176.644a6.01 6.01 0 0 0 1.708.224 12.112 12.112 0 0 0 3.164-.406c.448-.121.868-.261 1.26-.42a62.8 62.8 0 0 0 1.176-.49l2.492-11.676a64.16 64.16 0 0 0-1.82-.294 16.344 16.344 0 0 0-2.38-.154c-.99 0-1.815.098-2.478.294a5.298 5.298 0 0 0-1.806.938zm14.504 13.3c-.205.15-.504.224-.896.224-.43 0-.71-.084-.84-.252a.418.418 0 0 1-.112-.21 1.223 1.223 0 0 1-.028-.266c0-.597.159-1.008.476-1.232.205-.15.504-.224.896-.224.41 0 .69.084.84.252.093.112.14.28.14.504 0 .579-.159.98-.476 1.204zM306.316 103.42a8.75 8.75 0 0 1-.56 3.066c-.187.495-.43.961-.728 1.4a4.925 4.925 0 0 1-1.064 1.134c-.653.485-1.507.821-2.562 1.008-1.055.187-2.226.28-3.514.28-1.381 0-2.65-.075-3.808-.224-1.157-.15-2.09-.308-2.8-.476l.224-1.484c.821.15 1.736.299 2.744.448 1.008.15 2.25.224 3.724.224 1.325 0 2.385-.098 3.178-.294.793-.196 1.377-.434 1.75-.714a3.5 3.5 0 0 0 .728-.798 5.13 5.13 0 0 0 .518-1.008c.14-.364.247-.747.322-1.148.075-.401.112-.789.112-1.162 0-.616-.112-1.092-.336-1.428-.205-.261-.546-.509-1.022-.742a16.148 16.148 0 0 0-1.652-.686 61.357 61.357 0 0 0-1.988-.672c-.7-.224-1.367-.462-2.002-.714a13.268 13.268 0 0 1-1.708-.812c-.504-.29-.868-.611-1.092-.966a2.808 2.808 0 0 1-.336-.868 6.365 6.365 0 0 1-.14-1.064c0-.485.042-.985.126-1.498a8.225 8.225 0 0 1 .392-1.498c.177-.485.41-.947.7-1.386.29-.439.649-.826 1.078-1.162.579-.467 1.363-.83 2.352-1.092.99-.261 2.221-.392 3.696-.392 1.344 0 2.534.056 3.57.168 1.036.112 1.88.215 2.534.308l-.224 1.456a88.249 88.249 0 0 0-2.59-.294 34.754 34.754 0 0 0-3.458-.154c-1.25 0-2.273.103-3.066.308-.793.205-1.386.485-1.778.84-.541.485-.943 1.11-1.204 1.876a6.91 6.91 0 0 0-.392 2.24c0 .579.093 1.017.28 1.316.15.261.453.509.91.742a15.12 15.12 0 0 0 1.638.7 61.95 61.95 0 0 0 2.016.7c.71.233 1.39.471 2.044.714.653.243 1.237.504 1.75.784.513.28.891.57 1.134.868.187.261.322.579.406.952.084.373.117.775.098 1.204zm19.656-4.34c0 .84-.08 1.717-.238 2.632a16.847 16.847 0 0 1-.686 2.66 12.01 12.01 0 0 1-1.134 2.394 8.117 8.117 0 0 1-1.554 1.862 6.882 6.882 0 0 1-2.254 1.26c-.868.299-1.965.448-3.29.448-1.363 0-2.431-.182-3.206-.546-.775-.364-1.367-.835-1.778-1.414-.261-.355-.476-.812-.644-1.372-.168-.56-.252-1.25-.252-2.072 0-.859.08-1.74.238-2.646.159-.905.397-1.778.714-2.618.317-.84.71-1.62 1.176-2.338a7.41 7.41 0 0 1 1.624-1.806 8.402 8.402 0 0 1 2.268-1.176c.859-.299 1.904-.448 3.136-.448 1.213 0 2.217.145 3.01.434.793.29 1.386.677 1.778 1.162.336.41.602.9.798 1.47.196.57.294 1.274.294 2.114zm-4.816 8.652c.504-.392.952-.91 1.344-1.554.392-.644.728-1.353 1.008-2.128.28-.775.495-1.573.644-2.394.15-.821.224-1.615.224-2.38 0-.653-.075-1.209-.224-1.666-.15-.457-.345-.817-.588-1.078-.299-.355-.728-.644-1.288-.868-.56-.224-1.335-.336-2.324-.336-.952 0-1.773.121-2.464.364-.69.243-1.25.532-1.68.868-.467.336-.896.803-1.288 1.4-.392.597-.733 1.27-1.022 2.016a14.48 14.48 0 0 0-.686 2.366c-.168.83-.252 1.647-.252 2.45 0 .579.056 1.101.168 1.568.112.467.27.84.476 1.12.299.41.737.76 1.316 1.05.579.29 1.419.434 2.52.434.877 0 1.661-.107 2.352-.322.69-.215 1.279-.518 1.764-.91zM339.58 110l-.084-1.96h-.112l-1.036 1.176c-.299.168-.868.387-1.708.658-.84.27-1.876.406-3.108.406-1.045 0-1.88-.107-2.506-.322-.625-.215-1.087-.537-1.386-.966a3.373 3.373 0 0 1-.364-.868 4.297 4.297 0 0 1-.14-1.148c0-.97.182-1.871.546-2.702.364-.83.863-1.433 1.498-1.806.71-.43 1.885-.77 3.528-1.022s3.733-.49 6.272-.714c.15-.69.257-1.27.322-1.736.065-.467.098-.887.098-1.26 0-.635-.13-1.11-.392-1.428-.205-.28-.565-.495-1.078-.644-.513-.15-1.246-.224-2.198-.224-.485 0-.99.023-1.512.07-.523.047-1.027.103-1.512.168-.485.065-.933.13-1.344.196-.41.065-.756.126-1.036.182l.364-1.372c.597-.15 1.386-.299 2.366-.448.98-.15 2.03-.224 3.15-.224 1.139 0 2.035.093 2.688.28.653.187 1.139.457 1.456.812a2.2 2.2 0 0 1 .532.952c.093.355.14.775.14 1.26 0 .467-.042.994-.126 1.582a36.9 36.9 0 0 1-.406 2.226L340.616 110h-1.036zm1.12-7.952c-.915.056-1.843.13-2.786.224-.943.093-1.815.2-2.618.322-.803.121-1.493.252-2.072.392s-.97.294-1.176.462c-.43.373-.756.868-.98 1.484a5.302 5.302 0 0 0-.336 1.82c0 .261.028.504.084.728.056.224.14.41.252.56.168.243.495.448.98.616.485.168 1.12.252 1.904.252.635 0 1.241-.051 1.82-.154a14.772 14.772 0 0 0 1.582-.364c.476-.14.9-.294 1.274-.462.373-.168.672-.308.896-.42l1.176-5.46zm10.136-7.756v2.128h.168l.952-1.12c.504-.317 1.12-.602 1.848-.854s1.54-.378 2.436-.378a13.338 13.338 0 0 1 2.016.14l-.28 1.596a10.496 10.496 0 0 0-2.24-.224c-.99 0-1.895.168-2.716.504-.821.336-1.559.719-2.212 1.148L348.092 110h-1.624l3.332-15.708h1.036zM358.508 110l3.332-15.708h1.624L360.132 110h-1.624zm5.852-20.16c-.205.15-.504.224-.896.224-.373 0-.635-.075-.784-.224a.433.433 0 0 1-.126-.28 1.625 1.625 0 0 1 .014-.364c.019-.261.075-.485.168-.672.093-.187.196-.317.308-.392.15-.13.43-.196.84-.196.392 0 .653.075.784.224a.433.433 0 0 1 .126.28c.01.112.005.243-.014.392-.037.485-.177.821-.42 1.008zM377.156 110l2.072-9.632c.093-.467.168-.887.224-1.26.056-.373.084-.719.084-1.036 0-.69-.168-1.26-.504-1.708-.243-.317-.593-.537-1.05-.658-.457-.121-1.003-.182-1.638-.182-1.12 0-2.147.145-3.08.434a19.27 19.27 0 0 0-2.772 1.106L367.72 110h-1.624l3.332-15.708h1.12v2.128h.14l1.064-1.092c.485-.224 1.185-.485 2.1-.784.915-.299 1.96-.448 3.136-.448.84 0 1.559.098 2.156.294.597.196 1.073.518 1.428.966.43.56.644 1.325.644 2.296 0 .373-.037.798-.112 1.274-.075.476-.159.985-.252 1.526L378.808 110h-1.652zm20.216-.84a30.09 30.09 0 0 1-.7 2.758c-.243.775-.5 1.442-.77 2.002a7.43 7.43 0 0 1-.84 1.386c-.29.364-.593.677-.91.938-.579.43-1.297.775-2.156 1.036-.859.261-1.988.392-3.388.392a18.58 18.58 0 0 1-1.596-.07 63.941 63.941 0 0 1-1.568-.154 21.56 21.56 0 0 1-1.386-.196c-.42-.075-.76-.14-1.022-.196l.224-1.428c.504.093 1.246.205 2.226.336.98.13 2.011.196 3.094.196 1.176 0 2.123-.089 2.842-.266.719-.177 1.302-.434 1.75-.77.485-.392.947-1.055 1.386-1.988.439-.933.845-2.305 1.218-4.116l.196-.868h-.084l-.182.168c-.121.112-.252.238-.392.378l-.392.392c-.121.121-.191.182-.21.182-.299.168-.877.373-1.736.616s-1.876.364-3.052.364c-.952 0-1.722-.107-2.31-.322-.588-.215-1.069-.509-1.442-.882-.373-.336-.658-.793-.854-1.372-.196-.579-.294-1.288-.294-2.128 0-.84.084-1.736.252-2.688.168-.952.415-1.88.742-2.786.327-.905.733-1.75 1.218-2.534a7.603 7.603 0 0 1 1.708-1.96c.579-.448 1.32-.807 2.226-1.078.905-.27 1.974-.406 3.206-.406.97 0 1.89.07 2.758.21.868.14 1.62.285 2.254.434l.868-.476h.308l-3.192 14.896zm1.204-13.3a73.738 73.738 0 0 0-1.806-.224 21.504 21.504 0 0 0-2.366-.112c-1.008 0-1.857.084-2.548.252a4.96 4.96 0 0 0-1.848.868c-.541.43-1.022.999-1.442 1.708-.42.71-.77 1.465-1.05 2.268-.28.803-.49 1.615-.63 2.436s-.21 1.568-.21 2.24c0 .653.07 1.2.21 1.638.14.439.34.77.602.994.336.299.756.518 1.26.658s1.055.21 1.652.21c1.008 0 2.007-.13 2.996-.392.99-.261 1.904-.588 2.744-.98l2.436-11.564zm6.188 14.056c-.205.15-.504.224-.896.224-.43 0-.71-.084-.84-.252a.418.418 0 0 1-.112-.21 1.223 1.223 0 0 1-.028-.266c0-.597.159-1.008.476-1.232.205-.15.504-.224.896-.224.41 0 .69.084.84.252.093.112.14.28.14.504 0 .579-.159.98-.476 1.204zM292.4 150l4.452-21h1.624l-4.452 21H292.4zm19.068 0l2.072-9.632c.093-.467.168-.887.224-1.26.056-.373.084-.719.084-1.036 0-.69-.168-1.26-.504-1.708-.243-.317-.593-.537-1.05-.658-.457-.121-1.003-.182-1.638-.182-1.12 0-2.147.145-3.08.434a19.27 19.27 0 0 0-2.772 1.106L302.032 150h-1.624l3.332-15.708h1.12v2.128h.14l1.064-1.092c.485-.224 1.185-.485 2.1-.784.915-.299 1.96-.448 3.136-.448.84 0 1.559.098 2.156.294.597.196 1.073.518 1.428.966.43.56.644 1.325.644 2.296 0 .373-.037.798-.112 1.274-.075.476-.159.985-.252 1.526L313.12 150h-1.652zm18.536 0l2.072-9.632c.093-.467.168-.887.224-1.26.056-.373.084-.719.084-1.036 0-.69-.168-1.26-.504-1.708-.243-.317-.593-.537-1.05-.658-.457-.121-1.003-.182-1.638-.182-1.12 0-2.147.145-3.08.434a19.27 19.27 0 0 0-2.772 1.106L320.568 150h-1.624l3.332-15.708h1.12v2.128h.14l1.064-1.092c.485-.224 1.185-.485 2.1-.784.915-.299 1.96-.448 3.136-.448.84 0 1.559.098 2.156.294.597.196 1.073.518 1.428.966.43.56.644 1.325.644 2.296 0 .373-.037.798-.112 1.274-.075.476-.159.985-.252 1.526L331.656 150h-1.652zm23.016-10.92c0 .84-.08 1.717-.238 2.632a16.847 16.847 0 0 1-.686 2.66 12.01 12.01 0 0 1-1.134 2.394 8.117 8.117 0 0 1-1.554 1.862 6.882 6.882 0 0 1-2.254 1.26c-.868.299-1.965.448-3.29.448-1.363 0-2.431-.182-3.206-.546-.775-.364-1.367-.835-1.778-1.414-.261-.355-.476-.812-.644-1.372-.168-.56-.252-1.25-.252-2.072 0-.859.08-1.74.238-2.646.159-.905.397-1.778.714-2.618.317-.84.71-1.62 1.176-2.338a7.41 7.41 0 0 1 1.624-1.806 8.402 8.402 0 0 1 2.268-1.176c.859-.299 1.904-.448 3.136-.448 1.213 0 2.217.145 3.01.434.793.29 1.386.677 1.778 1.162.336.41.602.9.798 1.47.196.57.294 1.274.294 2.114zm-4.816 8.652c.504-.392.952-.91 1.344-1.554.392-.644.728-1.353 1.008-2.128.28-.775.495-1.573.644-2.394.15-.821.224-1.615.224-2.38 0-.653-.075-1.209-.224-1.666-.15-.457-.345-.817-.588-1.078-.299-.355-.728-.644-1.288-.868-.56-.224-1.335-.336-2.324-.336-.952 0-1.773.121-2.464.364-.69.243-1.25.532-1.68.868-.467.336-.896.803-1.288 1.4-.392.597-.733 1.27-1.022 2.016a14.48 14.48 0 0 0-.686 2.366c-.168.83-.252 1.647-.252 2.45 0 .579.056 1.101.168 1.568.112.467.27.84.476 1.12.299.41.737.76 1.316 1.05.579.29 1.419.434 2.52.434.877 0 1.661-.107 2.352-.322.69-.215 1.279-.518 1.764-.91zM362.708 150h-2.856l-2.604-15.708h1.68l2.24 14.28h.672l8.568-14.28h1.848L362.708 150zm20.552 0l-.084-1.96h-.112l-1.036 1.176c-.299.168-.868.387-1.708.658-.84.27-1.876.406-3.108.406-1.045 0-1.88-.107-2.506-.322-.625-.215-1.087-.537-1.386-.966a3.373 3.373 0 0 1-.364-.868 4.297 4.297 0 0 1-.14-1.148c0-.97.182-1.871.546-2.702.364-.83.863-1.433 1.498-1.806.71-.43 1.885-.77 3.528-1.022s3.733-.49 6.272-.714c.15-.69.257-1.27.322-1.736.065-.467.098-.887.098-1.26 0-.635-.13-1.11-.392-1.428-.205-.28-.565-.495-1.078-.644-.513-.15-1.246-.224-2.198-.224-.485 0-.99.023-1.512.07-.523.047-1.027.103-1.512.168-.485.065-.933.13-1.344.196-.41.065-.756.126-1.036.182l.364-1.372c.597-.15 1.386-.299 2.366-.448.98-.15 2.03-.224 3.15-.224 1.139 0 2.035.093 2.688.28.653.187 1.139.457 1.456.812a2.2 2.2 0 0 1 .532.952c.093.355.14.775.14 1.26 0 .467-.042.994-.126 1.582a36.9 36.9 0 0 1-.406 2.226L384.296 150h-1.036zm1.12-7.952c-.915.056-1.843.13-2.786.224-.943.093-1.815.2-2.618.322-.803.121-1.493.252-2.072.392s-.97.294-1.176.462c-.43.373-.756.868-.98 1.484a5.302 5.302 0 0 0-.336 1.82c0 .261.028.504.084.728.056.224.14.41.252.56.168.243.495.448.98.616.485.168 1.12.252 1.904.252.635 0 1.241-.051 1.82-.154a14.772 14.772 0 0 0 1.582-.364c.476-.14.9-.294 1.274-.462.373-.168.672-.308.896-.42l1.176-5.46zm16.828-6.384h-5.544l-2.1 9.828c-.093.373-.159.686-.196.938-.037.252-.056.48-.056.686 0 .653.187 1.087.56 1.302.373.215.877.322 1.512.322.71 0 1.367-.06 1.974-.182a20.964 20.964 0 0 0 1.414-.322l-.364 1.4c-.392.112-.9.229-1.526.35-.625.121-1.311.182-2.058.182-1.12 0-1.941-.229-2.464-.686-.523-.457-.784-1.134-.784-2.03 0-.261.028-.56.084-.896.056-.336.13-.69.224-1.064l2.128-9.828h-3.248l.504-1.372h3.024l.7-3.276 1.736-.42-.756 3.696h5.824l-.588 1.372zm1.26 14.336l3.332-15.708h1.624L404.092 150h-1.624zm5.852-20.16c-.205.15-.504.224-.896.224-.373 0-.635-.075-.784-.224a.433.433 0 0 1-.126-.28 1.625 1.625 0 0 1 .014-.364c.019-.261.075-.485.168-.672.093-.187.196-.317.308-.392.15-.13.43-.196.84-.196.392 0 .653.075.784.224a.433.433 0 0 1 .126.28c.01.112.005.243-.014.392-.037.485-.177.821-.42 1.008zm8.064 20.16h-2.856l-2.604-15.708h1.68l2.24 14.28h.672l8.568-14.28h1.848L416.384 150zm10.808-4.984a15.565 15.565 0 0 1 1.036-5.572c.336-.859.733-1.633 1.19-2.324.457-.69.966-1.25 1.526-1.68a7.206 7.206 0 0 1 2.226-1.106c.83-.252 1.778-.378 2.842-.378.933 0 1.727.098 2.38.294.653.196 1.18.467 1.582.812a3.1 3.1 0 0 1 .882 1.232c.187.476.28.994.28 1.554 0 .896-.173 1.638-.518 2.226-.345.588-.845 1.05-1.498 1.386-.653.336-1.447.574-2.38.714-.933.14-1.988.21-3.164.21a51.847 51.847 0 0 1-2.394-.056c-.401-.019-.78-.037-1.134-.056a50.302 50.302 0 0 1-.924-.056c-.205 1.083-.308 1.979-.308 2.688 0 .541.051 1.04.154 1.498.103.457.275.835.518 1.134.317.448.793.775 1.428.98.635.205 1.4.308 2.296.308.56 0 1.101-.033 1.624-.098.523-.065 1.022-.14 1.498-.224a16.438 16.438 0 0 0 2.31-.574l-.448 1.428c-.56.205-1.316.415-2.268.63-.952.215-1.988.322-3.108.322-1.157 0-2.114-.145-2.87-.434-.756-.29-1.349-.714-1.778-1.274-.653-.821-.98-2.016-.98-3.584zm8.68-9.716c-.859 0-1.615.103-2.268.308a5.138 5.138 0 0 0-1.708.896c-.541.467-1.017 1.073-1.428 1.82-.41.747-.765 1.624-1.064 2.632.243.019.579.037 1.008.056.43.019.873.033 1.33.042l1.302.028c.41.01.719.014.924.014.84 0 1.6-.042 2.282-.126.681-.084 1.26-.247 1.736-.49s.845-.57 1.106-.98c.261-.41.392-.924.392-1.54 0-.84-.285-1.493-.854-1.96-.57-.467-1.489-.7-2.758-.7zm9.212 14.616c-.205.15-.504.224-.896.224-.43 0-.71-.084-.84-.252a.418.418 0 0 1-.112-.21 1.223 1.223 0 0 1-.028-.266c0-.597.159-1.008.476-1.232.205-.15.504-.224.896-.224.41 0 .69.084.84.252.093.112.14.28.14.504 0 .579-.159.98-.476 1.204zm-149.212 31.516L294.08 190h-1.708l4.452-21h7.28c1.12 0 2.016.093 2.688.28.672.187 1.195.467 1.568.84.355.336.63.76.826 1.274.196.513.294 1.171.294 1.974 0 .71-.075 1.405-.224 2.086a8.726 8.726 0 0 1-.672 1.946 8.198 8.198 0 0 1-1.078 1.68c-.42.504-.891.924-1.414 1.26-.71.448-1.55.742-2.52.882s-2.221.21-3.752.21h-3.948zm9.156-2.212a4.414 4.414 0 0 0 1.19-1.022c.345-.42.635-.882.868-1.386a7.097 7.097 0 0 0 .518-1.596c.112-.56.168-1.12.168-1.68 0-1.083-.243-1.848-.728-2.296-.56-.56-1.67-.84-3.332-.84h-5.488l-2.016 9.548h3.92c1.232 0 2.245-.056 3.038-.168.793-.112 1.414-.299 1.862-.56zm5.908 10.78l3.332-15.708h1.624L312.56 190h-1.624zm5.852-20.16c-.205.15-.504.224-.896.224-.373 0-.635-.075-.784-.224a.433.433 0 0 1-.126-.28 1.625 1.625 0 0 1 .014-.364c.019-.261.075-.485.168-.672.093-.187.196-.317.308-.392.15-.13.43-.196.84-.196.392 0 .653.075.784.224a.433.433 0 0 1 .126.28c.01.112.005.243-.014.392-.037.485-.177.821-.42 1.008zm17.276 9.24c0 .84-.08 1.717-.238 2.632a16.847 16.847 0 0 1-.686 2.66 12.01 12.01 0 0 1-1.134 2.394 8.117 8.117 0 0 1-1.554 1.862 6.882 6.882 0 0 1-2.254 1.26c-.868.299-1.965.448-3.29.448-1.363 0-2.431-.182-3.206-.546-.775-.364-1.367-.835-1.778-1.414-.261-.355-.476-.812-.644-1.372-.168-.56-.252-1.25-.252-2.072 0-.859.08-1.74.238-2.646.159-.905.397-1.778.714-2.618.317-.84.71-1.62 1.176-2.338a7.41 7.41 0 0 1 1.624-1.806 8.402 8.402 0 0 1 2.268-1.176c.859-.299 1.904-.448 3.136-.448 1.213 0 2.217.145 3.01.434.793.29 1.386.677 1.778 1.162.336.41.602.9.798 1.47.196.57.294 1.274.294 2.114zm-4.816 8.652c.504-.392.952-.91 1.344-1.554.392-.644.728-1.353 1.008-2.128.28-.775.495-1.573.644-2.394.15-.821.224-1.615.224-2.38 0-.653-.075-1.209-.224-1.666-.15-.457-.345-.817-.588-1.078-.299-.355-.728-.644-1.288-.868-.56-.224-1.335-.336-2.324-.336-.952 0-1.773.121-2.464.364-.69.243-1.25.532-1.68.868-.467.336-.896.803-1.288 1.4-.392.597-.733 1.27-1.022 2.016a14.48 14.48 0 0 0-.686 2.366c-.168.83-.252 1.647-.252 2.45 0 .579.056 1.101.168 1.568.112.467.27.84.476 1.12.299.41.737.76 1.316 1.05.579.29 1.419.434 2.52.434.877 0 1.661-.107 2.352-.322.69-.215 1.279-.518 1.764-.91zM348.484 190l2.072-9.632c.093-.467.168-.887.224-1.26.056-.373.084-.719.084-1.036 0-.69-.168-1.26-.504-1.708-.243-.317-.593-.537-1.05-.658-.457-.121-1.003-.182-1.638-.182-1.12 0-2.147.145-3.08.434a19.27 19.27 0 0 0-2.772 1.106L339.048 190h-1.624l3.332-15.708h1.12v2.128h.14l1.064-1.092c.485-.224 1.185-.485 2.1-.784.915-.299 1.96-.448 3.136-.448.84 0 1.559.098 2.156.294.597.196 1.073.518 1.428.966.43.56.644 1.325.644 2.296 0 .373-.037.798-.112 1.274-.075.476-.159.985-.252 1.526L350.136 190h-1.652zm7.98-4.984a15.565 15.565 0 0 1 1.036-5.572c.336-.859.733-1.633 1.19-2.324.457-.69.966-1.25 1.526-1.68a7.206 7.206 0 0 1 2.226-1.106c.83-.252 1.778-.378 2.842-.378.933 0 1.727.098 2.38.294.653.196 1.18.467 1.582.812a3.1 3.1 0 0 1 .882 1.232c.187.476.28.994.28 1.554 0 .896-.173 1.638-.518 2.226-.345.588-.845 1.05-1.498 1.386-.653.336-1.447.574-2.38.714-.933.14-1.988.21-3.164.21a51.847 51.847 0 0 1-2.394-.056c-.401-.019-.78-.037-1.134-.056a50.302 50.302 0 0 1-.924-.056c-.205 1.083-.308 1.979-.308 2.688 0 .541.051 1.04.154 1.498.103.457.275.835.518 1.134.317.448.793.775 1.428.98.635.205 1.4.308 2.296.308.56 0 1.101-.033 1.624-.098.523-.065 1.022-.14 1.498-.224a16.438 16.438 0 0 0 2.31-.574l-.448 1.428c-.56.205-1.316.415-2.268.63-.952.215-1.988.322-3.108.322-1.157 0-2.114-.145-2.87-.434-.756-.29-1.349-.714-1.778-1.274-.653-.821-.98-2.016-.98-3.584zm8.68-9.716c-.859 0-1.615.103-2.268.308a5.138 5.138 0 0 0-1.708.896c-.541.467-1.017 1.073-1.428 1.82-.41.747-.765 1.624-1.064 2.632.243.019.579.037 1.008.056.43.019.873.033 1.33.042l1.302.028c.41.01.719.014.924.014.84 0 1.6-.042 2.282-.126.681-.084 1.26-.247 1.736-.49s.845-.57 1.106-.98c.261-.41.392-.924.392-1.54 0-.84-.285-1.493-.854-1.96-.57-.467-1.489-.7-2.758-.7zm8.372 9.716a15.565 15.565 0 0 1 1.036-5.572c.336-.859.733-1.633 1.19-2.324.457-.69.966-1.25 1.526-1.68a7.206 7.206 0 0 1 2.226-1.106c.83-.252 1.778-.378 2.842-.378.933 0 1.727.098 2.38.294.653.196 1.18.467 1.582.812a3.1 3.1 0 0 1 .882 1.232c.187.476.28.994.28 1.554 0 .896-.173 1.638-.518 2.226-.345.588-.845 1.05-1.498 1.386-.653.336-1.447.574-2.38.714-.933.14-1.988.21-3.164.21a51.847 51.847 0 0 1-2.394-.056c-.401-.019-.78-.037-1.134-.056a50.302 50.302 0 0 1-.924-.056c-.205 1.083-.308 1.979-.308 2.688 0 .541.051 1.04.154 1.498.103.457.275.835.518 1.134.317.448.793.775 1.428.98.635.205 1.4.308 2.296.308.56 0 1.101-.033 1.624-.098.523-.065 1.022-.14 1.498-.224a16.438 16.438 0 0 0 2.31-.574l-.448 1.428c-.56.205-1.316.415-2.268.63-.952.215-1.988.322-3.108.322-1.157 0-2.114-.145-2.87-.434-.756-.29-1.349-.714-1.778-1.274-.653-.821-.98-2.016-.98-3.584zm8.68-9.716c-.859 0-1.615.103-2.268.308a5.138 5.138 0 0 0-1.708.896c-.541.467-1.017 1.073-1.428 1.82-.41.747-.765 1.624-1.064 2.632.243.019.579.037 1.008.056.43.019.873.033 1.33.042l1.302.028c.41.01.719.014.924.014.84 0 1.6-.042 2.282-.126.681-.084 1.26-.247 1.736-.49s.845-.57 1.106-.98c.261-.41.392-.924.392-1.54 0-.84-.285-1.493-.854-1.96-.57-.467-1.489-.7-2.758-.7zm12.236-1.008v2.128h.168l.952-1.12c.504-.317 1.12-.602 1.848-.854s1.54-.378 2.436-.378a13.338 13.338 0 0 1 2.016.14l-.28 1.596a10.496 10.496 0 0 0-2.24-.224c-.99 0-1.895.168-2.716.504-.821.336-1.559.719-2.212 1.148L391.688 190h-1.624l3.332-15.708h1.036zM402.104 190l3.332-15.708h1.624L403.728 190h-1.624zm5.852-20.16c-.205.15-.504.224-.896.224-.373 0-.635-.075-.784-.224a.433.433 0 0 1-.126-.28 1.625 1.625 0 0 1 .014-.364c.019-.261.075-.485.168-.672.093-.187.196-.317.308-.392.15-.13.43-.196.84-.196.392 0 .653.075.784.224a.433.433 0 0 1 .126.28c.01.112.005.243-.014.392-.037.485-.177.821-.42 1.008zM420.752 190l2.072-9.632c.093-.467.168-.887.224-1.26.056-.373.084-.719.084-1.036 0-.69-.168-1.26-.504-1.708-.243-.317-.593-.537-1.05-.658-.457-.121-1.003-.182-1.638-.182-1.12 0-2.147.145-3.08.434a19.27 19.27 0 0 0-2.772 1.106L411.316 190h-1.624l3.332-15.708h1.12v2.128h.14l1.064-1.092c.485-.224 1.185-.485 2.1-.784.915-.299 1.96-.448 3.136-.448.84 0 1.559.098 2.156.294.597.196 1.073.518 1.428.966.43.56.644 1.325.644 2.296 0 .373-.037.798-.112 1.274-.075.476-.159.985-.252 1.526L422.404 190h-1.652zm20.216-.84a30.09 30.09 0 0 1-.7 2.758c-.243.775-.5 1.442-.77 2.002a7.43 7.43 0 0 1-.84 1.386c-.29.364-.593.677-.91.938-.579.43-1.297.775-2.156 1.036-.859.261-1.988.392-3.388.392a18.58 18.58 0 0 1-1.596-.07 63.941 63.941 0 0 1-1.568-.154 21.56 21.56 0 0 1-1.386-.196c-.42-.075-.76-.14-1.022-.196l.224-1.428c.504.093 1.246.205 2.226.336.98.13 2.011.196 3.094.196 1.176 0 2.123-.089 2.842-.266.719-.177 1.302-.434 1.75-.77.485-.392.947-1.055 1.386-1.988.439-.933.845-2.305 1.218-4.116l.196-.868h-.084l-.182.168c-.121.112-.252.238-.392.378l-.392.392c-.121.121-.191.182-.21.182-.299.168-.877.373-1.736.616s-1.876.364-3.052.364c-.952 0-1.722-.107-2.31-.322-.588-.215-1.069-.509-1.442-.882-.373-.336-.658-.793-.854-1.372-.196-.579-.294-1.288-.294-2.128 0-.84.084-1.736.252-2.688.168-.952.415-1.88.742-2.786.327-.905.733-1.75 1.218-2.534a7.603 7.603 0 0 1 1.708-1.96c.579-.448 1.32-.807 2.226-1.078.905-.27 1.974-.406 3.206-.406.97 0 1.89.07 2.758.21.868.14 1.62.285 2.254.434l.868-.476h.308l-3.192 14.896zm1.204-13.3a73.738 73.738 0 0 0-1.806-.224 21.504 21.504 0 0 0-2.366-.112c-1.008 0-1.857.084-2.548.252a4.96 4.96 0 0 0-1.848.868c-.541.43-1.022.999-1.442 1.708-.42.71-.77 1.465-1.05 2.268-.28.803-.49 1.615-.63 2.436s-.21 1.568-.21 2.24c0 .653.07 1.2.21 1.638.14.439.34.77.602.994.336.299.756.518 1.26.658s1.055.21 1.652.21c1.008 0 2.007-.13 2.996-.392.99-.261 1.904-.588 2.744-.98l2.436-11.564zm6.188 14.056c-.205.15-.504.224-.896.224-.43 0-.71-.084-.84-.252a.418.418 0 0 1-.112-.21 1.223 1.223 0 0 1-.028-.266c0-.597.159-1.008.476-1.232.205-.15.504-.224.896-.224.41 0 .69.084.84.252.093.112.14.28.14.504 0 .579-.159.98-.476 1.204zM601.932 11.008V31h4.396v-8.26h8.372v-3.416h-8.372v-4.62h9.66v-3.696h-14.056zM631.696 31V16.524h-3.976v7.588c0 1.475-.243 2.534-.728 3.178-.485.644-1.27.966-2.352.966-.952 0-1.615-.294-1.988-.882-.373-.588-.56-1.48-.56-2.674v-8.176h-3.976v8.904c0 .896.08 1.713.238 2.45.159.737.434 1.363.826 1.876.392.513.929.91 1.61 1.19.681.28 1.554.42 2.618.42.84 0 1.661-.187 2.464-.56.803-.373 1.456-.98 1.96-1.82h.084V31h3.78zm3.024-14.476V31h3.976v-7.588c0-1.475.243-2.534.728-3.178.485-.644 1.27-.966 2.352-.966.952 0 1.615.294 1.988.882.373.588.56 1.48.56 2.674V31h3.976v-8.904c0-.896-.08-1.713-.238-2.45-.159-.737-.434-1.363-.826-1.876-.392-.513-.929-.915-1.61-1.204-.681-.29-1.554-.434-2.618-.434-.84 0-1.661.191-2.464.574-.803.383-1.456.994-1.96 1.834h-.084v-2.016h-3.78zm26.46 5.096h3.892c-.056-.933-.28-1.74-.672-2.422a5.47 5.47 0 0 0-1.526-1.708 6.614 6.614 0 0 0-2.128-1.022 9.076 9.076 0 0 0-2.478-.336c-1.176 0-2.221.196-3.136.588a6.6 6.6 0 0 0-2.324 1.638 7.024 7.024 0 0 0-1.442 2.492c-.327.961-.49 2.002-.49 3.122 0 1.083.177 2.077.532 2.982a6.95 6.95 0 0 0 1.484 2.338 6.612 6.612 0 0 0 2.31 1.526c.905.364 1.9.546 2.982.546 1.923 0 3.5-.504 4.732-1.512 1.232-1.008 1.979-2.473 2.24-4.396h-3.836c-.13.896-.453 1.61-.966 2.142-.513.532-1.246.798-2.198.798-.616 0-1.139-.14-1.568-.42-.43-.28-.77-.64-1.022-1.078a4.937 4.937 0 0 1-.546-1.47 7.864 7.864 0 0 1 0-3.234c.112-.55.303-1.055.574-1.512.27-.457.62-.83 1.05-1.12.43-.29.961-.434 1.596-.434 1.699 0 2.679.83 2.94 2.492zm11.256-5.096v-4.34h-3.976v4.34h-2.408v2.66h2.408v8.54c0 .728.121 1.316.364 1.764.243.448.574.793.994 1.036.42.243.905.406 1.456.49.55.084 1.134.126 1.75.126.392 0 .793-.01 1.204-.028.41-.019.784-.056 1.12-.112v-3.08a5.57 5.57 0 0 1-.588.084c-.205.019-.42.028-.644.028-.672 0-1.12-.112-1.344-.336-.224-.224-.336-.672-.336-1.344v-7.168h2.912v-2.66h-2.912zm8.904-2.24v-3.276h-3.976v3.276h3.976zm-3.976 2.24V31h3.976V16.524h-3.976zm10.64 7.252c0-.579.056-1.148.168-1.708.112-.56.303-1.055.574-1.484.27-.43.63-.78 1.078-1.05.448-.27 1.008-.406 1.68-.406.672 0 1.237.135 1.694.406.457.27.821.62 1.092 1.05.27.43.462.924.574 1.484a8.688 8.688 0 0 1 0 3.402 4.513 4.513 0 0 1-.574 1.484c-.27.439-.635.789-1.092 1.05-.457.261-1.022.392-1.694.392-.672 0-1.232-.13-1.68-.392a3.057 3.057 0 0 1-1.078-1.05 4.513 4.513 0 0 1-.574-1.484 8.478 8.478 0 0 1-.168-1.694zm-3.976 0c0 1.157.177 2.203.532 3.136a6.803 6.803 0 0 0 1.512 2.394 6.614 6.614 0 0 0 2.352 1.526c.915.355 1.941.532 3.08.532s2.17-.177 3.094-.532a6.59 6.59 0 0 0 2.366-1.526 6.803 6.803 0 0 0 1.512-2.394c.355-.933.532-1.979.532-3.136s-.177-2.207-.532-3.15c-.355-.943-.859-1.745-1.512-2.408a6.748 6.748 0 0 0-2.366-1.54c-.924-.364-1.955-.546-3.094-.546-1.139 0-2.165.182-3.08.546a6.775 6.775 0 0 0-2.352 1.54c-.653.663-1.157 1.465-1.512 2.408-.355.943-.532 1.993-.532 3.15zm17.556-7.252V31h3.976v-7.588c0-1.475.243-2.534.728-3.178.485-.644 1.27-.966 2.352-.966.952 0 1.615.294 1.988.882.373.588.56 1.48.56 2.674V31h3.976v-8.904c0-.896-.08-1.713-.238-2.45-.159-.737-.434-1.363-.826-1.876-.392-.513-.929-.915-1.61-1.204-.681-.29-1.554-.434-2.618-.434-.84 0-1.661.191-2.464.574-.803.383-1.456.994-1.96 1.834h-.084v-2.016h-3.78zm16.436 4.452c.056-.933.29-1.708.7-2.324.41-.616.933-1.11 1.568-1.484a6.833 6.833 0 0 1 2.142-.798 12.178 12.178 0 0 1 2.394-.238c.728 0 1.465.051 2.212.154a6.767 6.767 0 0 1 2.044.602c.616.299 1.12.714 1.512 1.246.392.532.588 1.237.588 2.114v7.532c0 .653.037 1.279.112 1.876.075.597.205 1.045.392 1.344h-4.032a5.706 5.706 0 0 1-.28-1.4 5.181 5.181 0 0 1-2.24 1.372 8.99 8.99 0 0 1-2.632.392 7.11 7.11 0 0 1-1.932-.252 4.425 4.425 0 0 1-1.568-.784 3.65 3.65 0 0 1-1.05-1.344c-.252-.541-.378-1.185-.378-1.932 0-.821.145-1.498.434-2.03.29-.532.663-.957 1.12-1.274.457-.317.98-.555 1.568-.714.588-.159 1.18-.285 1.778-.378a30.39 30.39 0 0 1 1.764-.224c.579-.056 1.092-.14 1.54-.252.448-.112.803-.275 1.064-.49.261-.215.383-.527.364-.938 0-.43-.07-.77-.21-1.022a1.544 1.544 0 0 0-.56-.588 2.203 2.203 0 0 0-.812-.28 6.644 6.644 0 0 0-.994-.07c-.784 0-1.4.168-1.848.504-.448.336-.71.896-.784 1.68h-3.976zm9.184 2.94c-.168.15-.378.266-.63.35a6.434 6.434 0 0 1-.812.21c-.29.056-.593.103-.91.14-.317.037-.635.084-.952.14a7.18 7.18 0 0 0-.882.224c-.29.093-.541.22-.756.378-.215.159-.387.36-.518.602-.13.243-.196.55-.196.924 0 .355.065.653.196.896.13.243.308.434.532.574.224.14.485.238.784.294.299.056.607.084.924.084.784 0 1.39-.13 1.82-.392.43-.261.747-.574.952-.938a3 3 0 0 0 .378-1.106c.047-.373.07-.672.07-.896v-1.484zm7.168-12.908V31h3.976V11.008h-3.976zm7.28 15.68V31h4.396v-4.312h-4.396zm-139.356 24.32V71h2.66V51.008h-2.66zm6.748 5.516V71h2.38v-8.176c0-.653.089-1.255.266-1.806.177-.55.443-1.031.798-1.442.355-.41.798-.728 1.33-.952.532-.224 1.162-.336 1.89-.336.915 0 1.633.261 2.156.784.523.523.784 1.232.784 2.128V71h2.38v-9.52c0-.784-.08-1.498-.238-2.142a4.057 4.057 0 0 0-.826-1.666c-.392-.467-.905-.83-1.54-1.092-.635-.261-1.428-.392-2.38-.392-2.147 0-3.715.877-4.704 2.632h-.056v-2.296h-2.24zm18.872 0v-4.34h-2.38v4.34h-2.464v2.1h2.464v9.212c0 .672.065 1.213.196 1.624.13.41.331.728.602.952.27.224.625.378 1.064.462.439.084.966.126 1.582.126h1.82v-2.1h-1.092c-.373 0-.677-.014-.91-.042-.233-.028-.415-.089-.546-.182a.692.692 0 0 1-.266-.392 2.597 2.597 0 0 1-.07-.672v-8.988h2.884v-2.1h-2.884zM645.416 71V56.524h-2.38V64.7c0 .653-.089 1.255-.266 1.806a4.102 4.102 0 0 1-.798 1.442c-.355.41-.798.728-1.33.952-.532.224-1.162.336-1.89.336-.915 0-1.633-.261-2.156-.784-.523-.523-.784-1.232-.784-2.128v-9.8h-2.38v9.52c0 .784.08 1.498.238 2.142.159.644.434 1.2.826 1.666.392.467.905.826 1.54 1.078.635.252 1.428.378 2.38.378 1.064 0 1.988-.21 2.772-.63.784-.42 1.428-1.078 1.932-1.974h.056V71h2.24zm6.104-17.08v-2.912h-2.38v2.912h2.38zm-2.38 2.604V71h2.38V56.524h-2.38zm9.38 0v-4.34h-2.38v4.34h-2.464v2.1h2.464v9.212c0 .672.065 1.213.196 1.624.13.41.331.728.602.952.27.224.625.378 1.064.462.439.084.966.126 1.582.126h1.82v-2.1h-1.092c-.373 0-.677-.014-.91-.042-.233-.028-.415-.089-.546-.182a.692.692 0 0 1-.266-.392 2.597 2.597 0 0 1-.07-.672v-8.988h2.884v-2.1h-2.884zm8.036-2.604v-2.912h-2.38v2.912h2.38zm-2.38 2.604V71h2.38V56.524h-2.38zM676.776 71l5.292-14.476h-2.492l-3.948 12.068h-.056l-4.06-12.068h-2.66L674.228 71h2.548zm17.528-8.624h-8.316c.037-.56.159-1.087.364-1.582a4.22 4.22 0 0 1 .84-1.302c.355-.373.78-.667 1.274-.882a4.144 4.144 0 0 1 1.666-.322 4.071 4.071 0 0 1 2.926 1.19c.364.364.653.798.868 1.302a4.87 4.87 0 0 1 .378 1.596zm2.296 4.032h-2.352c-.205.952-.63 1.661-1.274 2.128-.644.467-1.47.7-2.478.7-.784 0-1.465-.13-2.044-.392a4.006 4.006 0 0 1-1.428-1.05 4.09 4.09 0 0 1-.812-1.512 5.746 5.746 0 0 1-.224-1.806h10.836a11.525 11.525 0 0 0-.238-2.772 8.024 8.024 0 0 0-1.064-2.688 6.34 6.34 0 0 0-2.044-2.03c-.85-.532-1.918-.798-3.206-.798-.99 0-1.9.187-2.73.56-.83.373-1.55.896-2.156 1.568a7.227 7.227 0 0 0-1.414 2.38c-.336.915-.504 1.923-.504 3.024.037 1.101.2 2.119.49 3.052.29.933.723 1.736 1.302 2.408a5.934 5.934 0 0 0 2.142 1.568c.85.373 1.853.56 3.01.56 1.643 0 3.005-.41 4.088-1.232 1.083-.821 1.783-2.044 2.1-3.668zm3.22 1.484V71h3.108v-3.108h-3.108zM613.748 96.86h2.52c-.037-1.101-.247-2.049-.63-2.842a5.538 5.538 0 0 0-1.568-1.974 6.468 6.468 0 0 0-2.31-1.148 10.682 10.682 0 0 0-2.856-.364c-.915 0-1.806.117-2.674.35a7.352 7.352 0 0 0-2.324 1.064 5.385 5.385 0 0 0-1.638 1.82c-.41.737-.616 1.61-.616 2.618 0 .915.182 1.675.546 2.282.364.607.85 1.101 1.456 1.484.607.383 1.293.69 2.058.924.765.233 1.545.439 2.338.616.793.177 1.573.35 2.338.518a10.66 10.66 0 0 1 2.058.658c.607.27 1.092.62 1.456 1.05.364.43.546.99.546 1.68 0 .728-.15 1.325-.448 1.792a3.26 3.26 0 0 1-1.176 1.106 5.32 5.32 0 0 1-1.638.574 9.93 9.93 0 0 1-1.806.168 8.546 8.546 0 0 1-2.184-.28 5.435 5.435 0 0 1-1.862-.868 4.455 4.455 0 0 1-1.288-1.498c-.327-.607-.49-1.33-.49-2.17h-2.52c0 1.213.22 2.263.658 3.15a6.04 6.04 0 0 0 1.792 2.184c.756.57 1.633.994 2.632 1.274.999.28 2.058.42 3.178.42.915 0 1.834-.107 2.758-.322a7.981 7.981 0 0 0 2.506-1.036 5.876 5.876 0 0 0 1.834-1.848c.476-.756.714-1.666.714-2.73 0-.99-.182-1.81-.546-2.464a4.864 4.864 0 0 0-1.456-1.624 7.712 7.712 0 0 0-2.058-1.022 27.915 27.915 0 0 0-2.338-.658 89.82 89.82 0 0 0-2.338-.518 12.243 12.243 0 0 1-2.058-.602c-.607-.243-1.092-.555-1.456-.938-.364-.383-.546-.882-.546-1.498 0-.653.126-1.2.378-1.638a2.94 2.94 0 0 1 1.008-1.05c.42-.261.9-.448 1.442-.56a8.132 8.132 0 0 1 1.652-.168c1.381 0 2.515.322 3.402.966.887.644 1.405 1.685 1.554 3.122zm8.708-2.94v-2.912h-2.38v2.912h2.38zm-2.38 2.604V111h2.38V96.524h-2.38zm6.076 0V111h2.38v-9.016c0-.28.07-.63.21-1.05a4.03 4.03 0 0 1 1.876-2.226c.495-.28 1.087-.42 1.778-.42.541 0 .985.08 1.33.238.345.159.62.383.826.672.205.29.35.63.434 1.022.084.392.126.821.126 1.288V111h2.38v-9.016c0-1.12.336-2.016 1.008-2.688.672-.672 1.596-1.008 2.772-1.008.579 0 1.05.084 1.414.252.364.168.649.397.854.686.205.29.345.63.42 1.022.075.392.112.812.112 1.26V111h2.38v-10.612c0-.747-.117-1.386-.35-1.918a3.364 3.364 0 0 0-.98-1.302 4.094 4.094 0 0 0-1.512-.742 7.578 7.578 0 0 0-1.974-.238c-.952 0-1.825.215-2.618.644a5.054 5.054 0 0 0-1.918 1.82c-.299-.896-.812-1.53-1.54-1.904-.728-.373-1.54-.56-2.436-.56-2.035 0-3.593.821-4.676 2.464h-.056v-2.128h-2.24zm23.968 0v19.992h2.38v-7.448h.056c.261.43.583.789.966 1.078.383.29.789.518 1.218.686.43.168.863.29 1.302.364.439.075.835.112 1.19.112 1.101 0 2.067-.196 2.898-.588a5.808 5.808 0 0 0 2.072-1.61c.55-.681.961-1.48 1.232-2.394.27-.915.406-1.885.406-2.912s-.14-1.997-.42-2.912a7.358 7.358 0 0 0-1.246-2.422 5.951 5.951 0 0 0-2.072-1.666c-.83-.41-1.806-.616-2.926-.616-1.008 0-1.932.182-2.772.546-.84.364-1.456.947-1.848 1.75h-.056v-1.96h-2.38zm11.2 7.112c0 .71-.075 1.4-.224 2.072a5.481 5.481 0 0 1-.728 1.792c-.336.523-.78.943-1.33 1.26-.55.317-1.237.476-2.058.476-.821 0-1.521-.154-2.1-.462a4.076 4.076 0 0 1-1.414-1.218 5.093 5.093 0 0 1-.798-1.75 8.342 8.342 0 0 1-.252-2.058c0-.672.08-1.335.238-1.988a5.21 5.21 0 0 1 .77-1.75 4.097 4.097 0 0 1 1.372-1.246c.56-.317 1.241-.476 2.044-.476.765 0 1.433.15 2.002.448.57.299 1.036.7 1.4 1.204.364.504.635 1.078.812 1.722.177.644.266 1.302.266 1.974zm5.46-12.628V111h2.38V91.008h-2.38zm16.128 11.368h-8.316c.037-.56.159-1.087.364-1.582a4.22 4.22 0 0 1 .84-1.302c.355-.373.78-.667 1.274-.882a4.144 4.144 0 0 1 1.666-.322 4.071 4.071 0 0 1 2.926 1.19c.364.364.653.798.868 1.302a4.87 4.87 0 0 1 .378 1.596zm2.296 4.032h-2.352c-.205.952-.63 1.661-1.274 2.128-.644.467-1.47.7-2.478.7-.784 0-1.465-.13-2.044-.392a4.006 4.006 0 0 1-1.428-1.05 4.09 4.09 0 0 1-.812-1.512 5.746 5.746 0 0 1-.224-1.806h10.836a11.525 11.525 0 0 0-.238-2.772 8.024 8.024 0 0 0-1.064-2.688 6.34 6.34 0 0 0-2.044-2.03c-.85-.532-1.918-.798-3.206-.798-.99 0-1.9.187-2.73.56-.83.373-1.55.896-2.156 1.568a7.227 7.227 0 0 0-1.414 2.38c-.336.915-.504 1.923-.504 3.024.037 1.101.2 2.119.49 3.052.29.933.723 1.736 1.302 2.408a5.934 5.934 0 0 0 2.142 1.568c.85.373 1.853.56 3.01.56 1.643 0 3.005-.41 4.088-1.232 1.083-.821 1.783-2.044 2.1-3.668zm3.22 1.484V111h3.108v-3.108h-3.108zm-84.7 33.112c0-1.008.13-2.002.392-2.982a8.098 8.098 0 0 1 1.232-2.646 6.299 6.299 0 0 1 2.156-1.89c.877-.476 1.923-.714 3.136-.714s2.259.238 3.136.714a6.299 6.299 0 0 1 2.156 1.89c.56.784.97 1.666 1.232 2.646a11.525 11.525 0 0 1 0 5.964 8.098 8.098 0 0 1-1.232 2.646 6.299 6.299 0 0 1-2.156 1.89c-.877.476-1.923.714-3.136.714s-2.259-.238-3.136-.714a6.299 6.299 0 0 1-2.156-1.89 8.098 8.098 0 0 1-1.232-2.646 11.525 11.525 0 0 1-.392-2.982zm-2.66 0c0 1.363.2 2.674.602 3.934a9.913 9.913 0 0 0 1.806 3.346 8.665 8.665 0 0 0 2.996 2.31c1.195.57 2.585.854 4.172.854 1.587 0 2.977-.285 4.172-.854a8.665 8.665 0 0 0 2.996-2.31 9.913 9.913 0 0 0 1.806-3.346c.401-1.26.602-2.571.602-3.934s-.2-2.674-.602-3.934a9.913 9.913 0 0 0-1.806-3.346c-.803-.97-1.801-1.745-2.996-2.324-1.195-.579-2.585-.868-4.172-.868-1.587 0-2.977.29-4.172.868-1.195.579-2.193 1.353-2.996 2.324a9.913 9.913 0 0 0-1.806 3.346 12.883 12.883 0 0 0-.602 3.934zm21.924-4.48V151h2.38v-6.44c0-.933.093-1.76.28-2.478.187-.719.485-1.33.896-1.834.41-.504.952-.887 1.624-1.148.672-.261 1.484-.392 2.436-.392v-2.52c-1.288-.037-2.352.224-3.192.784-.84.56-1.55 1.428-2.128 2.604h-.056v-3.052h-2.24zm21.896 13.244v-13.244h-2.24v2.072h-.028c-.43-.803-1.027-1.405-1.792-1.806a5.343 5.343 0 0 0-2.52-.602c-1.25 0-2.305.238-3.164.714s-1.55 1.083-2.072 1.82a7.216 7.216 0 0 0-1.12 2.464 10.997 10.997 0 0 0-.336 2.646c0 .99.135 1.927.406 2.814.27.887.677 1.661 1.218 2.324a5.918 5.918 0 0 0 2.016 1.582c.803.392 1.745.588 2.828.588.933 0 1.815-.21 2.646-.63.83-.42 1.451-1.078 1.862-1.974h.056v.952c0 .803-.08 1.54-.238 2.212-.159.672-.415 1.246-.77 1.722-.355.476-.803.85-1.344 1.12-.541.27-1.204.406-1.988.406a6.42 6.42 0 0 1-1.232-.126 4.477 4.477 0 0 1-1.19-.406 2.962 2.962 0 0 1-.924-.728 1.76 1.76 0 0 1-.406-1.092h-2.38c.037.784.243 1.447.616 1.988.373.541.845.98 1.414 1.316.57.336 1.204.579 1.904.728.7.15 1.386.224 2.058.224 2.315 0 4.013-.588 5.096-1.764 1.083-1.176 1.624-2.95 1.624-5.32zm-6.664-.7c-.784 0-1.437-.163-1.96-.49a3.781 3.781 0 0 1-1.26-1.288 5.576 5.576 0 0 1-.672-1.778 9.971 9.971 0 0 1-.196-1.96c0-.69.08-1.353.238-1.988.159-.635.41-1.195.756-1.68a3.811 3.811 0 0 1 1.33-1.162c.541-.29 1.195-.434 1.96-.434.747 0 1.381.15 1.904.448.523.299.947.695 1.274 1.19.327.495.565 1.05.714 1.666.15.616.224 1.241.224 1.876 0 .672-.08 1.344-.238 2.016a5.887 5.887 0 0 1-.742 1.806c-.336.532-.78.961-1.33 1.288-.55.327-1.218.49-2.002.49zm23.072 1.876c-.41.243-.98.364-1.708.364-.616 0-1.106-.173-1.47-.518-.364-.345-.546-.91-.546-1.694-.653.784-1.414 1.349-2.282 1.694a7.543 7.543 0 0 1-2.814.518 7.539 7.539 0 0 1-1.862-.224 4.33 4.33 0 0 1-1.526-.7 3.36 3.36 0 0 1-1.022-1.246c-.252-.513-.378-1.134-.378-1.862 0-.821.14-1.493.42-2.016.28-.523.649-.947 1.106-1.274.457-.327.98-.574 1.568-.742.588-.168 1.19-.308 1.806-.42.653-.13 1.274-.229 1.862-.294a10.374 10.374 0 0 0 1.554-.28c.448-.121.803-.299 1.064-.532.261-.233.392-.574.392-1.022 0-.523-.098-.943-.294-1.26a2.016 2.016 0 0 0-.756-.728 3.074 3.074 0 0 0-1.036-.336 7.824 7.824 0 0 0-1.134-.084c-1.008 0-1.848.191-2.52.574-.672.383-1.036 1.106-1.092 2.17h-2.38c.037-.896.224-1.652.56-2.268a4.246 4.246 0 0 1 1.344-1.498c.56-.383 1.2-.658 1.918-.826a10.13 10.13 0 0 1 2.31-.252c.653 0 1.302.047 1.946.14a5.086 5.086 0 0 1 1.75.574c.523.29.943.695 1.26 1.218.317.523.476 1.204.476 2.044v7.448c0 .56.033.97.098 1.232.065.261.285.392.658.392.205 0 .448-.047.728-.14v1.848zm-3.864-7.42c-.299.224-.69.387-1.176.49-.485.103-.994.187-1.526.252s-1.069.14-1.61.224a5.92 5.92 0 0 0-1.456.406c-.43.187-.78.453-1.05.798-.27.345-.406.817-.406 1.414 0 .392.08.723.238.994.159.27.364.49.616.658.252.168.546.29.882.364.336.075.69.112 1.064.112.784 0 1.456-.107 2.016-.322.56-.215 1.017-.485 1.372-.812.355-.327.616-.681.784-1.064.168-.383.252-.742.252-1.078v-2.436zm6.076-7V151h2.38v-8.176c0-.653.089-1.255.266-1.806.177-.55.443-1.031.798-1.442.355-.41.798-.728 1.33-.952.532-.224 1.162-.336 1.89-.336.915 0 1.633.261 2.156.784.523.523.784 1.232.784 2.128v9.8h2.38v-9.52c0-.784-.08-1.498-.238-2.142a4.057 4.057 0 0 0-.826-1.666c-.392-.467-.905-.83-1.54-1.092-.635-.261-1.428-.392-2.38-.392-2.147 0-3.715.877-4.704 2.632h-.056v-2.296h-2.24zm18.088-2.604v-2.912h-2.38v2.912h2.38zm-2.38 2.604V151h2.38v-14.476h-2.38zm4.9 12.656V151h12.208v-2.1h-9.24l8.848-10.752v-1.624h-11.256v2.1h8.176l-8.736 10.556zm24.668-6.804h-8.316c.037-.56.159-1.087.364-1.582a4.22 4.22 0 0 1 .84-1.302c.355-.373.78-.667 1.274-.882a4.144 4.144 0 0 1 1.666-.322 4.071 4.071 0 0 1 2.926 1.19c.364.364.653.798.868 1.302a4.87 4.87 0 0 1 .378 1.596zm2.296 4.032h-2.352c-.205.952-.63 1.661-1.274 2.128-.644.467-1.47.7-2.478.7-.784 0-1.465-.13-2.044-.392a4.006 4.006 0 0 1-1.428-1.05 4.09 4.09 0 0 1-.812-1.512 5.746 5.746 0 0 1-.224-1.806H711.3a11.525 11.525 0 0 0-.238-2.772 8.024 8.024 0 0 0-1.064-2.688 6.34 6.34 0 0 0-2.044-2.03c-.85-.532-1.918-.798-3.206-.798-.99 0-1.9.187-2.73.56-.83.373-1.55.896-2.156 1.568a7.227 7.227 0 0 0-1.414 2.38c-.336.915-.504 1.923-.504 3.024.037 1.101.2 2.119.49 3.052.29.933.723 1.736 1.302 2.408a5.934 5.934 0 0 0 2.142 1.568c.85.373 1.853.56 3.01.56 1.643 0 3.005-.41 4.088-1.232 1.083-.821 1.783-2.044 2.1-3.668zm4.424-2.52c0-.71.075-1.4.224-2.072.15-.672.392-1.27.728-1.792a3.79 3.79 0 0 1 1.344-1.26c.56-.317 1.241-.476 2.044-.476.821 0 1.521.154 2.1.462.579.308 1.05.714 1.414 1.218.364.504.63 1.087.798 1.75.168.663.252 1.349.252 2.058 0 .672-.08 1.335-.238 1.988a5.21 5.21 0 0 1-.77 1.75 4.097 4.097 0 0 1-1.372 1.246c-.56.317-1.241.476-2.044.476-.765 0-1.433-.15-2.002-.448a3.979 3.979 0 0 1-1.4-1.204 5.327 5.327 0 0 1-.812-1.722 7.402 7.402 0 0 1-.266-1.974zM726.7 151v-19.992h-2.38v7.448h-.056a3.834 3.834 0 0 0-.966-1.078 5.488 5.488 0 0 0-1.218-.7 6.114 6.114 0 0 0-1.288-.378 7.05 7.05 0 0 0-1.204-.112c-1.101 0-2.067.2-2.898.602a5.95 5.95 0 0 0-2.072 1.624 6.856 6.856 0 0 0-1.232 2.394c-.27.915-.406 1.885-.406 2.912s.14 1.997.42 2.912c.28.915.695 1.717 1.246 2.408a6.022 6.022 0 0 0 2.072 1.652c.83.41 1.806.616 2.926.616 1.008 0 1.932-.177 2.772-.532.84-.355 1.456-.933 1.848-1.736h.056V151h2.38zm4.2-3.108V151h3.108v-3.108H730.9zM613.748 176.86h2.52c-.037-1.101-.247-2.049-.63-2.842a5.538 5.538 0 0 0-1.568-1.974 6.468 6.468 0 0 0-2.31-1.148 10.682 10.682 0 0 0-2.856-.364c-.915 0-1.806.117-2.674.35a7.352 7.352 0 0 0-2.324 1.064 5.385 5.385 0 0 0-1.638 1.82c-.41.737-.616 1.61-.616 2.618 0 .915.182 1.675.546 2.282.364.607.85 1.101 1.456 1.484.607.383 1.293.69 2.058.924.765.233 1.545.439 2.338.616.793.177 1.573.35 2.338.518a10.66 10.66 0 0 1 2.058.658c.607.27 1.092.62 1.456 1.05.364.43.546.99.546 1.68 0 .728-.15 1.325-.448 1.792a3.26 3.26 0 0 1-1.176 1.106 5.32 5.32 0 0 1-1.638.574 9.93 9.93 0 0 1-1.806.168 8.546 8.546 0 0 1-2.184-.28 5.435 5.435 0 0 1-1.862-.868 4.455 4.455 0 0 1-1.288-1.498c-.327-.607-.49-1.33-.49-2.17h-2.52c0 1.213.22 2.263.658 3.15a6.04 6.04 0 0 0 1.792 2.184c.756.57 1.633.994 2.632 1.274.999.28 2.058.42 3.178.42.915 0 1.834-.107 2.758-.322a7.981 7.981 0 0 0 2.506-1.036 5.876 5.876 0 0 0 1.834-1.848c.476-.756.714-1.666.714-2.73 0-.99-.182-1.81-.546-2.464a4.864 4.864 0 0 0-1.456-1.624 7.712 7.712 0 0 0-2.058-1.022 27.915 27.915 0 0 0-2.338-.658 89.816 89.816 0 0 0-2.338-.518 12.243 12.243 0 0 1-2.058-.602c-.607-.243-1.092-.555-1.456-.938-.364-.383-.546-.882-.546-1.498 0-.653.126-1.2.378-1.638a2.94 2.94 0 0 1 1.008-1.05c.42-.261.9-.448 1.442-.56a8.132 8.132 0 0 1 1.652-.168c1.381 0 2.515.322 3.402.966.887.644 1.405 1.685 1.554 3.122zm9.492-.336v-4.34h-2.38v4.34h-2.464v2.1h2.464v9.212c0 .672.065 1.213.196 1.624.13.41.331.728.602.952.27.224.625.378 1.064.462.439.084.966.126 1.582.126h1.82v-2.1h-1.092c-.373 0-.677-.014-.91-.042-.233-.028-.415-.089-.546-.182a.692.692 0 0 1-.266-.392 2.597 2.597 0 0 1-.07-.672v-8.988h2.884v-2.1h-2.884zm5.432 0V191h2.38v-6.44c0-.933.093-1.76.28-2.478.187-.719.485-1.33.896-1.834.41-.504.952-.887 1.624-1.148.672-.261 1.484-.392 2.436-.392v-2.52c-1.288-.037-2.352.224-3.192.784-.84.56-1.55 1.428-2.128 2.604h-.056v-3.052h-2.24zm22.232 14.42c-.41.243-.98.364-1.708.364-.616 0-1.106-.173-1.47-.518-.364-.345-.546-.91-.546-1.694-.653.784-1.414 1.349-2.282 1.694a7.543 7.543 0 0 1-2.814.518 7.539 7.539 0 0 1-1.862-.224 4.33 4.33 0 0 1-1.526-.7 3.36 3.36 0 0 1-1.022-1.246c-.252-.513-.378-1.134-.378-1.862 0-.821.14-1.493.42-2.016.28-.523.649-.947 1.106-1.274.457-.327.98-.574 1.568-.742.588-.168 1.19-.308 1.806-.42.653-.13 1.274-.229 1.862-.294a10.374 10.374 0 0 0 1.554-.28c.448-.121.803-.299 1.064-.532.261-.233.392-.574.392-1.022 0-.523-.098-.943-.294-1.26a2.016 2.016 0 0 0-.756-.728 3.074 3.074 0 0 0-1.036-.336 7.824 7.824 0 0 0-1.134-.084c-1.008 0-1.848.191-2.52.574-.672.383-1.036 1.106-1.092 2.17h-2.38c.037-.896.224-1.652.56-2.268a4.246 4.246 0 0 1 1.344-1.498c.56-.383 1.2-.658 1.918-.826a10.13 10.13 0 0 1 2.31-.252c.653 0 1.302.047 1.946.14a5.086 5.086 0 0 1 1.75.574c.523.29.943.695 1.26 1.218.317.523.476 1.204.476 2.044v7.448c0 .56.033.97.098 1.232.065.261.285.392.658.392.205 0 .448-.047.728-.14v1.848zm-3.864-7.42c-.299.224-.69.387-1.176.49-.485.103-.994.187-1.526.252s-1.069.14-1.61.224a5.92 5.92 0 0 0-1.456.406c-.43.187-.78.453-1.05.798-.27.345-.406.817-.406 1.414 0 .392.08.723.238.994.159.27.364.49.616.658.252.168.546.29.882.364.336.075.69.112 1.064.112.784 0 1.456-.107 2.016-.322.56-.215 1.017-.485 1.372-.812.355-.327.616-.681.784-1.064.168-.383.252-.742.252-1.078v-2.436zm8.596-9.604v-2.912h-2.38v2.912h2.38zm-2.38 2.604V191h2.38v-14.476h-2.38zm18.564 13.244v-13.244h-2.24v2.072h-.028c-.43-.803-1.027-1.405-1.792-1.806a5.343 5.343 0 0 0-2.52-.602c-1.25 0-2.305.238-3.164.714s-1.55 1.083-2.072 1.82a7.216 7.216 0 0 0-1.12 2.464 10.997 10.997 0 0 0-.336 2.646c0 .99.135 1.927.406 2.814.27.887.677 1.661 1.218 2.324a5.918 5.918 0 0 0 2.016 1.582c.803.392 1.745.588 2.828.588.933 0 1.815-.21 2.646-.63.83-.42 1.451-1.078 1.862-1.974h.056v.952c0 .803-.08 1.54-.238 2.212-.159.672-.415 1.246-.77 1.722-.355.476-.803.85-1.344 1.12-.541.27-1.204.406-1.988.406a6.42 6.42 0 0 1-1.232-.126 4.477 4.477 0 0 1-1.19-.406 2.962 2.962 0 0 1-.924-.728 1.76 1.76 0 0 1-.406-1.092h-2.38c.037.784.243 1.447.616 1.988.373.541.845.98 1.414 1.316.57.336 1.204.579 1.904.728.7.15 1.386.224 2.058.224 2.315 0 4.013-.588 5.096-1.764 1.083-1.176 1.624-2.95 1.624-5.32zm-6.664-.7c-.784 0-1.437-.163-1.96-.49a3.781 3.781 0 0 1-1.26-1.288 5.576 5.576 0 0 1-.672-1.778 9.971 9.971 0 0 1-.196-1.96c0-.69.08-1.353.238-1.988.159-.635.41-1.195.756-1.68a3.811 3.811 0 0 1 1.33-1.162c.541-.29 1.195-.434 1.96-.434.747 0 1.381.15 1.904.448.523.299.947.695 1.274 1.19.327.495.565 1.05.714 1.666.15.616.224 1.241.224 1.876 0 .672-.08 1.344-.238 2.016a5.887 5.887 0 0 1-.742 1.806c-.336.532-.78.961-1.33 1.288-.55.327-1.218.49-2.002.49zm10.248-18.06V191h2.38v-8.176c0-.653.089-1.255.266-1.806.177-.55.443-1.031.798-1.442.355-.41.798-.728 1.33-.952.532-.224 1.162-.336 1.89-.336.915 0 1.633.261 2.156.784.523.523.784 1.232.784 2.128v9.8h2.38v-9.52c0-.784-.08-1.498-.238-2.142a4.057 4.057 0 0 0-.826-1.666c-.392-.467-.905-.83-1.54-1.092-.635-.261-1.428-.392-2.38-.392-.43 0-.873.047-1.33.14a5.882 5.882 0 0 0-1.316.434c-.42.196-.798.448-1.134.756a3.166 3.166 0 0 0-.784 1.134h-.056v-7.644h-2.38zm18.872 5.516v-4.34h-2.38v4.34h-2.464v2.1h2.464v9.212c0 .672.065 1.213.196 1.624.13.41.331.728.602.952.27.224.625.378 1.064.462.439.084.966.126 1.582.126h1.82v-2.1h-1.092c-.373 0-.677-.014-.91-.042-.233-.028-.415-.089-.546-.182a.692.692 0 0 1-.266-.392 2.597 2.597 0 0 1-.07-.672v-8.988h2.884v-2.1h-2.884zm6.496 2.1V191h2.38v-12.376h2.8v-2.1h-2.8v-2.016c0-.635.159-1.064.476-1.288.317-.224.765-.336 1.344-.336.205 0 .43.014.672.042.243.028.467.08.672.154v-2.072a4.106 4.106 0 0 0-.77-.168 6.093 6.093 0 0 0-.77-.056c-1.307 0-2.3.303-2.982.91-.681.607-1.022 1.498-1.022 2.674v2.156h-2.436v2.1h2.436zm9.044 5.152c0-.877.117-1.657.35-2.338.233-.681.555-1.255.966-1.722.41-.467.891-.821 1.442-1.064a4.292 4.292 0 0 1 1.75-.364c.616 0 1.2.121 1.75.364s1.031.597 1.442 1.064c.41.467.733 1.04.966 1.722.233.681.35 1.46.35 2.338 0 .877-.117 1.657-.35 2.338-.233.681-.555 1.25-.966 1.708-.41.457-.891.807-1.442 1.05a4.292 4.292 0 0 1-1.75.364c-.616 0-1.2-.121-1.75-.364a4.192 4.192 0 0 1-1.442-1.05c-.41-.457-.733-1.027-.966-1.708-.233-.681-.35-1.46-.35-2.338zm-2.52 0c0 1.064.15 2.053.448 2.968a6.775 6.775 0 0 0 1.344 2.394 6.183 6.183 0 0 0 2.212 1.596c.877.383 1.885.574 3.024.574 1.157 0 2.17-.191 3.038-.574a6.212 6.212 0 0 0 2.198-1.596 6.775 6.775 0 0 0 1.344-2.394 9.51 9.51 0 0 0 .448-2.968c0-1.064-.15-2.058-.448-2.982a6.756 6.756 0 0 0-1.344-2.408 6.363 6.363 0 0 0-2.198-1.61c-.868-.392-1.88-.588-3.038-.588-1.139 0-2.147.196-3.024.588a6.331 6.331 0 0 0-2.212 1.61 6.756 6.756 0 0 0-1.344 2.408 9.641 9.641 0 0 0-.448 2.982zm16.772-7.252V191h2.38v-6.44c0-.933.093-1.76.28-2.478.187-.719.485-1.33.896-1.834.41-.504.952-.887 1.624-1.148.672-.261 1.484-.392 2.436-.392v-2.52c-1.288-.037-2.352.224-3.192.784-.84.56-1.55 1.428-2.128 2.604h-.056v-3.052h-2.24zM747.812 191l4.62-14.476h-2.464l-3.248 11.844h-.056l-3.024-11.844h-2.604l-2.912 11.844h-.056l-3.276-11.844h-2.632L736.808 191h2.576l2.912-11.508h.056l2.94 11.508h2.52zm19.712-.056c-.41.243-.98.364-1.708.364-.616 0-1.106-.173-1.47-.518-.364-.345-.546-.91-.546-1.694-.653.784-1.414 1.349-2.282 1.694a7.543 7.543 0 0 1-2.814.518 7.539 7.539 0 0 1-1.862-.224 4.33 4.33 0 0 1-1.526-.7 3.36 3.36 0 0 1-1.022-1.246c-.252-.513-.378-1.134-.378-1.862 0-.821.14-1.493.42-2.016.28-.523.649-.947 1.106-1.274.457-.327.98-.574 1.568-.742.588-.168 1.19-.308 1.806-.42.653-.13 1.274-.229 1.862-.294a10.374 10.374 0 0 0 1.554-.28c.448-.121.803-.299 1.064-.532.261-.233.392-.574.392-1.022 0-.523-.098-.943-.294-1.26a2.016 2.016 0 0 0-.756-.728 3.074 3.074 0 0 0-1.036-.336 7.824 7.824 0 0 0-1.134-.084c-1.008 0-1.848.191-2.52.574-.672.383-1.036 1.106-1.092 2.17h-2.38c.037-.896.224-1.652.56-2.268a4.246 4.246 0 0 1 1.344-1.498c.56-.383 1.2-.658 1.918-.826a10.13 10.13 0 0 1 2.31-.252c.653 0 1.302.047 1.946.14a5.086 5.086 0 0 1 1.75.574c.523.29.943.695 1.26 1.218.317.523.476 1.204.476 2.044v7.448c0 .56.033.97.098 1.232.065.261.285.392.658.392.205 0 .448-.047.728-.14v1.848zm-3.864-7.42c-.299.224-.69.387-1.176.49-.485.103-.994.187-1.526.252s-1.069.14-1.61.224a5.92 5.92 0 0 0-1.456.406c-.43.187-.78.453-1.05.798-.27.345-.406.817-.406 1.414 0 .392.08.723.238.994.159.27.364.49.616.658.252.168.546.29.882.364.336.075.69.112 1.064.112.784 0 1.456-.107 2.016-.322.56-.215 1.017-.485 1.372-.812.355-.327.616-.681.784-1.064.168-.383.252-.742.252-1.078v-2.436zm5.992-7V191h2.38v-6.44c0-.933.093-1.76.28-2.478.187-.719.485-1.33.896-1.834.41-.504.952-.887 1.624-1.148.672-.261 1.484-.392 2.436-.392v-2.52c-1.288-.037-2.352.224-3.192.784-.84.56-1.55 1.428-2.128 2.604h-.056v-3.052h-2.24zm11.144 7.364c0-.71.075-1.4.224-2.072.15-.672.392-1.27.728-1.792a3.79 3.79 0 0 1 1.344-1.26c.56-.317 1.241-.476 2.044-.476.821 0 1.521.154 2.1.462.579.308 1.05.714 1.414 1.218.364.504.63 1.087.798 1.75.168.663.252 1.349.252 2.058 0 .672-.08 1.335-.238 1.988a5.21 5.21 0 0 1-.77 1.75 4.097 4.097 0 0 1-1.372 1.246c-.56.317-1.241.476-2.044.476-.765 0-1.433-.15-2.002-.448a3.979 3.979 0 0 1-1.4-1.204 5.327 5.327 0 0 1-.812-1.722 7.402 7.402 0 0 1-.266-1.974zm11.2 7.112v-19.992h-2.38v7.448h-.056a3.834 3.834 0 0 0-.966-1.078 5.488 5.488 0 0 0-1.218-.7 6.114 6.114 0 0 0-1.288-.378 7.05 7.05 0 0 0-1.204-.112c-1.101 0-2.067.2-2.898.602a5.95 5.95 0 0 0-2.072 1.624 6.856 6.856 0 0 0-1.232 2.394c-.27.915-.406 1.885-.406 2.912s.14 1.997.42 2.912c.28.915.695 1.717 1.246 2.408a6.022 6.022 0 0 0 2.072 1.652c.83.41 1.806.616 2.926.616 1.008 0 1.932-.177 2.772-.532.84-.355 1.456-.933 1.848-1.736h.056V191h2.38zm4.2-3.108V191h3.108v-3.108h-3.108z" fill="#000"/><path d="M911.867 30h-2.827l-10.737-16.436V30h-2.827V8.672h2.827l10.766 16.509V8.67h2.798V30zm7.515 0h-2.71V14.15h2.71V30zm-2.93-20.054c0-.44.134-.81.403-1.113.269-.303.666-.454 1.194-.454.527 0 .928.151 1.201.454.273.303.41.674.41 1.113 0 .44-.137.806-.41 1.099-.273.293-.674.44-1.201.44-.528 0-.925-.147-1.194-.44-.269-.293-.403-.66-.403-1.099zm9.815 4.204l.073 1.758c1.162-1.367 2.73-2.05 4.702-2.05 2.217 0 3.726.849 4.526 2.548a6.004 6.004 0 0 1 2.058-1.845c.845-.47 1.844-.704 2.996-.704 3.477 0 5.244 1.841 5.303 5.523V30h-2.71V19.541c0-1.133-.259-1.98-.777-2.541-.517-.562-1.386-.843-2.607-.843-1.006 0-1.84.3-2.505.901-.664.6-1.05 1.409-1.157 2.424V30h-2.725V19.614c0-2.304-1.128-3.457-3.383-3.457-1.778 0-2.994.757-3.648 2.27V30h-2.71V14.15h2.564zm37.163 8.101c0 2.422-.557 4.368-1.67 5.837-1.114 1.47-2.608 2.205-4.483 2.205-2.002 0-3.55-.708-4.643-2.124L952.502 30h-2.49V7.5h2.71v8.394c1.093-1.358 2.602-2.037 4.526-2.037s3.435.728 4.534 2.183c1.098 1.455 1.648 3.447 1.648 5.977v.234zm-2.71-.308c0-1.845-.357-3.271-1.07-4.277-.713-1.006-1.738-1.509-3.076-1.509-1.787 0-3.071.83-3.852 2.49v6.856c.83 1.66 2.124 2.49 3.882 2.49 1.298 0 2.31-.503 3.032-1.509.722-1.005 1.084-2.52 1.084-4.54zM969.787 30h-2.71V7.5h2.71V30zm10.913.293c-2.148 0-3.896-.706-5.244-2.117-1.348-1.41-2.021-3.298-2.021-5.661v-.498c0-1.573.3-2.976.9-4.212.601-1.235 1.44-2.202 2.52-2.9a6.335 6.335 0 0 1 3.508-1.048c2.06 0 3.662.68 4.805 2.037 1.143 1.357 1.714 3.3 1.714 5.83v1.128h-10.737c.039 1.562.495 2.824 1.37 3.786.873.962 1.984 1.443 3.332 1.443.957 0 1.767-.195 2.431-.586a6.11 6.11 0 0 0 1.743-1.553l1.656 1.29c-1.328 2.04-3.32 3.061-5.977 3.061zm-.337-14.209c-1.093 0-2.011.398-2.754 1.194-.742.796-1.2 1.911-1.377 3.347h7.94v-.205c-.078-1.377-.45-2.444-1.113-3.2-.664-.758-1.563-1.136-2.696-1.136zM992.01 26.25c.664 0 1.177.188 1.538.564.361.376.542.847.542 1.414 0 .556-.18 1.018-.542 1.384-.361.366-.874.55-1.538.55-.635 0-1.138-.182-1.509-.543-.371-.361-.557-.825-.557-1.391 0-.567.181-1.038.542-1.414.362-.376.87-.564 1.524-.564zm-84.36 33.262H896.72V70h-.791V48.672h13.213v.79H896.72v9.23h10.927v.82zM913.668 70h-.791V47.5h.79V70zm10.898.293a6.377 6.377 0 0 1-3.523-1.033c-1.069-.688-1.906-1.633-2.512-2.834-.605-1.201-.908-2.534-.908-4v-.658c0-1.465.293-2.808.879-4.029.586-1.22 1.392-2.173 2.417-2.856a5.926 5.926 0 0 1 3.354-1.026c1.768 0 3.213.63 4.336 1.89 1.123 1.26 1.685 2.915 1.685 4.966v.835h-11.88v.864c0 1.29.271 2.483.813 3.582.542 1.098 1.29 1.96 2.241 2.585a5.536 5.536 0 0 0 3.098.938c1.065 0 1.97-.179 2.718-.535.747-.357 1.408-.906 1.985-1.648l.556.395c-1.181 1.71-2.934 2.564-5.259 2.564zm-.293-15.645c-1.543 0-2.851.574-3.925 1.722-1.075 1.147-1.704 2.61-1.89 4.387h11.045v-.19a6.692 6.692 0 0 0-.681-2.996c-.454-.923-1.08-1.64-1.875-2.154a4.831 4.831 0 0 0-2.674-.769zm14.356 6.534l5.054-7.032h.996l-5.567 7.72 5.86 8.13h-.982l-5.376-7.441L933.254 70h-.982l5.86-8.13-5.567-7.72h.997l5.068 7.032zM949.294 70h-.791V54.15h.79V70zm-1.201-20.8c0-.225.078-.418.234-.58a.766.766 0 0 1 .571-.241.79.79 0 0 1 .58.242.79.79 0 0 1 .24.578c0 .225-.08.415-.24.572a.802.802 0 0 1-.58.234.777.777 0 0 1-.57-.234.777.777 0 0 1-.235-.572zm18.515 13.022c0 2.47-.532 4.433-1.596 5.888-1.065 1.455-2.515 2.183-4.35 2.183-1.192 0-2.257-.247-3.194-.74a5.585 5.585 0 0 1-2.212-2.058V70h-.791V47.5h.79v9.536c.558-1.045 1.292-1.836 2.205-2.373.914-.537 1.97-.806 3.172-.806 1.855 0 3.315.71 4.38 2.132 1.064 1.42 1.596 3.415 1.596 5.984v.249zm-.82-.308c0-2.275-.452-4.055-1.355-5.34-.903-1.283-2.165-1.926-3.787-1.926-1.328 0-2.453.342-3.376 1.026-.923.683-1.594 1.699-2.014 3.047v7.265c.42 1.123 1.091 1.99 2.014 2.6.923.61 2.058.916 3.406.916 1.63 0 2.89-.65 3.78-1.948.888-1.3 1.332-3.179 1.332-5.64zM971.896 70h-.79V47.5h.79V70zm10.899.293a6.377 6.377 0 0 1-3.523-1.033c-1.07-.688-1.907-1.633-2.512-2.834-.606-1.201-.908-2.534-.908-4v-.658c0-1.465.293-2.808.878-4.029.586-1.22 1.392-2.173 2.417-2.856a5.926 5.926 0 0 1 3.355-1.026c1.768 0 3.213.63 4.336 1.89 1.123 1.26 1.684 2.915 1.684 4.966v.835h-11.88v.864c0 1.29.272 2.483.814 3.582.542 1.098 1.289 1.96 2.24 2.585a5.536 5.536 0 0 0 3.099.938c1.064 0 1.97-.179 2.717-.535.747-.357 1.409-.906 1.985-1.648l.557.395c-1.182 1.71-2.935 2.564-5.26 2.564zm-.293-15.645c-1.543 0-2.852.574-3.926 1.722-1.074 1.147-1.704 2.61-1.89 4.387h11.045v-.19a6.692 6.692 0 0 0-.68-2.996c-.455-.923-1.08-1.64-1.876-2.154a4.831 4.831 0 0 0-2.673-.769zm9.346 14.634c0-.224.078-.417.234-.578a.766.766 0 0 1 .571-.242.79.79 0 0 1 .579.242.79.79 0 0 1 .242.578c0 .225-.08.415-.242.572a.802.802 0 0 1-.579.234.777.777 0 0 1-.571-.234.777.777 0 0 1-.234-.572zm-84.2 30.23h-10.927V110h-.791V88.672h13.213v.79H896.72v9.23h10.927v.82zM922.927 110c-.196-.674-.293-1.64-.293-2.9a6.358 6.358 0 0 1-2.564 2.358c-1.084.557-2.31.835-3.676.835-1.465 0-2.644-.398-3.538-1.194-.894-.796-1.34-1.833-1.34-3.113 0-1.455.656-2.62 1.97-3.493 1.313-.874 3.059-1.321 5.237-1.34h3.91v-2.315c0-1.328-.417-2.359-1.252-3.09-.835-.733-2.028-1.1-3.581-1.1-1.446 0-2.652.372-3.618 1.114-.967.742-1.45 1.66-1.45 2.754l-.792-.03c0-1.289.567-2.382 1.7-3.28 1.132-.9 2.52-1.349 4.16-1.349 1.709 0 3.066.428 4.072 1.282 1.006.855 1.524 2.058 1.553 3.611v7.573c0 1.739.137 2.92.41 3.545V110h-.908zm-6.533-.483c1.484 0 2.76-.332 3.83-.996 1.07-.665 1.873-1.597 2.41-2.798v-3.765h-3.662c-2.266 0-4 .45-5.2 1.348-.977.732-1.465 1.645-1.465 2.739 0 .967.385 1.787 1.157 2.46.771.675 1.748 1.012 2.93 1.012zm21.899-3.399c0-1.924-1.64-3.232-4.922-3.926-1.973-.42-3.345-.96-4.116-1.618-.772-.66-1.157-1.565-1.157-2.718 0-1.162.49-2.119 1.472-2.87.981-.753 2.258-1.129 3.83-1.129 1.71 0 3.081.408 4.117 1.224 1.035.815 1.552 1.916 1.552 3.303h-.805c0-1.065-.45-1.953-1.348-2.666-.898-.713-2.07-1.07-3.516-1.07-1.386 0-2.485.303-3.296.909-.81.605-1.215 1.362-1.215 2.27 0 .713.151 1.272.454 1.677.303.406.796.772 1.48 1.099.683.327 1.679.642 2.988.945 1.308.303 2.343.659 3.105 1.07.762.41 1.313.895 1.655 1.457.342.561.513 1.247.513 2.058 0 1.25-.513 2.256-1.538 3.017-1.025.762-2.368 1.143-4.028 1.143-1.778 0-3.21-.403-4.3-1.209-1.089-.805-1.633-1.843-1.633-3.112h.791c.078 1.113.569 1.98 1.472 2.6.903.62 2.127.93 3.67.93 1.416 0 2.565-.33 3.45-.989.883-.659 1.325-1.457 1.325-2.395zm6.929-16.245v4.277h3.603v.806h-3.603v11.25c0 1.123.183 1.953.549 2.49.366.537.979.806 1.838.806.43 0 .953-.044 1.568-.132l.132.747c-.323.117-.874.176-1.656.176-1.152 0-1.977-.32-2.475-.96-.498-.64-.752-1.647-.762-3.024V94.956h-2.93v-.806h2.93v-4.277h.806zm7.353 19.41c0-.225.078-.418.235-.58a.766.766 0 0 1 .57-.241.79.79 0 0 1 .58.242.79.79 0 0 1 .241.578c0 .225-.08.415-.242.572a.802.802 0 0 1-.578.234.777.777 0 0 1-.571-.234.777.777 0 0 1-.235-.572zm-48.53 31.591h-7.398V150h-.79v-21.328h6.796c2.139 0 3.84.552 5.105 1.655 1.265 1.104 1.897 2.603 1.897 4.497 0 1.455-.451 2.727-1.355 3.816a5.734 5.734 0 0 1-3.45 2.029l5.699 9.126V150h-.835l-5.67-9.126zm-7.398-.791h6.724c1.64 0 2.966-.498 3.977-1.494 1.01-.996 1.516-2.251 1.516-3.765 0-1.66-.559-2.969-1.677-3.926-1.118-.957-2.649-1.435-4.592-1.435h-5.948v10.62zm24.2 10.21a6.377 6.377 0 0 1-3.523-1.033c-1.07-.688-1.907-1.633-2.512-2.834-.606-1.201-.909-2.534-.909-4v-.658c0-1.465.293-2.808.88-4.029.585-1.22 1.39-2.173 2.416-2.856a5.926 5.926 0 0 1 3.355-1.026c1.767 0 3.213.63 4.336 1.89 1.123 1.26 1.684 2.915 1.684 4.966v.835h-11.88v.864c0 1.29.271 2.483.813 3.582.542 1.098 1.29 1.96 2.242 2.585a5.536 5.536 0 0 0 3.098.938c1.064 0 1.97-.179 2.717-.535.747-.357 1.409-.906 1.985-1.648l.556.395c-1.181 1.71-2.934 2.564-5.258 2.564zm-.293-15.645c-1.543 0-2.852.574-3.926 1.722-1.074 1.147-1.704 2.61-1.89 4.387h11.045v-.19a6.692 6.692 0 0 0-.68-2.996c-.455-.923-1.08-1.64-1.876-2.154a4.831 4.831 0 0 0-2.673-.769zm19.482 11.47c0-1.924-1.64-3.232-4.922-3.926-1.972-.42-3.344-.96-4.116-1.618-.771-.66-1.157-1.565-1.157-2.718 0-1.162.49-2.119 1.472-2.87.981-.753 2.258-1.129 3.83-1.129 1.71 0 3.082.408 4.117 1.224 1.035.815 1.553 1.916 1.553 3.303h-.806c0-1.065-.45-1.953-1.348-2.666-.898-.713-2.07-1.07-3.515-1.07-1.387 0-2.486.303-3.296.909-.81.605-1.216 1.362-1.216 2.27 0 .713.151 1.272.454 1.677.303.406.796.772 1.48 1.099.683.327 1.68.642 2.988.945 1.308.303 2.343.659 3.105 1.07.762.41 1.314.895 1.655 1.457.342.561.513 1.247.513 2.058 0 1.25-.513 2.256-1.538 3.017-1.025.762-2.368 1.143-4.028 1.143-1.778 0-3.21-.403-4.3-1.209-1.088-.805-1.633-1.843-1.633-3.112h.791c.078 1.113.569 1.98 1.472 2.6.904.62 2.127.93 3.67.93 1.416 0 2.566-.33 3.45-.989.883-.659 1.325-1.457 1.325-2.395zm17.27-3.896c0 2.47-.532 4.433-1.596 5.888s-2.515 2.183-4.35 2.183c-1.202 0-2.271-.244-3.209-.732-.937-.489-1.67-1.163-2.197-2.022v8.555h-.79V134.15h.79v2.828c.547-1.006 1.284-1.778 2.212-2.315.928-.537 1.982-.806 3.164-.806 1.856 0 3.316.71 4.38 2.132 1.064 1.42 1.597 3.415 1.597 5.984v.249zm-.805-.308c0-2.275-.452-4.055-1.355-5.34-.903-1.283-2.17-1.926-3.801-1.926-1.328 0-2.456.345-3.384 1.033-.928.689-1.597 1.677-2.007 2.966v7.413c.41 1.093 1.082 1.94 2.014 2.541.933.6 2.068.901 3.406.901 1.621 0 2.88-.645 3.78-1.934.898-1.289 1.347-3.173 1.347-5.654zm3.911-.146c0-1.514.29-2.874.872-4.08.58-1.206 1.401-2.146 2.46-2.82 1.06-.674 2.259-1.01 3.597-1.01 1.328 0 2.52.327 3.574.98 1.055.655 1.877 1.583 2.468 2.784.591 1.201.891 2.554.901 4.058v.703c0 1.523-.288 2.886-.864 4.087-.576 1.2-1.394 2.138-2.454 2.812-1.06.674-2.258 1.011-3.596 1.011s-2.536-.332-3.596-.996c-1.06-.664-1.882-1.594-2.468-2.79-.586-1.197-.884-2.542-.894-4.036v-.703zm.791.615c0 1.318.261 2.527.784 3.625.522 1.099 1.25 1.956 2.182 2.571.933.615 2 .923 3.201.923 1.807 0 3.279-.679 4.417-2.036 1.137-1.358 1.706-3.106 1.706-5.244v-.454c0-1.3-.264-2.5-.79-3.604-.528-1.103-1.258-1.965-2.19-2.585-.933-.62-1.99-.93-3.172-.93-1.807 0-3.281.688-4.424 2.065-1.143 1.377-1.714 3.11-1.714 5.2v.469zm17.71-4.541c.518-1.23 1.28-2.202 2.285-2.915a5.646 5.646 0 0 1 3.34-1.07c1.7 0 2.962.481 3.787 1.443.825.962 1.242 2.415 1.252 4.358V150h-.79v-10.371c-.01-1.7-.357-2.957-1.04-3.772-.685-.815-1.768-1.223-3.253-1.223-1.367 0-2.551.486-3.552 1.457-1.001.972-1.677 2.224-2.029 3.758V150h-.79v-15.85h.79v3.692zm25.4 8.276c0-1.924-1.64-3.232-4.921-3.926-1.973-.42-3.345-.96-4.117-1.618-.771-.66-1.157-1.565-1.157-2.718 0-1.162.49-2.119 1.472-2.87.982-.753 2.259-1.129 3.83-1.129 1.71 0 3.082.408 4.117 1.224 1.035.815 1.553 1.916 1.553 3.303h-.806c0-1.065-.449-1.953-1.347-2.666-.899-.713-2.07-1.07-3.516-1.07-1.387 0-2.485.303-3.296.909-.81.605-1.216 1.362-1.216 2.27 0 .713.152 1.272.454 1.677.303.406.796.772 1.48 1.099.683.327 1.68.642 2.988.945 1.309.303 2.344.659 3.106 1.07.761.41 1.313.895 1.655 1.457.342.561.512 1.247.512 2.058 0 1.25-.512 2.256-1.538 3.017-1.025.762-2.368 1.143-4.028 1.143-1.777 0-3.21-.403-4.3-1.209-1.088-.805-1.633-1.843-1.633-3.112h.791c.079 1.113.57 1.98 1.473 2.6.903.62 2.126.93 3.67.93 1.415 0 2.565-.33 3.449-.989.884-.659 1.325-1.457 1.325-2.395zm6.138 3.882h-.79v-15.85h.79V150zm-1.201-20.8c0-.225.078-.418.234-.58a.766.766 0 0 1 .572-.241.79.79 0 0 1 .578.242.79.79 0 0 1 .242.578c0 .225-.08.415-.242.572a.802.802 0 0 1-.578.234.777.777 0 0 1-.572-.234.777.777 0 0 1-.234-.572zm11.06 19.54l5.698-14.59h.85L1020.69 150h-.776l-6.152-15.85h.85l5.698 14.59zm15.366 1.553a6.377 6.377 0 0 1-3.523-1.033c-1.07-.688-1.907-1.633-2.512-2.834-.606-1.201-.909-2.534-.909-4v-.658c0-1.465.293-2.808.88-4.029.585-1.22 1.39-2.173 2.416-2.856a5.926 5.926 0 0 1 3.355-1.026c1.767 0 3.213.63 4.336 1.89 1.123 1.26 1.684 2.915 1.684 4.966v.835h-11.88v.864c0 1.29.271 2.483.813 3.582.542 1.098 1.29 1.96 2.242 2.585a5.536 5.536 0 0 0 3.098.938c1.064 0 1.97-.179 2.717-.535.747-.357 1.409-.906 1.985-1.648l.557.395c-1.182 1.71-2.935 2.564-5.26 2.564zm-.293-15.645c-1.543 0-2.852.574-3.926 1.722-1.074 1.147-1.704 2.61-1.89 4.387h11.045v-.19a6.692 6.692 0 0 0-.68-2.996c-.455-.923-1.08-1.64-1.876-2.154a4.831 4.831 0 0 0-2.673-.769zm9.346 14.634c0-.224.078-.417.234-.578a.766.766 0 0 1 .571-.242.79.79 0 0 1 .579.242.79.79 0 0 1 .241.578c0 .225-.08.415-.241.572a.802.802 0 0 1-.579.234.777.777 0 0 1-.571-.234.777.777 0 0 1-.234-.572zm-137.564 34.346h-10.444L894.348 190h-.865l7.984-21.328h.967L910.417 190h-.864l-2.388-6.372zm-10.151-.791h9.858l-4.922-13.213-4.936 13.213zm15.673-.923c0-2.53.533-4.504 1.597-5.925 1.065-1.421 2.525-2.132 4.38-2.132 1.182 0 2.232.271 3.15.813.917.542 1.655 1.336 2.211 2.38v-2.9h.806v15.572c0 2.09-.537 3.723-1.611 4.9-1.074 1.176-2.534 1.765-4.38 1.765-1.065 0-2.039-.23-2.923-.689-.883-.459-1.638-1.118-2.263-1.977l.557-.528c.615.782 1.289 1.38 2.021 1.795.733.415 1.592.622 2.579.622 1.63 0 2.9-.495 3.808-1.486.908-.992 1.377-2.39 1.406-4.197v-2.432a5.531 5.531 0 0 1-2.219 2.073c-.932.483-1.99.725-3.171.725-1.836 0-3.286-.728-4.35-2.183-1.065-1.455-1.597-3.452-1.597-5.99v-.206zm.806.308c0 2.265.45 4.045 1.348 5.339.898 1.294 2.158 1.941 3.78 1.941 1.337 0 2.475-.31 3.412-.93.938-.62 1.602-1.492 1.992-2.615v-7.192c-.859-2.745-2.651-4.117-5.376-4.117-1.63 0-2.898.64-3.8 1.92-.904 1.279-1.356 3.163-1.356 5.654zM930.866 190h-.79v-15.85h.79V190zm-1.201-20.8c0-.225.078-.418.234-.58a.766.766 0 0 1 .572-.241.79.79 0 0 1 .578.242.79.79 0 0 1 .242.578c0 .225-.08.415-.242.572a.802.802 0 0 1-.578.234.777.777 0 0 1-.572-.234.777.777 0 0 1-.234-.572zm7.383 20.8h-.791v-22.5h.79V190zm10.898.293a6.377 6.377 0 0 1-3.523-1.033c-1.069-.688-1.906-1.633-2.512-2.834-.605-1.201-.908-2.534-.908-4v-.658c0-1.465.293-2.808.879-4.029.586-1.22 1.391-2.173 2.417-2.856a5.926 5.926 0 0 1 3.354-1.026c1.768 0 3.213.63 4.336 1.89 1.123 1.26 1.685 2.915 1.685 4.966v.835h-11.88v.864c0 1.29.27 2.483.813 3.582.542 1.098 1.289 1.96 2.241 2.585a5.536 5.536 0 0 0 3.098.938c1.065 0 1.97-.179 2.718-.535.747-.357 1.408-.906 1.984-1.648l.557.395c-1.182 1.71-2.934 2.564-5.259 2.564zm-.293-15.645c-1.543 0-2.851.574-3.925 1.722-1.075 1.147-1.705 2.61-1.89 4.387h11.045v-.19a6.692 6.692 0 0 0-.681-2.996c-.454-.923-1.08-1.64-1.875-2.154a4.831 4.831 0 0 0-2.674-.769zM957 189.282c0-.224.078-.417.234-.578a.766.766 0 0 1 .572-.242.79.79 0 0 1 .578.242.79.79 0 0 1 .242.578c0 .225-.08.415-.242.572a.802.802 0 0 1-.578.234.777.777 0 0 1-.572-.234.777.777 0 0 1-.234-.572z" fill="#111"/><path d="M2.212 12.4V32h10.472c2.66 0 3.92-1.26 3.92-5.46 0-2.856-.588-3.948-1.988-4.564 1.288-.7 1.764-1.708 1.764-4.34 0-3.976-1.26-5.236-3.92-5.236H2.212zm4.032 7.84v-4.2h5.544c.42 0 .56.14.56 2.1s-.14 2.1-.56 2.1H6.244zm0 8.12v-4.648h5.768c.42 0 .56.14.56 2.324 0 2.184-.14 2.324-.56 2.324H6.244zM33.256 32c2.66 0 3.92-1.26 3.92-3.92V16.32c0-2.66-1.26-3.92-3.92-3.92H26.06c-2.66 0-3.92 1.26-3.92 3.92v11.76c0 2.66 1.26 3.92 3.92 3.92h7.196zm-7.084-15.344c0-.42.14-.56.56-.56h5.852c.42 0 .56.14.56.56v11.088c0 .42-.14.56-.56.56h-5.852c-.42 0-.56-.14-.56-.56V16.656zM43.524 12.4V32h12.488v-3.696h-8.456V12.4h-4.032zm17.94 0V32h10.724c2.66 0 3.92-1.26 3.92-3.92V16.32c0-2.66-1.26-3.92-3.92-3.92H61.464zm4.032 15.904V16.096h6.02c.42 0 .56.14.56.56v11.088c0 .42-.14.56-.56.56h-6.02zM85.76 32v-4.368h-4.48V32h4.48zM2.52 52.4V72h2.688v-7.252h7.14c2.604 0 3.92-1.344 3.92-3.92V56.32c0-2.576-1.316-3.92-3.92-3.92H2.52zm2.688 9.884v-7.42h6.86c1.008 0 1.512.504 1.512 1.54v4.34c0 1.008-.504 1.54-1.512 1.54h-6.86zM32.528 72c2.66 0 3.92-1.26 3.92-3.92V56.32c0-2.66-1.26-3.92-3.92-3.92h-6.524c-2.66 0-3.92 1.26-3.92 3.92v11.76c0 2.66 1.26 3.92 3.92 3.92h6.524zm-7.756-15.596c0-1.12.42-1.54 1.54-1.54h5.908c1.12 0 1.54.42 1.54 1.54v11.592c0 1.12-.42 1.54-1.54 1.54h-5.908c-1.12 0-1.54-.42-1.54-1.54V56.404zM60.352 72l5.18-19.6H62.76l-3.808 16.156-4.34-16.156H52.26l-4.34 16.156L44.112 52.4h-2.856L46.408 72h2.94l4.088-15.204L57.524 72h2.828zM71.18 52.4V72h12.656v-2.464h-9.968v-6.328h8.316v-2.464h-8.316v-5.88h9.968V52.4H71.18zM104.576 72l-4.004-7.756c2.296-.168 3.388-1.428 3.388-3.892V56.32c0-2.66-1.26-3.92-3.92-3.92h-9.8V72h2.688v-7.7h4.732l3.976 7.7h2.94zM92.928 61.864v-7.028h6.832c1.092 0 1.512.42 1.512 1.54v3.976c0 1.092-.42 1.512-1.512 1.512h-6.832zM110.952 72h2.688v-8.596h8.316v-2.436h-8.316v-6.104h9.968V52.4h-12.656V72zm32.36-19.6h-2.688v15.596c0 1.12-.42 1.54-1.512 1.54h-5.6c-1.12 0-1.54-.42-1.54-1.54V52.4h-2.688v15.68c0 2.66 1.26 3.92 3.92 3.92h6.188c2.66 0 3.92-1.26 3.92-3.92V52.4zm7.188 0V72h11.956v-2.464h-9.268V52.4H150.5zM170.792 72v-3.36h-3.276V72h3.276zM12.712 98.252h2.632V96.32c0-2.66-1.26-3.92-3.92-3.92H5.796c-2.66 0-3.92 1.26-3.92 3.92v2.38c0 2.8 1.764 3.5 4.032 4.004l5.404 1.204c1.148.28 1.652.644 1.652 1.848v2.352c0 1.092-.42 1.512-1.54 1.512H5.992c-1.092 0-1.512-.42-1.512-1.512v-2.184H1.82v2.156c0 2.66 1.26 3.92 3.92 3.92h5.992c2.66 0 3.92-1.26 3.92-3.92v-2.688c0-2.8-1.764-3.5-4.032-4.004l-5.404-1.232c-1.148-.252-1.652-.616-1.652-1.82v-2.044c0-1.092.42-1.512 1.54-1.512h5.068c1.12 0 1.54.42 1.54 1.512v1.96zM22.364 112h2.688V92.4h-2.688V112zm21.104-13.58h2.688v-2.1c0-2.66-1.26-3.92-3.92-3.92h-6.272c-2.66 0-3.92 1.26-3.92 3.92v11.76c0 2.66 1.26 3.92 3.92 3.92h6.272c2.66 0 3.92-1.26 3.92-3.92v-6.468H38.82v2.408h4.648v3.976c0 1.12-.42 1.54-1.54 1.54h-5.656c-1.12 0-1.54-.42-1.54-1.54V96.404c0-1.12.42-1.54 1.54-1.54h5.656c1.12 0 1.54.42 1.54 1.54v2.016zm21.804-6.02v15.26L55.92 92.4h-2.884V112h2.576V96.432L65.16 112h2.688V92.4h-2.576zM75.316 112h2.688V92.4h-2.688V112zm10.156 0h2.688v-8.596h8.316v-2.436H88.16v-6.104h9.968V92.4H85.472V112zm18.584 0h2.688V92.4h-2.688V112zm19.648 0c2.66 0 3.92-1.344 3.92-3.92v-2.492h-2.688v2.408c0 1.12-.42 1.54-1.54 1.54h-5.432c-1.12 0-1.54-.42-1.54-1.54V96.404c0-1.12.42-1.54 1.54-1.54h5.432c1.12 0 1.54.42 1.54 1.54v2.408h2.688V96.32c0-2.66-1.26-3.92-3.92-3.92h-6.048c-2.66 0-3.92 1.26-3.92 3.92v11.76c0 2.576 1.26 3.92 3.92 3.92h6.048zm20.824-5.348L146.32 112h2.912l-6.776-19.6h-3.5L132.18 112h2.8l1.792-5.348h7.756zm-.812-2.464h-6.132l3.052-9.184 3.08 9.184zm23.4-11.788v15.26l-9.352-15.26h-2.884V112h2.576V96.432L167.004 112h2.688V92.4h-2.576zm22.616 2.436V92.4H175.48v2.436h5.796V112h2.688V94.836h5.768zM195.744 112v-3.36h-3.276V112h3.276zM12.712 138.252h2.632v-1.932c0-2.66-1.26-3.92-3.92-3.92H5.796c-2.66 0-3.92 1.26-3.92 3.92v2.38c0 2.8 1.764 3.5 4.032 4.004l5.404 1.204c1.148.28 1.652.644 1.652 1.848v2.352c0 1.092-.42 1.512-1.54 1.512H5.992c-1.092 0-1.512-.42-1.512-1.512v-2.184H1.82v2.156c0 2.66 1.26 3.92 3.92 3.92h5.992c2.66 0 3.92-1.26 3.92-3.92v-2.688c0-2.8-1.764-3.5-4.032-4.004l-5.404-1.232c-1.148-.252-1.652-.616-1.652-1.82v-2.044c0-1.092.42-1.512 1.54-1.512h5.068c1.12 0 1.54.42 1.54 1.512v1.96zm9.652-5.852V152H35.02v-2.464h-9.968v-6.328h8.316v-2.464h-8.316v-5.88h9.968V132.4H22.364zM55.76 152l-4.004-7.756c2.296-.168 3.388-1.428 3.388-3.892v-4.032c0-2.66-1.26-3.92-3.92-3.92h-9.8V152h2.688v-7.7h4.732l3.976 7.7h2.94zm-11.648-10.136v-7.028h6.832c1.092 0 1.512.42 1.512 1.54v3.976c0 1.092-.42 1.512-1.512 1.512h-6.832zM62.136 152h2.688v-19.6h-2.688V152zm20.124 0c2.66 0 3.92-1.26 3.92-3.92v-11.76c0-2.66-1.26-3.92-3.92-3.92h-6.524c-2.66 0-3.92 1.26-3.92 3.92v11.76c0 2.66 1.26 3.92 3.92 3.92h6.524zm-7.756-15.596c0-1.12.42-1.54 1.54-1.54h5.908c1.12 0 1.54.42 1.54 1.54v11.592c0 1.12-.42 1.54-1.54 1.54h-5.908c-1.12 0-1.54-.42-1.54-1.54v-11.592zm32.388-4.004h-2.688v15.596c0 1.12-.42 1.54-1.512 1.54h-5.6c-1.12 0-1.54-.42-1.54-1.54V132.4h-2.688v15.68c0 2.66 1.26 3.92 3.92 3.92h6.188c2.66 0 3.92-1.26 3.92-3.92V132.4zm17.38 5.852h2.632v-1.932c0-2.66-1.26-3.92-3.92-3.92h-5.628c-2.66 0-3.92 1.26-3.92 3.92v2.38c0 2.8 1.764 3.5 4.032 4.004l5.404 1.204c1.148.28 1.652.644 1.652 1.848v2.352c0 1.092-.42 1.512-1.54 1.512h-5.432c-1.092 0-1.512-.42-1.512-1.512v-2.184h-2.66v2.156c0 2.66 1.26 3.92 3.92 3.92h5.992c2.66 0 3.92-1.26 3.92-3.92v-2.688c0-2.8-1.764-3.5-4.032-4.004l-5.404-1.232c-1.148-.252-1.652-.616-1.652-1.82v-2.044c0-1.092.42-1.512 1.54-1.512h5.068c1.12 0 1.54.42 1.54 1.512v1.96zM136.08 152v-3.36h-3.276V152h3.276zM12.712 178.252h2.632v-1.932c0-2.66-1.26-3.92-3.92-3.92H5.796c-2.66 0-3.92 1.26-3.92 3.92v2.38c0 2.8 1.764 3.5 4.032 4.004l5.404 1.204c1.148.28 1.652.644 1.652 1.848v2.352c0 1.092-.42 1.512-1.54 1.512H5.992c-1.092 0-1.512-.42-1.512-1.512v-2.184H1.82v2.156c0 2.66 1.26 3.92 3.92 3.92h5.992c2.66 0 3.92-1.26 3.92-3.92v-2.688c0-2.8-1.764-3.5-4.032-4.004l-5.404-1.232c-1.148-.252-1.652-.616-1.652-1.82v-2.044c0-1.092.42-1.512 1.54-1.512h5.068c1.12 0 1.54.42 1.54 1.512v1.96zM32.332 192c2.66 0 3.92-1.26 3.92-3.92v-11.76c0-2.66-1.26-3.92-3.92-3.92h-6.524c-2.66 0-3.92 1.26-3.92 3.92v11.76c0 2.66 1.26 3.92 3.92 3.92h6.524zm-7.756-15.596c0-1.12.42-1.54 1.54-1.54h5.908c1.12 0 1.54.42 1.54 1.54v11.592c0 1.12-.42 1.54-1.54 1.54h-5.908c-1.12 0-1.54-.42-1.54-1.54v-11.592zm18.612-4.004V192h11.956v-2.464h-9.268V172.4h-2.688zM61.1 192h2.688v-19.6H61.1V192zm10.156-19.6V192h10.08c2.66 0 3.92-1.26 3.92-3.92v-11.76c0-2.66-1.26-3.92-3.92-3.92h-10.08zm2.688 17.136v-14.672h7.112c1.092 0 1.512.42 1.512 1.54v11.592c0 1.12-.42 1.54-1.512 1.54h-7.112zM94.6 192v-3.36h-3.276V192H94.6z" fill="#000"/></g></svg>