<svg width="510" height="275" viewBox="0 0 510 275" xmlns="http://www.w3.org/2000/svg"><title>industry-sample</title><g fill="none" fill-rule="evenodd"><path d="M0 0h510v275H0z"/><path d="M39.982 59.804l6.314 17.056h4.264l-21.566-57.4h-4.428L3 76.86h4.182l6.314-17.056h26.486zm-1.312-3.608H14.808l11.89-32.226L38.67 56.196zM71.388 32.58c-7.708 0-11.48 3.69-11.48 11.48v.738h3.772v-.984c0-5.494 2.46-7.872 7.872-7.872h8.364c5.412 0 7.872 2.378 7.872 7.872v6.478c-8.446.82-13.694 1.312-17.958 1.804-7.626.902-11.48 3.526-11.48 12.3 0 8.774 3.772 12.792 13.202 12.792 7.79 0 11.89-1.968 16.236-6.478v6.15h3.772v-32.8c0-7.79-3.772-11.48-11.48-11.48h-8.692zm16.4 20.418V67.84c-5.084 4.1-9.02 5.986-16.154 5.986-7.052 0-9.512-2.788-9.512-9.43 0-6.642 2.46-8.446 7.872-9.184l17.794-2.214zM105.91 19.46v57.4h28.208c7.954 0 11.644-3.69 11.644-16.236 0-9.266-2.05-12.136-6.232-13.448 3.362-1.394 5.576-4.1 5.576-12.382 0-11.644-3.69-15.334-11.644-15.334H105.91zm5.904 25.01V24.872h21.32c4.264 0 5.904 1.64 5.904 9.84s-1.64 9.758-5.904 9.758h-21.32zm0 26.978V49.8h21.976c4.264 0 5.904 1.64 5.904 10.824s-1.64 10.824-5.904 10.824h-21.976zm67.568-39.196c-8.446 0-11.89 2.706-16.236 6.396V17h-5.576v59.86h5.576v-6.068c4.346 3.69 7.79 6.396 16.236 6.396 9.676 0 13.284-3.608 13.284-11.152V43.404c0-7.544-3.608-11.152-13.284-11.152zm7.708 34.112c0 4.1-1.64 5.74-7.79 5.74-7.708 0-11.316-1.886-16.154-5.33V42.666c4.838-3.444 8.446-5.33 16.154-5.33 6.15 0 7.79 1.64 7.79 5.74v23.288zm46.166 10.496c7.79 0 11.48-3.936 11.48-11.48v-7.298h-7.872v7.052c0 3.28-1.23 4.51-4.51 4.51h-15.908c-3.28 0-4.51-1.23-4.51-4.51V31.186c0-3.28 1.23-4.51 4.51-4.51h15.908c3.28 0 4.51 1.23 4.51 4.51v7.052h7.872V30.94c0-7.79-3.69-11.48-11.48-11.48h-17.712c-7.79 0-11.48 3.69-11.48 11.48v34.44c0 7.544 3.69 11.48 11.48 11.48h17.712zm32.472-44.28c-7.462 0-10.988 3.526-10.988 10.988v22.304c0 7.462 3.526 10.988 10.988 10.988h12.136c7.462 0 10.988-3.526 10.988-10.988v-3.854h-7.462v3.772c0 3.116-1.23 4.428-4.428 4.428H266.63c-3.116 0-4.428-1.312-4.428-4.428V43.65c0-3.116 1.312-4.428 4.428-4.428h10.332c3.198 0 4.428 1.312 4.428 4.428v3.772h7.462v-3.854c0-7.462-3.526-10.988-10.988-10.988h-12.136zm42.394 44.28h9.84v-57.4h-7.954L296.56 25.2v8.364l11.562-3.854v47.15zm33.292-39.852h-9.594V30.94c0-7.79 3.69-11.48 11.48-11.48h15.58c7.79 0 11.48 3.69 11.48 11.48v8.446c0 6.396-4.428 8.774-11.808 11.808l-13.448 5.658c-2.624 1.148-4.182 1.722-4.182 4.018v6.97h29.602v9.02h-39.442V59.148c0-6.396 4.51-8.774 11.808-11.808l13.53-5.658c2.624-1.148 4.1-1.722 4.1-4.018v-6.15c0-2.214-.82-3.034-3.034-3.034h-13.038c-2.214 0-3.034.82-3.034 3.034v5.494zm47.888 22.632h-9.84v1.394c0 12.136 3.69 15.826 11.48 15.826h17.63c7.79 0 11.48-3.69 11.48-16.072 0-8.856-1.886-11.726-5.904-13.366 3.526-1.722 5.248-4.428 5.248-12.628 0-11.644-3.69-15.334-11.48-15.334h-16.318c-7.79 0-11.48 3.69-11.48 15.744v1.476h9.84v-.902c0-6.56.82-7.38 3.034-7.38h13.448c2.296 0 3.116.82 3.116 7.298 0 6.56-.82 7.38-3.116 7.38h-13.53v8.774h14.186c2.296 0 3.116 1.066 3.116 8.036s-.82 8.036-3.116 8.036h-14.76c-2.214 0-3.034-.82-3.034-7.79v-.492zM5.833 172.13c-2.457 0-3.618 1.161-3.618 3.618v.486h2.457v-.54c0-1.053.405-1.458 1.458-1.458h3.267c1.053 0 1.458.405 1.458 1.458v2.214c-2.187.081-4.131.27-5.427.405-2.43.27-3.699 1.188-3.699 4.239 0 3.024 1.161 4.266 4.131 4.266 2.646 0 3.861-.783 4.995-2.187v2.079h2.457v-10.962c0-2.457-1.161-3.618-3.618-3.618H5.833zm5.022 7.398v3.591c-1.431.972-2.538 1.566-4.725 1.566-1.539 0-1.944-.513-1.944-2.268 0-1.728.432-2.052 1.566-2.214l5.103-.675zm15.405-7.506c-2.781 0-3.834.891-5.13 2.16V167h-2.457v19.71h2.457v-2.052c1.296 1.269 2.349 2.16 5.13 2.16 3.105 0 4.266-1.161 4.266-3.699v-7.398c0-2.538-1.161-3.699-4.266-3.699zm1.809 11.016c0 1.134-.432 1.539-2.079 1.539-2.322 0-3.429-.486-4.86-1.458v-7.398c1.431-.972 2.538-1.458 4.86-1.458 1.647 0 2.079.405 2.079 1.539v7.236zm10.923-10.908c-2.457 0-3.618 1.161-3.618 3.618v7.344c0 2.457 1.161 3.618 3.618 3.618h3.996c2.457 0 3.618-1.161 3.618-3.618v-1.269h-2.457v1.242c0 1.026-.405 1.458-1.458 1.458h-3.402c-1.026 0-1.458-.432-1.458-1.458v-7.29c0-1.026.432-1.458 1.458-1.458h3.402c1.053 0 1.458.432 1.458 1.458v1.242h2.457v-1.269c0-2.457-1.161-3.618-3.618-3.618h-3.996zm16.431-.108c-3.105 0-4.266 1.161-4.266 3.699v7.398c0 2.538 1.161 3.699 4.266 3.699 2.781 0 3.861-.891 5.13-2.16v2.052h2.457V167h-2.457v7.182c-1.269-1.269-2.349-2.16-5.13-2.16zm-1.809 3.78c0-1.134.405-1.539 2.079-1.539 2.322 0 3.429.486 4.86 1.458v7.398c-1.431.972-2.538 1.458-4.86 1.458-1.674 0-2.079-.405-2.079-1.539v-7.236zm17.025 4.212h9.018v-4.266c0-2.457-1.161-3.618-3.618-3.618H71.8c-2.457 0-3.618 1.161-3.618 3.618v7.344c0 2.457 1.161 3.618 3.618 3.618h4.239c2.457 0 3.618-1.161 3.618-3.618v-.999H77.2v1.08c0 1.026-.432 1.458-1.458 1.458h-3.645c-1.026 0-1.458-.432-1.458-1.458v-3.159zm5.103-5.805c1.053 0 1.458.432 1.458 1.458v2.511h-6.561v-2.511c0-1.026.432-1.458 1.458-1.458h3.645zm16.026-5.184V167h-2.43c-2.484 0-3.618 1.161-3.618 3.618v1.512h-2.43v2.079h2.403v12.501h2.457v-12.501h3.888v-2.079H88.15v-1.647c0-1.053.432-1.458 1.458-1.458h2.16zm15.486 3.105h-2.457v2.052c-1.269-1.269-2.349-2.16-5.13-2.16-3.105 0-4.266 1.161-4.266 3.699v6.912c0 2.565 1.161 3.726 4.266 3.726 2.781 0 3.861-.918 5.13-2.16v3.294c0 1.053-.405 1.458-1.458 1.458h-6.264v2.079h6.561c2.457 0 3.618-1.161 3.618-3.618V172.13zm-9.396 3.591c0-1.053.405-1.458 2.079-1.458 2.322 0 3.429.486 4.86 1.458v6.939c-1.431.945-2.538 1.458-4.86 1.458-1.674 0-2.079-.405-2.079-1.458v-6.939zM115.207 167h-2.457v19.71h2.457v-11.016c1.431-.972 2.538-1.458 4.698-1.458 1.485 0 1.89.405 1.89 1.485v10.989h2.457v-11.07c0-2.484-1.161-3.645-4.077-3.645-2.619 0-3.672.891-4.968 2.16V167zm17.079 3.105v-2.754h-2.727v2.754h2.727zm-.135 2.025h-2.457v14.58h2.457v-14.58zm8.736-2.025v-2.754h-2.727v2.754h2.727zm-.135 2.025h-2.484v15.228c0 .891-.621 1.269-1.404 1.566l-1.593.675v1.728l1.863-.378c2.376-.486 3.618-1.35 3.618-3.618V172.13zm14.703 14.58h2.7l-5.049-9.018 4.671-5.562h-2.97l-5.994 7.506V167h-2.457v19.71h2.457v-3.915l2.754-3.267 3.888 7.182zm6.684-19.71v19.71h2.457V167h-2.457zm23.721 4.968c-2.268 0-3.591.999-4.833 2.268-.378-1.539-1.566-2.268-3.699-2.268-2.349 0-3.402.891-4.698 2.16v-1.998h-2.457v14.58h2.457v-11.043c1.431-.972 2.538-1.458 4.428-1.458 1.242 0 1.674.405 1.674 1.485v10.854l-.027.162h2.484v-11.07c1.404-.918 2.538-1.431 4.401-1.431 1.242 0 1.674.405 1.674 1.485v11.016h2.457v-11.097c0-2.484-1.161-3.645-3.861-3.645zm11.679.162h-2.457v14.58h2.457v-11.016c1.431-.972 2.538-1.458 4.698-1.458 1.485 0 1.89.405 1.89 1.485v10.989h2.457v-11.07c0-2.484-1.161-3.645-4.077-3.645-2.619 0-3.672.891-4.968 2.16v-2.025zm17.673 0c-2.457 0-3.618 1.161-3.618 3.618v7.344c0 2.457 1.161 3.618 3.618 3.618h4.428c2.457 0 3.618-1.161 3.618-3.618v-7.344c0-2.457-1.161-3.618-3.618-3.618h-4.428zm5.562 10.935c0 1.026-.405 1.458-1.458 1.458h-3.807c-1.053 0-1.458-.432-1.458-1.458v-7.29c0-1.026.405-1.458 1.458-1.458h3.807c1.053 0 1.458.432 1.458 1.458v7.29zm15.243-11.043c-2.781 0-3.834.891-5.13 2.16v-2.052h-2.457v18.9h2.457v-6.372c1.296 1.269 2.349 2.16 5.13 2.16 3.105 0 4.266-1.161 4.266-3.699v-7.398c0-2.538-1.161-3.699-4.266-3.699zm1.809 11.016c0 1.134-.432 1.539-2.079 1.539-2.322 0-3.429-.486-4.86-1.458v-7.398c1.431-.972 2.538-1.458 4.86-1.458 1.647 0 2.079.405 2.079 1.539v7.236zm11.571-11.016c-3.105 0-4.266 1.161-4.266 3.699v7.398c0 2.538 1.161 3.699 4.266 3.699 2.781 0 3.861-.891 5.13-2.16v6.372h2.457v-18.9h-2.457v2.052c-1.269-1.269-2.349-2.16-5.13-2.16zm-1.809 3.78c0-1.134.405-1.539 2.079-1.539 2.322 0 3.429.486 4.86 1.458v7.398c-1.431.972-2.538 1.458-4.86 1.458-1.674 0-2.079-.405-2.079-1.539v-7.236zm22.911-1.323v-2.349h-1.08c-2.133 0-3.294.999-4.482 2.16v-2.16h-2.457v14.58h2.457v-10.8c1.323-.81 2.538-1.431 4.266-1.431h1.296zm11.841 1.944h2.403v-.486c0-2.646-1.161-3.807-3.618-3.807h-3.564c-2.457 0-3.618 1.161-3.618 4.131 0 2.457.972 3.267 3.159 3.645l4.158.675c.999.162 1.377.405 1.377 1.944 0 1.674-.405 2.106-1.458 2.106h-3.564c-1.026 0-1.458-.432-1.458-1.836v-.621h-2.403v.567c0 2.808 1.161 3.969 3.618 3.969h4.104c2.457 0 3.618-1.161 3.618-4.347 0-2.673-.972-3.483-3.159-3.861l-4.158-.675c-.999-.162-1.377-.405-1.377-1.728 0-1.458.405-1.89 1.458-1.89h3.024c1.053 0 1.458.432 1.458 1.647v.567zm10.653-2.214h3.483v-2.079h-3.483v-3.51h-2.43v3.51h-2.187v2.079h2.16v8.883c0 2.457 1.161 3.618 3.618 3.618h2.322v-2.133h-2.025c-1.026 0-1.458-.432-1.458-1.458v-8.91zm16.701 12.501h2.457v-14.58h-2.457v11.016c-1.431.972-2.538 1.458-4.698 1.458-1.485 0-1.89-.405-1.89-1.485V172.13h-2.457v11.07c0 2.484 1.161 3.645 4.077 3.645 2.619 0 3.672-.891 4.968-2.16v2.025zm19.212-14.58h-2.511l-3.834 12.447-3.834-12.447h-2.619l4.941 14.58h2.916l4.941-14.58zm18.213 14.58l3.915-14.58h-2.484l-2.754 11.988-3.267-11.988h-2.403l-3.267 11.988-2.754-11.988h-2.592l3.996 14.58h2.7l3.132-11.529 3.132 11.529h2.646zm12.705-5.535l3.78 5.535h2.7l-5.076-7.344 4.914-7.236h-2.538l-3.645 5.4-3.645-5.4h-2.727l4.968 7.209-5.022 7.371h2.565l3.726-5.535zm22.047-9.045h-2.511l-3.996 11.745-3.888-11.745h-2.592l5.238 14.58-1.539 4.32h2.349l6.939-18.9zm2.985 12.933v1.647h10.476v-2.079h-7.479l7.506-10.881v-1.62H385.18v2.079h7.155l-7.479 10.854zm-371.949 36.49l1.728 5.157h2.808l-6.534-18.9H7.534L1 226.71h2.7l1.728-5.157h7.479zm-.783-2.376H6.211l2.943-8.856 2.97 8.856zm9.951-11.367v18.9h9.558c2.592 0 3.807-1.215 3.807-5.319 0-2.943-.621-3.942-1.998-4.428 1.161-.513 1.782-1.431 1.782-4.104 0-3.834-1.215-5.049-3.807-5.049h-9.342zm2.592 8.019v-5.67h6.453c1.08 0 1.485.405 1.485 2.835 0 2.43-.405 2.835-1.485 2.835h-6.453zm0 8.532v-6.264h6.669c1.08 0 1.485.405 1.485 3.132 0 2.727-.405 3.132-1.485 3.132h-6.669zm25.503 2.349c2.565 0 3.78-1.296 3.78-3.78v-2.403h-2.592v2.322c0 1.08-.405 1.485-1.485 1.485h-5.238c-1.08 0-1.485-.405-1.485-1.485v-11.178c0-1.08.405-1.485 1.485-1.485h5.238c1.08 0 1.485.405 1.485 1.485v2.322h2.592v-2.403c0-2.565-1.215-3.78-3.78-3.78h-5.832c-2.565 0-3.78 1.215-3.78 3.78v11.34c0 2.484 1.215 3.78 3.78 3.78h5.832zm9.33-18.9v18.9h9.72c2.565 0 3.78-1.215 3.78-3.78v-11.34c0-2.565-1.215-3.78-3.78-3.78H59.5zm2.592 16.524v-14.148h6.858c1.053 0 1.458.405 1.458 1.485v11.178c0 1.08-.405 1.485-1.458 1.485h-6.858zm16.809-16.524v18.9h12.204v-2.376h-9.612v-6.102h8.019v-2.376h-8.019v-5.67h9.612v-2.376H78.901zm17.565 18.9h2.592v-8.289h8.019v-2.349h-8.019v-5.886h9.612v-2.376H96.466v18.9zm27.447-13.095h2.592v-2.025c0-2.565-1.215-3.78-3.78-3.78h-6.048c-2.565 0-3.78 1.215-3.78 3.78v11.34c0 2.565 1.215 3.78 3.78 3.78h6.048c2.565 0 3.78-1.215 3.78-3.78v-6.237h-7.074v2.322h4.482v3.834c0 1.08-.405 1.485-1.485 1.485h-5.454c-1.08 0-1.485-.405-1.485-1.485v-11.178c0-1.08.405-1.485 1.485-1.485h5.454c1.08 0 1.485.405 1.485 1.485v1.944zm8.412 13.095h2.592v-8.478h8.667v8.478h2.592v-18.9h-2.592v8.046h-8.667v-8.046h-2.592v18.9zm20.238 0h2.592v-18.9h-2.592v18.9zm19.725-18.9h-2.592v15.039c0 1.08-.405 1.485-1.458 1.485h-4.077c-1.08 0-1.485-.405-1.485-1.485v-3.348h-2.592v3.429c0 2.565 1.215 3.78 3.78 3.78h4.644c2.565 0 3.78-1.215 3.78-3.78v-15.12zm18.051 18.9h2.97l-6.966-11.34 6.48-7.56h-3.132l-8.721 10.341V207.81h-2.565v18.9h2.565v-5.103l3.645-4.239 5.724 9.342zm6.927-18.9v18.9h11.529v-2.376h-8.937V207.81h-2.592zm34.305 0h-3.051l-5.886 12.933-5.859-12.933h-3.051v18.9h2.457v-14.688l5.373 12.042h2.106l5.373-12.042v14.688h2.538v-18.9zm18.159 0v14.715l-9.018-14.715h-2.781v18.9h2.484v-15.012l9.207 15.012h2.592v-18.9h-2.484zm18.483 18.9c2.565 0 3.78-1.215 3.78-3.78v-11.34c0-2.565-1.215-3.78-3.78-3.78h-6.291c-2.565 0-3.78 1.215-3.78 3.78v11.34c0 2.565 1.215 3.78 3.78 3.78h6.291zm-7.479-15.039c0-1.08.405-1.485 1.485-1.485h5.697c1.08 0 1.485.405 1.485 1.485v11.178c0 1.08-.405 1.485-1.485 1.485h-5.697c-1.08 0-1.485-.405-1.485-1.485v-11.178zm17.133-3.861v18.9h2.592v-6.993h6.885c2.511 0 3.78-1.296 3.78-3.78v-4.347c0-2.484-1.269-3.78-3.78-3.78h-9.477zm2.592 9.531v-7.155h6.615c.972 0 1.458.486 1.458 1.485v4.185c0 .972-.486 1.485-1.458 1.485h-6.615zm19.239-9.531c-2.565 0-3.78 1.215-3.78 3.78v11.34c0 2.565 1.215 3.78 3.78 3.78h1.809v3.429h2.592v-3.429h1.782c2.565 0 3.78-1.215 3.78-3.78v-11.34c0-2.565-1.215-3.78-3.78-3.78h-6.183zm7.371 15.039c0 1.08-.405 1.485-1.485 1.485h-5.589c-1.08 0-1.485-.405-1.485-1.485v-11.178c0-1.08.405-1.485 1.485-1.485h5.589c1.08 0 1.485.405 1.485 1.485v11.178zm22.29 3.861l-3.861-7.479c2.214-.162 3.267-1.377 3.267-3.753v-3.888c0-2.565-1.215-3.78-3.78-3.78h-9.45v18.9h2.592v-7.425h4.563l3.834 7.425h2.835zm-11.232-9.774v-6.777h6.588c1.053 0 1.458.405 1.458 1.485v3.834c0 1.053-.405 1.458-1.458 1.458h-6.588zm26.394-3.483h2.538v-1.863c0-2.565-1.215-3.78-3.78-3.78h-5.427c-2.565 0-3.78 1.215-3.78 3.78v2.295c0 2.7 1.701 3.375 3.888 3.861l5.211 1.161c1.107.27 1.593.621 1.593 1.782v2.268c0 1.053-.405 1.458-1.485 1.458h-5.238c-1.053 0-1.458-.405-1.458-1.458v-2.106h-2.565v2.079c0 2.565 1.215 3.78 3.78 3.78h5.778c2.565 0 3.78-1.215 3.78-3.78v-2.592c0-2.7-1.701-3.375-3.888-3.861l-5.211-1.188c-1.107-.243-1.593-.594-1.593-1.755v-1.971c0-1.053.405-1.458 1.485-1.458h4.887c1.08 0 1.485.405 1.485 1.458v1.89zm20.346-3.294v-2.349h-13.743v2.349h5.589v16.551h2.592v-16.551h5.562zm18.024-2.349h-2.592v15.039c0 1.08-.405 1.485-1.458 1.485h-5.4c-1.08 0-1.485-.405-1.485-1.485V207.81h-2.592v15.12c0 2.565 1.215 3.78 3.78 3.78h5.967c2.565 0 3.78-1.215 3.78-3.78v-15.12zm19.968 0h-2.727l-5.049 16.038-4.968-16.038h-2.835l6.291 18.9h2.997l6.291-18.9zm21.372 18.9l4.995-18.9h-2.673l-3.672 15.579-4.185-15.579h-2.268l-4.185 15.579-3.672-15.579h-2.754l4.968 18.9h2.835l3.942-14.661 3.942 14.661h2.727zm15.459-7.506l4.914 7.506h2.916l-6.291-9.639 6.102-9.261h-2.754l-4.698 7.182-4.725-7.182h-2.916l6.048 9.261-6.237 9.639h2.754l4.887-7.506zm19.374 7.506v-6.615l6.534-12.285h-2.754l-5.049 9.639-5.049-9.639h-2.808l6.534 12.285v6.615h2.592zm9.735-1.917v1.917h13.095v-2.322h-9.963l10.017-14.661v-1.917h-12.69v2.322h9.558l-10.017 14.661zM11.854 266.71c2.565 0 3.78-1.215 3.78-3.78v-11.34c0-2.565-1.215-3.78-3.78-3.78H6.076c-2.565 0-3.78 1.215-3.78 3.78v11.34c0 2.565 1.215 3.78 3.78 3.78h5.778zm-6.966-15.039c0-1.08.405-1.485 1.485-1.485h5.184c1.08 0 1.485.405 1.485 1.485v11.178c0 1.08-.405 1.485-1.485 1.485H6.373c-1.08 0-1.485-.405-1.485-1.485v-11.178zm19.158 15.039h2.592v-18.9h-2.133l-4.266 1.728v2.295l3.807-1.35v16.227zm11.436-13.257h-2.565v-1.863c0-2.565 1.215-3.78 3.78-3.78h4.86c2.565 0 3.78 1.215 3.78 3.78v2.565c0 2.052-1.377 2.727-3.888 3.888l-4.536 2.052c-1.026.486-1.647.81-1.647 1.593v2.646h10.125v2.376H32.674v-5.319c0-2.052 1.35-2.727 3.888-3.888l4.509-2.052c1.053-.486 1.674-.81 1.674-1.593v-2.187c0-1.08-.405-1.485-1.485-1.485h-4.293c-1.08 0-1.485.405-1.485 1.485v1.782zm17.16 7.722H50.05v.351c0 3.969 1.215 5.184 3.78 5.184h5.535c2.565 0 3.78-1.215 3.78-5.292 0-3.024-.621-3.969-1.971-4.401 1.134-.513 1.755-1.377 1.755-4.158 0-3.834-1.215-5.049-3.78-5.049h-5.103c-2.565 0-3.78 1.215-3.78 5.157v.378h2.592v-.324c0-2.457.405-2.862 1.485-2.862h4.536c1.053 0 1.458.405 1.458 2.862 0 2.403-.405 2.808-1.458 2.808h-4.644v2.322h4.86c1.053 0 1.458.594 1.458 3.105s-.405 3.105-1.458 3.105h-4.968c-1.08 0-1.485-.405-1.485-2.943v-.243zm29.661.999v-2.349h-2.808V247.81h-2.673l-9.693 12.285.459 2.079h9.342v4.536h2.565v-4.536h2.808zm-12.042-2.349l6.696-8.559v8.559h-6.696zm19.077-9.639h9.531v-2.376H86.746v9.558l2.592.729c1.323-.837 2.592-1.431 5.049-1.431 1.836 0 2.241.405 2.241 1.485v4.698c0 1.08-.405 1.485-1.485 1.485h-4.509c-1.08 0-1.485-.405-1.485-1.485v-1.674h-2.592v1.755c0 2.565 1.215 3.78 3.78 3.78h5.076c2.565 0 3.807-1.242 3.807-3.807v-4.779c0-2.565-1.215-3.78-4.59-3.78-2.943 0-4.104.918-5.292 2.16v-6.318zm25.071 2.997h2.592v-1.593c0-2.565-1.215-3.78-3.78-3.78h-4.968c-2.565 0-3.78 1.215-3.78 3.78v11.34c0 2.565 1.215 3.78 3.78 3.78h5.211c2.565 0 3.78-1.215 3.78-3.78v-4.293c0-2.565-1.215-3.78-4.725-3.78-3.051 0-4.293.945-5.454 2.16v-5.346c0-.972.513-1.485 1.485-1.485h4.374c.972 0 1.485.513 1.485 1.485v1.512zm-7.344 5.454c1.323-.837 2.619-1.431 5.211-1.431 1.971 0 2.376.405 2.376 1.485v4.158c0 1.08-.405 1.485-1.485 1.485h-4.617c-1.08 0-1.485-.405-1.485-1.485v-4.212zm27.312-9.045v-1.782h-13.203v2.349h10.233l-8.046 16.551h2.781l8.235-17.118zm15.162 7.425c1.107-.513 1.755-1.377 1.755-4.158 0-3.834-1.215-5.049-3.78-5.049h-5.4c-2.565 0-3.78 1.215-3.78 5.049 0 2.781.648 3.645 1.755 4.158-1.323.432-1.971 1.377-1.971 4.401 0 4.077 1.215 5.292 3.78 5.292h5.832c2.565 0 3.78-1.215 3.78-5.292 0-3.024-.648-3.969-1.971-4.401zm-2.322-6.858c1.08 0 1.485.405 1.485 2.862 0 2.403-.405 2.808-1.485 2.808h-4.806c-1.08 0-1.485-.405-1.485-2.808 0-2.457.405-2.862 1.485-2.862h4.806zm-5.022 14.202c-1.08 0-1.485-.594-1.485-3.105s.405-3.105 1.485-3.105h5.238c1.08 0 1.485.594 1.485 3.105s-.405 3.105-1.485 3.105h-5.238zm17.187-3.024h-2.592v1.593c0 2.565 1.215 3.78 3.78 3.78h4.968c2.565 0 3.78-1.215 3.78-3.78v-11.34c0-2.565-1.215-3.78-3.78-3.78h-5.211c-2.565 0-3.78 1.215-3.78 3.78v4.104c0 2.565 1.215 3.78 4.725 3.78 3.051 0 4.293-.918 5.454-2.16v5.535c0 1.053-.432 1.485-1.485 1.485h-4.374c-1.053 0-1.485-.432-1.485-1.485v-1.512zm7.344-5.616c-1.323.837-2.619 1.431-5.211 1.431-1.971 0-2.376-.405-2.376-1.485v-3.996c0-1.08.405-1.485 1.485-1.485h4.617c1.08 0 1.485.405 1.485 1.485v4.05zm15.351.324v-5.886h1.377c1.08 0 1.485.405 1.485 2.43v.864h2.565v-.702c0-3.726-1.215-4.941-3.78-4.941h-1.485v-2.565h-2.187v2.565h-1.674c-2.592 0-3.807 1.215-3.807 4.941 0 3.834 1.674 4.482 3.915 4.995l1.728.378v6.237h-1.674c-1.053 0-1.458-.405-1.458-2.592v-.918h-2.565v.783c0 3.861 1.215 5.076 3.78 5.076h1.755v2.565h2.187v-2.565h1.836c2.592 0 3.807-1.215 3.807-5.076 0-3.996-1.674-4.644-3.915-5.157l-1.89-.432zm-1.863-.432l-.864-.189c-1.782-.405-2.16-.729-2.16-2.835 0-2.025.405-2.43 1.485-2.43h1.539v5.454zm1.863 8.748v-5.805l1.08.243c1.836.432 2.106.729 2.106 2.97 0 2.187-.405 2.592-1.485 2.592h-1.701zm12.246-16.551c-1.35 0-1.917.567-1.917 1.917v3.618c0 1.323.594 1.917 1.917 1.917h2.133c1.35 0 1.917-.567 1.917-1.917v-3.618c0-1.35-.567-1.917-1.917-1.917h-2.133zm11.259 0h-2.133l-9.747 18.9h2.133l9.747-18.9zm-8.829 5.346c0 .459-.135.594-.594.594h-1.539c-.459 0-.594-.135-.594-.594v-3.24c0-.459.135-.594.594-.594h1.539c.459 0 .594.135.594.594v3.24zm6.048 6.102c-1.35 0-1.917.567-1.917 1.917v3.618c0 1.323.594 1.917 1.917 1.917h2.133c1.35 0 1.917-.567 1.917-1.917v-3.618c0-1.35-.567-1.917-1.917-1.917h-2.133zm2.457 5.346c0 .459-.135.594-.594.594h-1.539c-.459 0-.594-.135-.594-.594v-3.24c0-.459.135-.594.594-.594h1.539c.459 0 .594.135.594.594v3.24zm19.266-6.453h2.106v-2.322h-10.854c-1.08 0-1.485-.405-1.485-2.808 0-2.457.405-2.862 1.485-2.862h4.104c1.053 0 1.458.405 1.458 1.485v1.701h2.592v-1.755c0-2.565-1.215-3.78-3.78-3.78h-4.671c-2.565 0-3.78 1.215-3.78 5.022 0 2.754.648 3.672 1.755 4.185-1.323.432-1.971 1.431-1.971 4.401 0 4.077 1.215 5.292 3.78 5.292h5.481c2.565 0 3.78-1.215 3.78-3.78v-4.779zm-2.592 0v4.725c0 1.08-.405 1.485-1.485 1.485h-4.887c-1.08 0-1.485-.405-1.485-3.105s.405-3.105 1.485-3.105h6.372zm13.164-10.341c-2.565 0-3.78 1.215-3.78 3.78v15.66c0 2.565 1.215 3.78 3.78 3.78h13.797v-1.728h-13.716c-1.404 0-1.998-.594-1.998-1.998v-15.768c0-1.404.594-1.998 1.998-1.998h12.933c1.404 0 1.998.594 1.998 1.998v10.044c0 1.647-.567 2.268-1.998 2.268h-1.296v-10.503h-1.782l-.54 1.944c-1.08-1.188-2.295-2.052-4.482-2.052-2.781 0-3.996 1.215-3.996 3.78v4.806c0 2.565 1.215 3.78 3.996 3.78 2.187 0 3.402-.864 4.482-2.052l.54 1.836h3.159c2.565 0 3.78-1.215 3.78-3.78V251.59c0-2.565-1.215-3.78-3.78-3.78h-13.095zm9.369 14.256c-1.35 1.08-2.511 1.512-4.212 1.512-1.512 0-1.917-.486-1.917-1.647v-5.022c0-1.161.405-1.647 1.944-1.647 1.674 0 2.835.432 4.185 1.512v5.292zm12.975-7.587h3.159v-3.24h-1.404l1.836-3.429h-1.215l-1.269 1.728c-.891 1.269-1.107 1.674-1.107 2.619v2.322zm15.378 1.242l-2.754-2.916 3.942-.729-.675-2.025-3.591 1.728.513-3.969h-2.133l.513 3.969-3.618-1.755-.648 2.052 3.915.729-2.754 2.916 1.755 1.269 1.89-3.537 1.917 3.51 1.728-1.242zm11.436-7.263v-2.376h-1.809c-2.565 0-3.78 1.215-3.78 3.78v15.93c0 2.565 1.215 3.78 3.78 3.78h1.809v-2.376h-1.512c-1.08 0-1.485-.405-1.485-1.485v-15.768c0-1.08.405-1.485 1.485-1.485h1.512zm7.872 15.012h-3.159v3.24h1.404l-1.836 3.429h1.215l1.269-1.728c.891-1.296 1.107-1.674 1.107-2.646v-2.295zm7.791 3.24v-3.24h-3.159v3.24h3.159zm7.791-11.34v-3.24h-3.159v3.24h3.159zm0 8.1h-3.159v3.24h1.404l-1.836 3.429h1.215l1.269-1.728c.891-1.296 1.107-1.674 1.107-2.646v-2.295zm19.104-8.694h3.618v-2.214h-2.943l1.431-4.752h-2.403l-1.458 4.752h-5.022l1.431-4.752h-2.403l-1.458 4.752h-3.861v2.214h3.186l-1.296 4.32h-3.726v2.214h3.051l-1.647 5.4h2.43l1.647-5.4h5.022l-1.647 5.4h2.43l1.647-5.4h3.753v-2.214h-3.105l1.323-4.32zm-2.43 0l-1.323 4.32h-5.022l1.296-4.32h5.049zm13.488 6.183l.648-13.149h-3.105l.648 13.149h1.809zm.648 5.751v-3.213h-3.105v3.213h3.105zm8.331-18.9c-2.565 0-3.78 1.215-3.78 3.78v1.971h2.592v-1.89c0-1.08.405-1.485 1.485-1.485h5.076c1.08 0 1.485.405 1.485 1.485v1.593c0 .756-.432 1.08-1.593 1.674l-.81.459c-2.322 1.242-3.888 2.079-3.888 3.888v2.106h2.592v-1.863c0-.54.432-.891 1.593-1.512l.837-.432c2.241-1.188 3.861-2.16 3.861-4.023v-1.971c0-2.565-1.215-3.78-3.78-3.78h-5.67zm3.132 15.633h-2.592v3.267h2.592v-3.267zm10.653-17.361v2.376h1.512c1.08 0 1.485.405 1.485 1.485v15.768c0 1.08-.405 1.485-1.485 1.485h-1.512v2.376h1.809c2.565 0 3.78-1.215 3.78-3.78v-15.93c0-2.565-1.215-3.78-3.78-3.78h-1.809zM3 143h3.6v-21H3v21zm22.95-21v14.94L16.98 122h-3.81v21h3.48v-15.36L25.89 143h3.54v-21h-3.48zM36 122v21h11.16c2.85 0 4.2-1.35 4.2-4.2v-12.6c0-2.85-1.35-4.2-4.2-4.2H36zm3.6 17.7v-14.4h7.02c.84 0 1.14.3 1.14 1.11v12.18c0 .81-.3 1.11-1.14 1.11H39.6zM72.54 122h-3.6v16.59c0 .81-.3 1.11-1.14 1.11h-5.94c-.81 0-1.11-.3-1.11-1.11V122h-3.6v16.8c0 2.85 1.35 4.2 4.2 4.2h6.99c2.85 0 4.2-1.35 4.2-4.2V122zm16.8 6.45h3.54v-2.25c0-2.85-1.35-4.2-4.2-4.2h-6.27c-2.85 0-4.2 1.35-4.2 4.2v2.88c0 2.85 1.77 3.75 4.32 4.32l5.67 1.26c1.02.21 1.41.51 1.41 1.47v2.52c0 .84-.3 1.14-1.11 1.14h-5.7c-.84 0-1.14-.3-1.14-1.14v-2.31h-3.51v2.46c0 2.85 1.35 4.2 4.2 4.2h6.66c2.85 0 4.2-1.35 4.2-4.2v-3.18c0-2.85-1.77-3.75-4.32-4.32l-5.67-1.23c-1.02-.24-1.41-.54-1.41-1.5v-2.22c0-.84.3-1.14 1.11-1.14h5.31c.81 0 1.11.3 1.11 1.14v2.1zm23.25-3.18V122H97.08v3.27h5.94V143h3.6v-17.73h5.97zM133.11 143l-3.93-7.98c2.22-.27 3.27-1.62 3.27-4.14v-4.68c0-2.85-1.35-4.2-4.2-4.2h-10.8v21h3.6v-7.83h4.26l3.9 7.83h3.9zm-12.06-11.04v-6.69h6.66c.84 0 1.14.3 1.14 1.11v4.44c0 .84-.3 1.14-1.14 1.14h-6.66zM146.88 143v-7.26l7.05-13.74h-3.84l-4.98 10.02-4.98-10.02h-3.9l7.05 13.74V143h3.6z" fill="#000"/></g></svg>