<?xml version="1.0" encoding="UTF-8" standalone="no"?>
<svg width="510px" height="275px" viewBox="0 0 510 275" version="1.1" xmlns="http://www.w3.org/2000/svg" xmlns:xlink="http://www.w3.org/1999/xlink">
    <!-- Generator: Sketch 41.2 (35397) - http://www.bohemiancoding.com/sketch -->
    <title>Artboard Copy</title>
    <desc>Created with Sketch.</desc>
    <defs></defs>
    <g id="Page-1" stroke="none" stroke-width="1" fill="none" fill-rule="evenodd">
        <g id="Artboard-Copy" fill="#000000">
            <path d="M39.852,59.944 L46.166,77 L50.43,77 L28.864,19.6 L24.436,19.6 L2.87,77 L7.052,77 L13.366,59.944 L39.852,59.944 Z M38.54,56.336 L14.678,56.336 L26.568,24.11 L38.54,56.336 Z M71.258,32.72 C63.55,32.72 59.778,36.41 59.778,44.2 L59.778,44.938 L63.55,44.938 L63.55,43.954 C63.55,38.46 66.01,36.082 71.422,36.082 L79.786,36.082 C85.198,36.082 87.658,38.46 87.658,43.954 L87.658,50.432 C79.212,51.252 73.964,51.744 69.7,52.236 C62.074,53.138 58.22,55.762 58.22,64.536 C58.22,73.31 61.992,77.328 71.422,77.328 C79.212,77.328 83.312,75.36 87.658,70.85 L87.658,77 L91.43,77 L91.43,44.2 C91.43,36.41 87.658,32.72 79.95,32.72 L71.258,32.72 Z M87.658,53.138 L87.658,67.98 C82.574,72.08 78.638,73.966 71.504,73.966 C64.452,73.966 61.992,71.178 61.992,64.536 C61.992,57.894 64.452,56.09 69.864,55.352 L87.658,53.138 Z M105.78,19.6 L105.78,77 L133.988,77 C141.942,77 145.632,73.31 145.632,60.764 C145.632,51.498 143.582,48.628 139.4,47.316 C142.762,45.922 144.976,43.216 144.976,34.934 C144.976,23.29 141.286,19.6 133.332,19.6 L105.78,19.6 Z M111.684,44.61 L111.684,25.012 L133.004,25.012 C137.268,25.012 138.908,26.652 138.908,34.852 C138.908,43.052 137.268,44.61 133.004,44.61 L111.684,44.61 Z M111.684,71.588 L111.684,49.94 L133.66,49.94 C137.924,49.94 139.564,51.58 139.564,60.764 C139.564,69.948 137.924,71.588 133.66,71.588 L111.684,71.588 Z M179.252,32.392 C170.806,32.392 167.362,35.098 163.016,38.788 L163.016,17.14 L157.44,17.14 L157.44,77 L163.016,77 L163.016,70.932 C167.362,74.622 170.806,77.328 179.252,77.328 C188.928,77.328 192.536,73.72 192.536,66.176 L192.536,43.544 C192.536,36 188.928,32.392 179.252,32.392 Z M186.96,66.504 C186.96,70.604 185.32,72.244 179.17,72.244 C171.462,72.244 167.854,70.358 163.016,66.914 L163.016,42.806 C167.854,39.362 171.462,37.476 179.17,37.476 C185.32,37.476 186.96,39.116 186.96,43.216 L186.96,66.504 Z M233.126,77 C240.916,77 244.606,73.064 244.606,65.52 L244.606,58.222 L236.734,58.222 L236.734,65.274 C236.734,68.554 235.504,69.784 232.224,69.784 L216.316,69.784 C213.036,69.784 211.806,68.554 211.806,65.274 L211.806,31.326 C211.806,28.046 213.036,26.816 216.316,26.816 L232.224,26.816 C235.504,26.816 236.734,28.046 236.734,31.326 L236.734,38.378 L244.606,38.378 L244.606,31.08 C244.606,23.29 240.916,19.6 233.126,19.6 L215.414,19.6 C207.624,19.6 203.934,23.29 203.934,31.08 L203.934,65.52 C203.934,73.064 207.624,77 215.414,77 L233.126,77 Z M265.598,32.72 C258.136,32.72 254.61,36.246 254.61,43.708 L254.61,66.012 C254.61,73.474 258.136,77 265.598,77 L277.734,77 C285.196,77 288.722,73.474 288.722,66.012 L288.722,62.158 L281.26,62.158 L281.26,65.93 C281.26,69.046 280.03,70.358 276.832,70.358 L266.5,70.358 C263.384,70.358 262.072,69.046 262.072,65.93 L262.072,43.79 C262.072,40.674 263.384,39.362 266.5,39.362 L276.832,39.362 C280.03,39.362 281.26,40.674 281.26,43.79 L281.26,47.562 L288.722,47.562 L288.722,43.708 C288.722,36.246 285.196,32.72 277.734,32.72 L265.598,32.72 Z M307.992,77 L317.832,77 L317.832,19.6 L309.878,19.6 L296.43,25.34 L296.43,33.704 L307.992,29.85 L307.992,77 Z M341.284,37.148 L331.69,37.148 L331.69,31.08 C331.69,23.29 335.38,19.6 343.17,19.6 L358.75,19.6 C366.54,19.6 370.23,23.29 370.23,31.08 L370.23,39.526 C370.23,45.922 365.802,48.3 358.422,51.334 L344.974,56.992 C342.35,58.14 340.792,58.714 340.792,61.01 L340.792,67.98 L370.394,67.98 L370.394,77 L330.952,77 L330.952,59.288 C330.952,52.892 335.462,50.514 342.76,47.48 L356.29,41.822 C358.914,40.674 360.39,40.1 360.39,37.804 L360.39,31.654 C360.39,29.44 359.57,28.62 357.356,28.62 L344.318,28.62 C342.104,28.62 341.284,29.44 341.284,31.654 L341.284,37.148 Z M389.172,59.78 L379.332,59.78 L379.332,61.174 C379.332,73.31 383.022,77 390.812,77 L408.442,77 C416.232,77 419.922,73.31 419.922,60.928 C419.922,52.072 418.036,49.202 414.018,47.562 C417.544,45.84 419.266,43.134 419.266,34.934 C419.266,23.29 415.576,19.6 407.786,19.6 L391.468,19.6 C383.678,19.6 379.988,23.29 379.988,35.344 L379.988,36.82 L389.828,36.82 L389.828,35.918 C389.828,29.358 390.648,28.538 392.862,28.538 L406.31,28.538 C408.606,28.538 409.426,29.358 409.426,35.836 C409.426,42.396 408.606,43.216 406.31,43.216 L392.78,43.216 L392.78,51.99 L406.966,51.99 C409.262,51.99 410.082,53.056 410.082,60.026 C410.082,66.996 409.262,68.062 406.966,68.062 L392.206,68.062 C389.992,68.062 389.172,67.242 389.172,60.272 L389.172,59.78 Z" id="AaBbCc123"></path>
            <path d="M5.508,172.42 C3.051,172.42 1.89,173.581 1.89,176.038 L1.89,176.524 L4.347,176.524 L4.347,175.984 C4.347,174.931 4.752,174.526 5.805,174.526 L9.072,174.526 C10.125,174.526 10.53,174.931 10.53,175.984 L10.53,178.198 C8.343,178.279 6.399,178.468 5.103,178.603 C2.673,178.873 1.404,179.791 1.404,182.842 C1.404,185.866 2.565,187.108 5.535,187.108 C8.181,187.108 9.396,186.325 10.53,184.921 L10.53,187 L12.987,187 L12.987,176.038 C12.987,173.581 11.826,172.42 9.369,172.42 L5.508,172.42 Z M10.53,179.818 L10.53,183.409 C9.099,184.381 7.992,184.975 5.805,184.975 C4.266,184.975 3.861,184.462 3.861,182.707 C3.861,180.979 4.293,180.655 5.427,180.493 L10.53,179.818 Z M25.935,172.312 C23.154,172.312 22.101,173.203 20.805,174.472 L20.805,167.29 L18.348,167.29 L18.348,187 L20.805,187 L20.805,184.948 C22.101,186.217 23.154,187.108 25.935,187.108 C29.04,187.108 30.201,185.947 30.201,183.409 L30.201,176.011 C30.201,173.473 29.04,172.312 25.935,172.312 Z M27.744,183.328 C27.744,184.462 27.312,184.867 25.665,184.867 C23.343,184.867 22.236,184.381 20.805,183.409 L20.805,176.011 C22.236,175.039 23.343,174.553 25.665,174.553 C27.312,174.553 27.744,174.958 27.744,176.092 L27.744,183.328 Z M38.667,172.42 C36.21,172.42 35.049,173.581 35.049,176.038 L35.049,183.382 C35.049,185.839 36.21,187 38.667,187 L42.663,187 C45.12,187 46.281,185.839 46.281,183.382 L46.281,182.113 L43.824,182.113 L43.824,183.355 C43.824,184.381 43.419,184.813 42.366,184.813 L38.964,184.813 C37.938,184.813 37.506,184.381 37.506,183.355 L37.506,176.065 C37.506,175.039 37.938,174.607 38.964,174.607 L42.366,174.607 C43.419,174.607 43.824,175.039 43.824,176.065 L43.824,177.307 L46.281,177.307 L46.281,176.038 C46.281,173.581 45.12,172.42 42.663,172.42 L38.667,172.42 Z M55.098,172.312 C51.993,172.312 50.832,173.473 50.832,176.011 L50.832,183.409 C50.832,185.947 51.993,187.108 55.098,187.108 C57.879,187.108 58.959,186.217 60.228,184.948 L60.228,187 L62.685,187 L62.685,167.29 L60.228,167.29 L60.228,174.472 C58.959,173.203 57.879,172.312 55.098,172.312 Z M53.289,176.092 C53.289,174.958 53.694,174.553 55.368,174.553 C57.69,174.553 58.797,175.039 60.228,176.011 L60.228,183.409 C58.797,184.381 57.69,184.867 55.368,184.867 C53.694,184.867 53.289,184.462 53.289,183.328 L53.289,176.092 Z M70.314,180.304 L79.332,180.304 L79.332,176.038 C79.332,173.581 78.171,172.42 75.714,172.42 L71.475,172.42 C69.018,172.42 67.857,173.581 67.857,176.038 L67.857,183.382 C67.857,185.839 69.018,187 71.475,187 L75.714,187 C78.171,187 79.332,185.839 79.332,183.382 L79.332,182.383 L76.875,182.383 L76.875,183.463 C76.875,184.489 76.443,184.921 75.417,184.921 L71.772,184.921 C70.746,184.921 70.314,184.489 70.314,183.463 L70.314,180.304 Z M75.417,174.499 C76.47,174.499 76.875,174.931 76.875,175.957 L76.875,178.468 L70.314,178.468 L70.314,175.957 C70.314,174.931 70.746,174.499 71.772,174.499 L75.417,174.499 Z M91.443,169.315 L91.443,167.29 L89.013,167.29 C86.529,167.29 85.395,168.451 85.395,170.908 L85.395,172.42 L82.965,172.42 L82.965,174.499 L85.368,174.499 L85.368,187 L87.825,187 L87.825,174.499 L91.713,174.499 L91.713,172.42 L87.825,172.42 L87.825,170.773 C87.825,169.72 88.257,169.315 89.283,169.315 L91.443,169.315 Z M106.929,172.42 L104.472,172.42 L104.472,174.472 C103.203,173.203 102.123,172.312 99.342,172.312 C96.237,172.312 95.076,173.473 95.076,176.011 L95.076,182.923 C95.076,185.488 96.237,186.649 99.342,186.649 C102.123,186.649 103.203,185.731 104.472,184.489 L104.472,187.783 C104.472,188.836 104.067,189.241 103.014,189.241 L96.75,189.241 L96.75,191.32 L103.311,191.32 C105.768,191.32 106.929,190.159 106.929,187.702 L106.929,172.42 Z M97.533,176.011 C97.533,174.958 97.938,174.553 99.612,174.553 C101.934,174.553 103.041,175.039 104.472,176.011 L104.472,182.95 C103.041,183.895 101.934,184.408 99.612,184.408 C97.938,184.408 97.533,184.003 97.533,182.95 L97.533,176.011 Z M114.882,167.29 L112.425,167.29 L112.425,187 L114.882,187 L114.882,175.984 C116.313,175.012 117.42,174.526 119.58,174.526 C121.065,174.526 121.47,174.931 121.47,176.011 L121.47,187 L123.927,187 L123.927,175.93 C123.927,173.446 122.766,172.285 119.85,172.285 C117.231,172.285 116.178,173.176 114.882,174.445 L114.882,167.29 Z M131.961,170.395 L131.961,167.641 L129.234,167.641 L129.234,170.395 L131.961,170.395 Z M131.826,172.42 L129.369,172.42 L129.369,187 L131.826,187 L131.826,172.42 Z M140.562,170.395 L140.562,167.641 L137.835,167.641 L137.835,170.395 L140.562,170.395 Z M140.427,172.42 L137.943,172.42 L137.943,187.648 C137.943,188.539 137.322,188.917 136.539,189.214 L134.946,189.889 L134.946,191.617 L136.809,191.239 C139.185,190.753 140.427,189.889 140.427,187.621 L140.427,172.42 Z M155.13,187 L157.83,187 L152.781,177.982 L157.452,172.42 L154.482,172.42 L148.488,179.926 L148.488,167.29 L146.031,167.29 L146.031,187 L148.488,187 L148.488,183.085 L151.242,179.818 L155.13,187 Z M161.814,167.29 L161.814,187 L164.271,187 L164.271,167.29 L161.814,167.29 Z M185.535,172.258 C183.267,172.258 181.944,173.257 180.702,174.526 C180.324,172.987 179.136,172.258 177.003,172.258 C174.654,172.258 173.601,173.149 172.305,174.418 L172.305,172.42 L169.848,172.42 L169.848,187 L172.305,187 L172.305,175.957 C173.736,174.985 174.843,174.499 176.733,174.499 C177.975,174.499 178.407,174.904 178.407,175.984 L178.407,186.838 L178.38,187 L180.864,187 L180.864,175.93 C182.268,175.012 183.402,174.499 185.265,174.499 C186.507,174.499 186.939,174.904 186.939,175.984 L186.939,187 L189.396,187 L189.396,175.903 C189.396,173.419 188.235,172.258 185.535,172.258 Z M197.214,172.42 L194.757,172.42 L194.757,187 L197.214,187 L197.214,175.984 C198.645,175.012 199.752,174.526 201.912,174.526 C203.397,174.526 203.802,174.931 203.802,176.011 L203.802,187 L206.259,187 L206.259,175.93 C206.259,173.446 205.098,172.285 202.182,172.285 C199.563,172.285 198.51,173.176 197.214,174.445 L197.214,172.42 Z M214.887,172.42 C212.43,172.42 211.269,173.581 211.269,176.038 L211.269,183.382 C211.269,185.839 212.43,187 214.887,187 L219.315,187 C221.772,187 222.933,185.839 222.933,183.382 L222.933,176.038 C222.933,173.581 221.772,172.42 219.315,172.42 L214.887,172.42 Z M220.449,183.355 C220.449,184.381 220.044,184.813 218.991,184.813 L215.184,184.813 C214.131,184.813 213.726,184.381 213.726,183.355 L213.726,176.065 C213.726,175.039 214.131,174.607 215.184,174.607 L218.991,174.607 C220.044,174.607 220.449,175.039 220.449,176.065 L220.449,183.355 Z M235.692,172.312 C232.911,172.312 231.858,173.203 230.562,174.472 L230.562,172.42 L228.105,172.42 L228.105,191.32 L230.562,191.32 L230.562,184.948 C231.858,186.217 232.911,187.108 235.692,187.108 C238.797,187.108 239.958,185.947 239.958,183.409 L239.958,176.011 C239.958,173.473 238.797,172.312 235.692,172.312 Z M237.501,183.328 C237.501,184.462 237.069,184.867 235.422,184.867 C233.1,184.867 231.993,184.381 230.562,183.409 L230.562,176.011 C231.993,175.039 233.1,174.553 235.422,174.553 C237.069,174.553 237.501,174.958 237.501,176.092 L237.501,183.328 Z M249.072,172.312 C245.967,172.312 244.806,173.473 244.806,176.011 L244.806,183.409 C244.806,185.947 245.967,187.108 249.072,187.108 C251.853,187.108 252.933,186.217 254.202,184.948 L254.202,191.32 L256.659,191.32 L256.659,172.42 L254.202,172.42 L254.202,174.472 C252.933,173.203 251.853,172.312 249.072,172.312 Z M247.263,176.092 C247.263,174.958 247.668,174.553 249.342,174.553 C251.664,174.553 252.771,175.039 254.202,176.011 L254.202,183.409 C252.771,184.381 251.664,184.867 249.342,184.867 C247.668,184.867 247.263,184.462 247.263,183.328 L247.263,176.092 Z M270.174,174.769 L270.174,172.42 L269.094,172.42 C266.961,172.42 265.8,173.419 264.612,174.58 L264.612,172.42 L262.155,172.42 L262.155,187 L264.612,187 L264.612,176.2 C265.935,175.39 267.15,174.769 268.878,174.769 L270.174,174.769 Z M282.015,176.713 L284.418,176.713 L284.418,176.227 C284.418,173.581 283.257,172.42 280.8,172.42 L277.236,172.42 C274.779,172.42 273.618,173.581 273.618,176.551 C273.618,179.008 274.59,179.818 276.777,180.196 L280.935,180.871 C281.934,181.033 282.312,181.276 282.312,182.815 C282.312,184.489 281.907,184.921 280.854,184.921 L277.29,184.921 C276.264,184.921 275.832,184.489 275.832,183.085 L275.832,182.464 L273.429,182.464 L273.429,183.031 C273.429,185.839 274.59,187 277.047,187 L281.151,187 C283.608,187 284.769,185.839 284.769,182.653 C284.769,179.98 283.797,179.17 281.61,178.792 L277.452,178.117 C276.453,177.955 276.075,177.712 276.075,176.389 C276.075,174.931 276.48,174.499 277.533,174.499 L280.557,174.499 C281.61,174.499 282.015,174.931 282.015,176.146 L282.015,176.713 Z M292.668,174.499 L296.151,174.499 L296.151,172.42 L292.668,172.42 L292.668,168.91 L290.238,168.91 L290.238,172.42 L288.051,172.42 L288.051,174.499 L290.211,174.499 L290.211,183.382 C290.211,185.839 291.372,187 293.829,187 L296.151,187 L296.151,184.867 L294.126,184.867 C293.1,184.867 292.668,184.435 292.668,183.409 L292.668,174.499 Z M309.369,187 L311.826,187 L311.826,172.42 L309.369,172.42 L309.369,183.436 C307.938,184.408 306.831,184.894 304.671,184.894 C303.186,184.894 302.781,184.489 302.781,183.409 L302.781,172.42 L300.324,172.42 L300.324,183.49 C300.324,185.974 301.485,187.135 304.401,187.135 C307.02,187.135 308.073,186.244 309.369,184.975 L309.369,187 Z M328.581,172.42 L326.07,172.42 L322.236,184.867 L318.402,172.42 L315.783,172.42 L320.724,187 L323.64,187 L328.581,172.42 Z M346.794,187 L350.709,172.42 L348.225,172.42 L345.471,184.408 L342.204,172.42 L339.801,172.42 L336.534,184.408 L333.78,172.42 L331.188,172.42 L335.184,187 L337.884,187 L341.016,175.471 L344.148,187 L346.794,187 Z M359.499,181.465 L363.279,187 L365.979,187 L360.903,179.656 L365.817,172.42 L363.279,172.42 L359.634,177.82 L355.989,172.42 L353.262,172.42 L358.23,179.629 L353.208,187 L355.773,187 L359.499,181.465 Z M381.546,172.42 L379.035,172.42 L375.039,184.165 L371.151,172.42 L368.559,172.42 L373.797,187 L372.258,191.32 L374.607,191.32 L381.546,172.42 Z M384.531,185.353 L384.531,187 L395.007,187 L395.007,184.921 L387.528,184.921 L395.034,174.04 L395.034,172.42 L384.855,172.42 L384.855,174.499 L392.01,174.499 L384.531,185.353 Z M12.582,221.843 L14.31,227 L17.118,227 L10.584,208.1 L7.209,208.1 L0.675,227 L3.375,227 L5.103,221.843 L12.582,221.843 Z M11.799,219.467 L5.886,219.467 L8.829,210.611 L11.799,219.467 Z M21.75,208.1 L21.75,227 L31.308,227 C33.9,227 35.115,225.785 35.115,221.681 C35.115,218.738 34.494,217.739 33.117,217.253 C34.278,216.74 34.899,215.822 34.899,213.149 C34.899,209.315 33.684,208.1 31.092,208.1 L21.75,208.1 Z M24.342,216.119 L24.342,210.449 L30.795,210.449 C31.875,210.449 32.28,210.854 32.28,213.284 C32.28,215.714 31.875,216.119 30.795,216.119 L24.342,216.119 Z M24.342,224.651 L24.342,218.387 L31.011,218.387 C32.091,218.387 32.496,218.792 32.496,221.519 C32.496,224.246 32.091,224.651 31.011,224.651 L24.342,224.651 Z M49.845,227 C52.41,227 53.625,225.704 53.625,223.22 L53.625,220.817 L51.033,220.817 L51.033,223.139 C51.033,224.219 50.628,224.624 49.548,224.624 L44.31,224.624 C43.23,224.624 42.825,224.219 42.825,223.139 L42.825,211.961 C42.825,210.881 43.23,210.476 44.31,210.476 L49.548,210.476 C50.628,210.476 51.033,210.881 51.033,211.961 L51.033,214.283 L53.625,214.283 L53.625,211.88 C53.625,209.315 52.41,208.1 49.845,208.1 L44.013,208.1 C41.448,208.1 40.233,209.315 40.233,211.88 L40.233,223.22 C40.233,225.704 41.448,227 44.013,227 L49.845,227 Z M59.175,208.1 L59.175,227 L68.895,227 C71.46,227 72.675,225.785 72.675,223.22 L72.675,211.88 C72.675,209.315 71.46,208.1 68.895,208.1 L59.175,208.1 Z M61.767,224.624 L61.767,210.476 L68.625,210.476 C69.678,210.476 70.083,210.881 70.083,211.961 L70.083,223.139 C70.083,224.219 69.678,224.624 68.625,224.624 L61.767,224.624 Z M78.576,208.1 L78.576,227 L90.78,227 L90.78,224.624 L81.168,224.624 L81.168,218.522 L89.187,218.522 L89.187,216.146 L81.168,216.146 L81.168,210.476 L90.78,210.476 L90.78,208.1 L78.576,208.1 Z M96.141,227 L98.733,227 L98.733,218.711 L106.752,218.711 L106.752,216.362 L98.733,216.362 L98.733,210.476 L108.345,210.476 L108.345,208.1 L96.141,208.1 L96.141,227 Z M123.588,213.905 L126.18,213.905 L126.18,211.88 C126.18,209.315 124.965,208.1 122.4,208.1 L116.352,208.1 C113.787,208.1 112.572,209.315 112.572,211.88 L112.572,223.22 C112.572,225.785 113.787,227 116.352,227 L122.4,227 C124.965,227 126.18,225.785 126.18,223.22 L126.18,216.983 L119.106,216.983 L119.106,219.305 L123.588,219.305 L123.588,223.139 C123.588,224.219 123.183,224.624 122.103,224.624 L116.649,224.624 C115.569,224.624 115.164,224.219 115.164,223.139 L115.164,211.961 C115.164,210.881 115.569,210.476 116.649,210.476 L122.103,210.476 C123.183,210.476 123.588,210.881 123.588,211.961 L123.588,213.905 Z M132,227 L134.592,227 L134.592,218.522 L143.259,218.522 L143.259,227 L145.851,227 L145.851,208.1 L143.259,208.1 L143.259,216.146 L134.592,216.146 L134.592,208.1 L132,208.1 L132,227 Z M152.238,227 L154.83,227 L154.83,208.1 L152.238,208.1 L152.238,227 Z M171.963,208.1 L169.371,208.1 L169.371,223.139 C169.371,224.219 168.966,224.624 167.913,224.624 L163.836,224.624 C162.756,224.624 162.351,224.219 162.351,223.139 L162.351,219.791 L159.759,219.791 L159.759,223.22 C159.759,225.785 160.974,227 163.539,227 L168.183,227 C170.748,227 171.963,225.785 171.963,223.22 L171.963,208.1 Z M190.014,227 L192.984,227 L186.018,215.66 L192.498,208.1 L189.366,208.1 L180.645,218.441 L180.645,208.1 L178.08,208.1 L178.08,227 L180.645,227 L180.645,221.897 L184.29,217.658 L190.014,227 Z M196.941,208.1 L196.941,227 L208.47,227 L208.47,224.624 L199.533,224.624 L199.533,208.1 L196.941,208.1 Z M231.246,208.1 L228.195,208.1 L222.309,221.033 L216.45,208.1 L213.399,208.1 L213.399,227 L215.856,227 L215.856,212.312 L221.229,224.354 L223.335,224.354 L228.708,212.312 L228.708,227 L231.246,227 L231.246,208.1 Z M249.405,208.1 L249.405,222.815 L240.387,208.1 L237.606,208.1 L237.606,227 L240.09,227 L240.09,211.988 L249.297,227 L251.889,227 L251.889,208.1 L249.405,208.1 Z M267.888,227 C270.453,227 271.668,225.785 271.668,223.22 L271.668,211.88 C271.668,209.315 270.453,208.1 267.888,208.1 L261.597,208.1 C259.032,208.1 257.817,209.315 257.817,211.88 L257.817,223.22 C257.817,225.785 259.032,227 261.597,227 L267.888,227 Z M260.409,211.961 C260.409,210.881 260.814,210.476 261.894,210.476 L267.591,210.476 C268.671,210.476 269.076,210.881 269.076,211.961 L269.076,223.139 C269.076,224.219 268.671,224.624 267.591,224.624 L261.894,224.624 C260.814,224.624 260.409,224.219 260.409,223.139 L260.409,211.961 Z M277.542,208.1 L277.542,227 L280.134,227 L280.134,220.007 L287.019,220.007 C289.53,220.007 290.799,218.711 290.799,216.227 L290.799,211.88 C290.799,209.396 289.53,208.1 287.019,208.1 L277.542,208.1 Z M280.134,217.631 L280.134,210.476 L286.749,210.476 C287.721,210.476 288.207,210.962 288.207,211.961 L288.207,216.146 C288.207,217.118 287.721,217.631 286.749,217.631 L280.134,217.631 Z M299.373,208.1 C296.808,208.1 295.593,209.315 295.593,211.88 L295.593,223.22 C295.593,225.785 296.808,227 299.373,227 L301.182,227 L301.182,230.429 L303.774,230.429 L303.774,227 L305.556,227 C308.121,227 309.336,225.785 309.336,223.22 L309.336,211.88 C309.336,209.315 308.121,208.1 305.556,208.1 L299.373,208.1 Z M306.744,223.139 C306.744,224.219 306.339,224.624 305.259,224.624 L299.67,224.624 C298.59,224.624 298.185,224.219 298.185,223.139 L298.185,211.961 C298.185,210.881 298.59,210.476 299.67,210.476 L305.259,210.476 C306.339,210.476 306.744,210.881 306.744,211.961 L306.744,223.139 Z M329.034,227 L325.173,219.521 C327.387,219.359 328.44,218.144 328.44,215.768 L328.44,211.88 C328.44,209.315 327.225,208.1 324.66,208.1 L315.21,208.1 L315.21,227 L317.802,227 L317.802,219.575 L322.365,219.575 L326.199,227 L329.034,227 Z M317.802,217.226 L317.802,210.449 L324.39,210.449 C325.443,210.449 325.848,210.854 325.848,211.934 L325.848,215.768 C325.848,216.821 325.443,217.226 324.39,217.226 L317.802,217.226 Z M344.196,213.743 L346.734,213.743 L346.734,211.88 C346.734,209.315 345.519,208.1 342.954,208.1 L337.527,208.1 C334.962,208.1 333.747,209.315 333.747,211.88 L333.747,214.175 C333.747,216.875 335.448,217.55 337.635,218.036 L342.846,219.197 C343.953,219.467 344.439,219.818 344.439,220.979 L344.439,223.247 C344.439,224.3 344.034,224.705 342.954,224.705 L337.716,224.705 C336.663,224.705 336.258,224.3 336.258,223.247 L336.258,221.141 L333.693,221.141 L333.693,223.22 C333.693,225.785 334.908,227 337.473,227 L343.251,227 C345.816,227 347.031,225.785 347.031,223.22 L347.031,220.628 C347.031,217.928 345.33,217.253 343.143,216.767 L337.932,215.579 C336.825,215.336 336.339,214.985 336.339,213.824 L336.339,211.853 C336.339,210.8 336.744,210.395 337.824,210.395 L342.711,210.395 C343.791,210.395 344.196,210.8 344.196,211.853 L344.196,213.743 Z M364.542,210.449 L364.542,208.1 L350.799,208.1 L350.799,210.449 L356.388,210.449 L356.388,227 L358.98,227 L358.98,210.449 L364.542,210.449 Z M382.566,208.1 L379.974,208.1 L379.974,223.139 C379.974,224.219 379.569,224.624 378.516,224.624 L373.116,224.624 C372.036,224.624 371.631,224.219 371.631,223.139 L371.631,208.1 L369.039,208.1 L369.039,223.22 C369.039,225.785 370.254,227 372.819,227 L378.786,227 C381.351,227 382.566,225.785 382.566,223.22 L382.566,208.1 Z M402.534,208.1 L399.807,208.1 L394.758,224.138 L389.79,208.1 L386.955,208.1 L393.246,227 L396.243,227 L402.534,208.1 Z M423.906,227 L428.901,208.1 L426.228,208.1 L422.556,223.679 L418.371,208.1 L416.103,208.1 L411.918,223.679 L408.246,208.1 L405.492,208.1 L410.46,227 L413.295,227 L417.237,212.339 L421.179,227 L423.906,227 Z M439.365,219.494 L444.279,227 L447.195,227 L440.904,217.361 L447.006,208.1 L444.252,208.1 L439.554,215.282 L434.829,208.1 L431.913,208.1 L437.961,217.361 L431.724,227 L434.478,227 L439.365,219.494 Z M458.739,227 L458.739,220.385 L465.273,208.1 L462.519,208.1 L457.47,217.739 L452.421,208.1 L449.613,208.1 L456.147,220.385 L456.147,227 L458.739,227 Z M468.474,225.083 L468.474,227 L481.569,227 L481.569,224.678 L471.606,224.678 L481.623,210.017 L481.623,208.1 L468.933,208.1 L468.933,210.422 L478.491,210.422 L468.474,225.083 Z M11.529,267 C14.094,267 15.309,265.785 15.309,263.22 L15.309,251.88 C15.309,249.315 14.094,248.1 11.529,248.1 L5.751,248.1 C3.186,248.1 1.971,249.315 1.971,251.88 L1.971,263.22 C1.971,265.785 3.186,267 5.751,267 L11.529,267 Z M4.563,251.961 C4.563,250.881 4.968,250.476 6.048,250.476 L11.232,250.476 C12.312,250.476 12.717,250.881 12.717,251.961 L12.717,263.139 C12.717,264.219 12.312,264.624 11.232,264.624 L6.048,264.624 C4.968,264.624 4.563,264.219 4.563,263.139 L4.563,251.961 Z M23.721,267 L26.313,267 L26.313,248.1 L24.18,248.1 L19.914,249.828 L19.914,252.123 L23.721,250.773 L23.721,267 Z M35.157,253.743 L32.592,253.743 L32.592,251.88 C32.592,249.315 33.807,248.1 36.372,248.1 L41.232,248.1 C43.797,248.1 45.012,249.315 45.012,251.88 L45.012,254.445 C45.012,256.497 43.635,257.172 41.124,258.333 L36.588,260.385 C35.562,260.871 34.941,261.195 34.941,261.978 L34.941,264.624 L45.066,264.624 L45.066,267 L32.349,267 L32.349,261.681 C32.349,259.629 33.699,258.954 36.237,257.793 L40.746,255.741 C41.799,255.255 42.42,254.931 42.42,254.148 L42.42,251.961 C42.42,250.881 42.015,250.476 40.935,250.476 L36.642,250.476 C35.562,250.476 35.157,250.881 35.157,251.961 L35.157,253.743 Z M52.317,261.465 L49.725,261.465 L49.725,261.816 C49.725,265.785 50.94,267 53.505,267 L59.04,267 C61.605,267 62.82,265.785 62.82,261.708 C62.82,258.684 62.199,257.739 60.849,257.307 C61.983,256.794 62.604,255.93 62.604,253.149 C62.604,249.315 61.389,248.1 58.824,248.1 L53.721,248.1 C51.156,248.1 49.941,249.315 49.941,253.257 L49.941,253.635 L52.533,253.635 L52.533,253.311 C52.533,250.854 52.938,250.449 54.018,250.449 L58.554,250.449 C59.607,250.449 60.012,250.854 60.012,253.311 C60.012,255.714 59.607,256.119 58.554,256.119 L53.91,256.119 L53.91,258.441 L58.77,258.441 C59.823,258.441 60.228,259.035 60.228,261.546 C60.228,264.057 59.823,264.651 58.77,264.651 L53.802,264.651 C52.722,264.651 52.317,264.246 52.317,261.708 L52.317,261.465 Z M81.978,262.464 L81.978,260.115 L79.17,260.115 L79.17,248.1 L76.497,248.1 L66.804,260.385 L67.263,262.464 L76.605,262.464 L76.605,267 L79.17,267 L79.17,262.464 L81.978,262.464 Z M69.936,260.115 L76.632,251.556 L76.632,260.115 L69.936,260.115 Z M89.013,250.476 L98.544,250.476 L98.544,248.1 L86.421,248.1 L86.421,257.658 L89.013,258.387 C90.336,257.55 91.605,256.956 94.062,256.956 C95.898,256.956 96.303,257.361 96.303,258.441 L96.303,263.139 C96.303,264.219 95.898,264.624 94.818,264.624 L90.309,264.624 C89.229,264.624 88.824,264.219 88.824,263.139 L88.824,261.465 L86.232,261.465 L86.232,263.22 C86.232,265.785 87.447,267 90.012,267 L95.088,267 C97.653,267 98.895,265.758 98.895,263.193 L98.895,258.414 C98.895,255.849 97.68,254.634 94.305,254.634 C91.362,254.634 90.201,255.552 89.013,256.794 L89.013,250.476 Z M114.084,253.473 L116.676,253.473 L116.676,251.88 C116.676,249.315 115.461,248.1 112.896,248.1 L107.928,248.1 C105.363,248.1 104.148,249.315 104.148,251.88 L104.148,263.22 C104.148,265.785 105.363,267 107.928,267 L113.139,267 C115.704,267 116.919,265.785 116.919,263.22 L116.919,258.927 C116.919,256.362 115.704,255.147 112.194,255.147 C109.143,255.147 107.901,256.092 106.74,257.307 L106.74,251.961 C106.74,250.989 107.253,250.476 108.225,250.476 L112.599,250.476 C113.571,250.476 114.084,250.989 114.084,251.961 L114.084,253.473 Z M106.74,258.927 C108.063,258.09 109.359,257.496 111.951,257.496 C113.922,257.496 114.327,257.901 114.327,258.981 L114.327,263.139 C114.327,264.219 113.922,264.624 112.842,264.624 L108.225,264.624 C107.145,264.624 106.74,264.219 106.74,263.139 L106.74,258.927 Z M134.052,249.882 L134.052,248.1 L120.849,248.1 L120.849,250.449 L131.082,250.449 L123.036,267 L125.817,267 L134.052,249.882 Z M149.214,257.307 C150.321,256.794 150.969,255.93 150.969,253.149 C150.969,249.315 149.754,248.1 147.189,248.1 L141.789,248.1 C139.224,248.1 138.009,249.315 138.009,253.149 C138.009,255.93 138.657,256.794 139.764,257.307 C138.441,257.739 137.793,258.684 137.793,261.708 C137.793,265.785 139.008,267 141.573,267 L147.405,267 C149.97,267 151.185,265.785 151.185,261.708 C151.185,258.684 150.537,257.739 149.214,257.307 Z M146.892,250.449 C147.972,250.449 148.377,250.854 148.377,253.311 C148.377,255.714 147.972,256.119 146.892,256.119 L142.086,256.119 C141.006,256.119 140.601,255.714 140.601,253.311 C140.601,250.854 141.006,250.449 142.086,250.449 L146.892,250.449 Z M141.87,264.651 C140.79,264.651 140.385,264.057 140.385,261.546 C140.385,259.035 140.79,258.441 141.87,258.441 L147.108,258.441 C148.188,258.441 148.593,259.035 148.593,261.546 C148.593,264.057 148.188,264.651 147.108,264.651 L141.87,264.651 Z M159.057,261.627 L156.465,261.627 L156.465,263.22 C156.465,265.785 157.68,267 160.245,267 L165.213,267 C167.778,267 168.993,265.785 168.993,263.22 L168.993,251.88 C168.993,249.315 167.778,248.1 165.213,248.1 L160.002,248.1 C157.437,248.1 156.222,249.315 156.222,251.88 L156.222,255.984 C156.222,258.549 157.437,259.764 160.947,259.764 C163.998,259.764 165.24,258.846 166.401,257.604 L166.401,263.139 C166.401,264.192 165.969,264.624 164.916,264.624 L160.542,264.624 C159.489,264.624 159.057,264.192 159.057,263.139 L159.057,261.627 Z M166.401,256.011 C165.078,256.848 163.782,257.442 161.19,257.442 C159.219,257.442 158.814,257.037 158.814,255.957 L158.814,251.961 C158.814,250.881 159.219,250.476 160.299,250.476 L164.916,250.476 C165.996,250.476 166.401,250.881 166.401,251.961 L166.401,256.011 Z M181.752,256.335 L181.752,250.449 L183.129,250.449 C184.209,250.449 184.614,250.854 184.614,252.879 L184.614,253.743 L187.179,253.743 L187.179,253.041 C187.179,249.315 185.964,248.1 183.399,248.1 L181.914,248.1 L181.914,245.535 L179.727,245.535 L179.727,248.1 L178.053,248.1 C175.461,248.1 174.246,249.315 174.246,253.041 C174.246,256.875 175.92,257.523 178.161,258.036 L179.889,258.414 L179.889,264.651 L178.215,264.651 C177.162,264.651 176.757,264.246 176.757,262.059 L176.757,261.141 L174.192,261.141 L174.192,261.924 C174.192,265.785 175.407,267 177.972,267 L179.727,267 L179.727,269.565 L181.914,269.565 L181.914,267 L183.75,267 C186.342,267 187.557,265.785 187.557,261.924 C187.557,257.928 185.883,257.28 183.642,256.767 L181.752,256.335 Z M179.889,255.903 L179.025,255.714 C177.243,255.309 176.865,254.985 176.865,252.879 C176.865,250.854 177.27,250.449 178.35,250.449 L179.889,250.449 L179.889,255.903 Z M181.752,264.651 L181.752,258.846 L182.832,259.089 C184.668,259.521 184.938,259.818 184.938,262.059 C184.938,264.246 184.533,264.651 183.453,264.651 L181.752,264.651 Z M193.998,248.1 C192.648,248.1 192.081,248.667 192.081,250.017 L192.081,253.635 C192.081,254.958 192.675,255.552 193.998,255.552 L196.131,255.552 C197.481,255.552 198.048,254.985 198.048,253.635 L198.048,250.017 C198.048,248.667 197.481,248.1 196.131,248.1 L193.998,248.1 Z M205.257,248.1 L203.124,248.1 L193.377,267 L195.51,267 L205.257,248.1 Z M196.428,253.446 C196.428,253.905 196.293,254.04 195.834,254.04 L194.295,254.04 C193.836,254.04 193.701,253.905 193.701,253.446 L193.701,250.206 C193.701,249.747 193.836,249.612 194.295,249.612 L195.834,249.612 C196.293,249.612 196.428,249.747 196.428,250.206 L196.428,253.446 Z M202.476,259.548 C201.126,259.548 200.559,260.115 200.559,261.465 L200.559,265.083 C200.559,266.406 201.153,267 202.476,267 L204.609,267 C205.959,267 206.526,266.433 206.526,265.083 L206.526,261.465 C206.526,260.115 205.959,259.548 204.609,259.548 L202.476,259.548 Z M204.933,264.894 C204.933,265.353 204.798,265.488 204.339,265.488 L202.8,265.488 C202.341,265.488 202.206,265.353 202.206,264.894 L202.206,261.654 C202.206,261.195 202.341,261.06 202.8,261.06 L204.339,261.06 C204.798,261.06 204.933,261.195 204.933,261.654 L204.933,264.894 Z M224.199,258.441 L226.305,258.441 L226.305,256.119 L215.451,256.119 C214.371,256.119 213.966,255.714 213.966,253.311 C213.966,250.854 214.371,250.449 215.451,250.449 L219.555,250.449 C220.608,250.449 221.013,250.854 221.013,251.934 L221.013,253.635 L223.605,253.635 L223.605,251.88 C223.605,249.315 222.39,248.1 219.825,248.1 L215.154,248.1 C212.589,248.1 211.374,249.315 211.374,253.122 C211.374,255.876 212.022,256.794 213.129,257.307 C211.806,257.739 211.158,258.738 211.158,261.708 C211.158,265.785 212.373,267 214.938,267 L220.419,267 C222.984,267 224.199,265.785 224.199,263.22 L224.199,258.441 Z M221.607,258.441 L221.607,263.166 C221.607,264.246 221.202,264.651 220.122,264.651 L215.235,264.651 C214.155,264.651 213.75,264.246 213.75,261.546 C213.75,258.846 214.155,258.441 215.235,258.441 L221.607,258.441 Z M234.771,248.1 C232.206,248.1 230.991,249.315 230.991,251.88 L230.991,267.54 C230.991,270.105 232.206,271.32 234.771,271.32 L248.568,271.32 L248.568,269.592 L234.852,269.592 C233.448,269.592 232.854,268.998 232.854,267.594 L232.854,251.826 C232.854,250.422 233.448,249.828 234.852,249.828 L247.785,249.828 C249.189,249.828 249.783,250.422 249.783,251.826 L249.783,261.87 C249.783,263.517 249.216,264.138 247.785,264.138 L246.489,264.138 L246.489,253.635 L244.707,253.635 L244.167,255.579 C243.087,254.391 241.872,253.527 239.685,253.527 C236.904,253.527 235.689,254.742 235.689,257.307 L235.689,262.113 C235.689,264.678 236.904,265.893 239.685,265.893 C241.872,265.893 243.087,265.029 244.167,263.841 L244.707,265.677 L247.866,265.677 C250.431,265.677 251.646,264.462 251.646,261.897 L251.646,251.88 C251.646,249.315 250.431,248.1 247.866,248.1 L234.771,248.1 Z M244.14,262.356 C242.79,263.436 241.629,263.868 239.928,263.868 C238.416,263.868 238.011,263.382 238.011,262.221 L238.011,257.199 C238.011,256.038 238.416,255.552 239.955,255.552 C241.629,255.552 242.79,255.984 244.14,257.064 L244.14,262.356 Z M257.115,254.769 L260.274,254.769 L260.274,251.529 L258.87,251.529 L260.706,248.1 L259.491,248.1 L258.222,249.828 C257.331,251.097 257.115,251.502 257.115,252.447 L257.115,254.769 Z M272.493,256.011 L269.739,253.095 L273.681,252.366 L273.006,250.341 L269.415,252.069 L269.928,248.1 L267.795,248.1 L268.308,252.069 L264.69,250.314 L264.042,252.366 L267.957,253.095 L265.203,256.011 L266.958,257.28 L268.848,253.743 L270.765,257.253 L272.493,256.011 Z M283.929,248.748 L283.929,246.372 L282.12,246.372 C279.555,246.372 278.34,247.587 278.34,250.152 L278.34,266.082 C278.34,268.647 279.555,269.862 282.12,269.862 L283.929,269.862 L283.929,267.486 L282.417,267.486 C281.337,267.486 280.932,267.081 280.932,266.001 L280.932,250.233 C280.932,249.153 281.337,248.748 282.417,248.748 L283.929,248.748 Z M291.801,263.76 L288.642,263.76 L288.642,267 L290.046,267 L288.21,270.429 L289.425,270.429 L290.694,268.701 C291.585,267.405 291.801,267.027 291.801,266.055 L291.801,263.76 Z M299.592,267 L299.592,263.76 L296.433,263.76 L296.433,267 L299.592,267 Z M307.383,255.66 L307.383,252.42 L304.224,252.42 L304.224,255.66 L307.383,255.66 Z M307.383,263.76 L304.224,263.76 L304.224,267 L305.628,267 L303.792,270.429 L305.007,270.429 L306.276,268.701 C307.167,267.405 307.383,267.027 307.383,266.055 L307.383,263.76 Z M326.487,255.066 L330.105,255.066 L330.105,252.852 L327.162,252.852 L328.593,248.1 L326.19,248.1 L324.732,252.852 L319.71,252.852 L321.141,248.1 L318.738,248.1 L317.28,252.852 L313.419,252.852 L313.419,255.066 L316.605,255.066 L315.309,259.386 L311.583,259.386 L311.583,261.6 L314.634,261.6 L312.987,267 L315.417,267 L317.064,261.6 L322.086,261.6 L320.439,267 L322.869,267 L324.516,261.6 L328.269,261.6 L328.269,259.386 L325.164,259.386 L326.487,255.066 Z M324.057,255.066 L322.734,259.386 L317.712,259.386 L319.008,255.066 L324.057,255.066 Z M337.545,261.249 L338.193,248.1 L335.088,248.1 L335.736,261.249 L337.545,261.249 Z M338.193,267 L338.193,263.787 L335.088,263.787 L335.088,267 L338.193,267 Z M346.524,248.1 C343.959,248.1 342.744,249.315 342.744,251.88 L342.744,253.851 L345.336,253.851 L345.336,251.961 C345.336,250.881 345.741,250.476 346.821,250.476 L351.897,250.476 C352.977,250.476 353.382,250.881 353.382,251.961 L353.382,253.554 C353.382,254.31 352.95,254.634 351.789,255.228 L350.979,255.687 C348.657,256.929 347.091,257.766 347.091,259.575 L347.091,261.681 L349.683,261.681 L349.683,259.818 C349.683,259.278 350.115,258.927 351.276,258.306 L352.113,257.874 C354.354,256.686 355.974,255.714 355.974,253.851 L355.974,251.88 C355.974,249.315 354.759,248.1 352.194,248.1 L346.524,248.1 Z M349.656,263.733 L347.064,263.733 L347.064,267 L349.656,267 L349.656,263.733 Z M360.309,246.372 L360.309,248.748 L361.821,248.748 C362.901,248.748 363.306,249.153 363.306,250.233 L363.306,266.001 C363.306,267.081 362.901,267.486 361.821,267.486 L360.309,267.486 L360.309,269.862 L362.118,269.862 C364.683,269.862 365.898,268.647 365.898,266.082 L365.898,250.152 C365.898,247.587 364.683,246.372 362.118,246.372 L360.309,246.372 Z" id="abcdefghijklmnopqrst-copy"></path>
            <path d="M2.55,143 L6.15,143 L6.15,122 L2.55,122 L2.55,143 Z M25.5,122 L25.5,136.94 L16.53,122 L12.72,122 L12.72,143 L16.2,143 L16.2,127.64 L25.44,143 L28.98,143 L28.98,122 L25.5,122 Z M35.55,122 L35.55,143 L46.71,143 C49.56,143 50.91,141.65 50.91,138.8 L50.91,126.2 C50.91,123.35 49.56,122 46.71,122 L35.55,122 Z M39.15,139.7 L39.15,125.3 L46.17,125.3 C47.01,125.3 47.31,125.6 47.31,126.41 L47.31,138.59 C47.31,139.4 47.01,139.7 46.17,139.7 L39.15,139.7 Z M72.09,122 L68.49,122 L68.49,138.59 C68.49,139.4 68.19,139.7 67.35,139.7 L61.41,139.7 C60.6,139.7 60.3,139.4 60.3,138.59 L60.3,122 L56.7,122 L56.7,138.8 C56.7,141.65 58.05,143 60.9,143 L67.89,143 C70.74,143 72.09,141.65 72.09,138.8 L72.09,122 Z M88.89,128.45 L92.43,128.45 L92.43,126.2 C92.43,123.35 91.08,122 88.23,122 L81.96,122 C79.11,122 77.76,123.35 77.76,126.2 L77.76,129.08 C77.76,131.93 79.53,132.83 82.08,133.4 L87.75,134.66 C88.77,134.87 89.16,135.17 89.16,136.13 L89.16,138.65 C89.16,139.49 88.86,139.79 88.05,139.79 L82.35,139.79 C81.51,139.79 81.21,139.49 81.21,138.65 L81.21,136.34 L77.7,136.34 L77.7,138.8 C77.7,141.65 79.05,143 81.9,143 L88.56,143 C91.41,143 92.76,141.65 92.76,138.8 L92.76,135.62 C92.76,132.77 90.99,131.87 88.44,131.3 L82.77,130.07 C81.75,129.83 81.36,129.53 81.36,128.57 L81.36,126.35 C81.36,125.51 81.66,125.21 82.47,125.21 L87.78,125.21 C88.59,125.21 88.89,125.51 88.89,126.35 L88.89,128.45 Z M112.14,125.27 L112.14,122 L96.63,122 L96.63,125.27 L102.57,125.27 L102.57,143 L106.17,143 L106.17,125.27 L112.14,125.27 Z M132.66,143 L128.73,135.02 C130.95,134.75 132,133.4 132,130.88 L132,126.2 C132,123.35 130.65,122 127.8,122 L117,122 L117,143 L120.6,143 L120.6,135.17 L124.86,135.17 L128.76,143 L132.66,143 Z M120.6,131.96 L120.6,125.27 L127.26,125.27 C128.1,125.27 128.4,125.57 128.4,126.38 L128.4,130.82 C128.4,131.66 128.1,131.96 127.26,131.96 L120.6,131.96 Z M146.43,143 L146.43,135.74 L153.48,122 L149.64,122 L144.66,132.02 L139.68,122 L135.78,122 L142.83,135.74 L142.83,143 L146.43,143 Z" id="INDUSTRY"></path>
        </g>
    </g>
</svg>