<svg id="Layer_1" xmlns="http://www.w3.org/2000/svg" xmlns:xlink="http://www.w3.org/1999/xlink" viewBox="0 0 330 330"><style>.st0{clip-path:url(#SVGID_2_)}</style><defs><path id="SVGID_1_" d="M142.9 82.5L0 0v165l142.9-82.5v165L0 330h285.8V165z"/></defs><clipPath id="SVGID_2_"><use xlink:href="#SVGID_1_" overflow="visible"/></clipPath><g class="st0"><path d="M-.1-.2L285.8-165l.1.2L0 0l-.1-.2zM-.1 3.9L285.8-161l.1.2L0 4.1l-.1-.2zM-.1 8l285.9-164.8.1.2L0 8.2-.1 8zM-.1 12.1l285.9-164.8.1.2L0 12.3l-.1-.2zM-.1 16.2l285.9-164.8.1.2L0 16.4l-.1-.2zM-.1 20.3l285.9-164.8.1.2L0 20.5l-.1-.2zM-.1 24.3l285.9-164.8.1.2L0 24.5l-.1-.2zM-.1 28.4l285.9-164.8.1.2L0 28.6l-.1-.2zM-.1 32.5l285.9-164.8.1.2L0 32.7l-.1-.2zM-.1 36.6l285.9-164.8.1.2L0 36.8l-.1-.2zM-.1 40.7l285.9-164.8.1.2L0 40.9l-.1-.2zM-.1 44.8L285.8-120l.1.2L0 45l-.1-.2zM-.1 48.8L285.8-116l.1.2L0 49.1l-.1-.3zM-.1 52.9l285.9-164.8.1.2L0 53.2l-.1-.3zM-.1 57l285.9-164.8.1.2L0 57.3l-.1-.3zM-.1 61.1l285.9-164.8.1.2L0 61.4l-.1-.3zM-.1 65.2L285.7-99.7l.1.2L0 65.4l-.1-.2zM-.1 69.3L285.8-95.6l.1.2L0 69.5l-.1-.2zM-.1 73.4L285.8-91.5l.1.2L0 73.6l-.1-.2zM-.1 77.5L285.8-87.4l.1.2L0 77.7l-.1-.2zM-.1 81.6L285.8-83.3l.1.2L0 81.8l-.1-.2zM-.1 85.7L285.8-79.2l.1.2L0 85.9l-.1-.2zM-.1 89.7L285.7-75.1l.1.2L0 90l-.1-.3zM-.1 93.8L285.8-71l.1.2L0 94.1l-.1-.3zM-.1 97.9L285.8-66.9l.1.2L0 98.1l-.1-.2zM-.1 102L285.8-62.8l.1.2L0 102.2l-.1-.2zM-.1 106.1L285.8-58.7l.1.2L0 106.3l-.1-.2zM-.1 110.2L285.7-54.7l.1.2L0 110.4l-.1-.2zM-.1 114.3L285.8-50.6l.1.2L0 114.5l-.1-.2zM-.1 118.3L285.8-46.5l.1.2L0 118.6l-.1-.3zM-.1 122.4L285.8-42.4l.1.2L0 122.7l-.1-.3zM-.1 126.5L285.8-38.3l.1.2L0 126.8l-.1-.3zM-.1 130.6L285.8-34.2l.1.2L0 130.9l-.1-.3zM-.1 134.7L285.8-30.2l.1.2L0 134.9l-.1-.2zM-.1 138.8L285.8-26.1l.1.2L0 139l-.1-.2zM-.1 142.9L285.8-22l.1.2L0 143.1l-.1-.2zM-.1 147L285.8-17.9l.1.2L0 147.2l-.1-.2zM-.1 151.1L285.8-13.8l.1.2L0 151.3l-.1-.2zM-.1 155.1L285.7-9.7l.1.2L0 155.4l-.1-.3zM-.1 159.2L285.8-5.6l.1.2L0 159.5l-.1-.3zM-.1 163.3L285.8-1.5l.1.2L0 163.6l-.1-.3zM-.1 167.4L285.8 2.6l.1.2L0 167.6l-.1-.2zM-.1 171.5L285.8 6.7l.1.2L0 171.7l-.1-.2zM-.1 175.6L285.7 10.7l.1.2L0 175.8l-.1-.2zM-.1 179.7L285.8 14.8l.1.2L0 179.9l-.1-.2zM-.1 183.8L285.8 18.9l.1.2L0 184l-.1-.2zM-.1 187.9L285.8 23l.1.2L0 188.1l-.1-.2zM-.1 191.9L285.8 27.1l.1.2L0 192.2l-.1-.3zM-.1 196L285.8 31.2l.1.2L0 196.3l-.1-.3zM-.1 200.1L285.8 35.2l.1.2L0 200.3l-.1-.2zM-.1 204.2L285.8 39.3l.1.2L0 204.4l-.1-.2zM-.1 208.3L285.8 43.4l.1.2L0 208.5l-.1-.2zM-.1 212.4L285.8 47.5l.1.2L0 212.6l-.1-.2zM-.1 216.5L285.8 51.6l.1.2L0 216.7l-.1-.2zM-.1 220.5L285.7 55.7l.1.2L0 220.8l-.1-.3zM-.1 224.6L285.8 59.8l.1.2L0 224.9l-.1-.3zM-.1 228.7L285.8 63.9l.1.2L0 229l-.1-.3zM-.1 232.8L285.8 68l.1.2L0 233.1l-.1-.3zM-.1 236.9L285.8 72.1l.1.2L0 237.2l-.1-.3zM-.1 241L285.7 76.1l.1.2L0 241.2l-.1-.2zM-.1 245.1L285.8 80.2l.1.2L0 245.3l-.1-.2zM-.1 249.2L285.8 84.3l.1.2L0 249.4l-.1-.2zM-.1 253.3L285.8 88.4l.1.2L0 253.5l-.1-.2zM-.1 257.4L285.8 92.5l.1.2L0 257.6l-.1-.2zM-.1 261.5L285.8 96.6l.1.2L0 261.7l-.1-.2zM-.1 265.5l285.9-164.8.1.2L0 265.7l-.1-.2zM-.1 269.6l285.9-164.8.1.2L0 269.8l-.1-.2zM-.1 273.7l285.9-164.8.1.2L0 273.9l-.1-.2zM-.1 277.8L285.8 113l.1.2L0 278l-.1-.2zM-.1 281.9L285.8 117l.1.2L0 282.1l-.1-.2zM-.1 285.9l285.9-164.8.1.2L0 286.2l-.1-.3zM-.1 290l285.9-164.8.1.2L0 290.3l-.1-.3zM-.1 294.1l285.9-164.8.1.2L0 294.4l-.1-.3zM-.1 298.2l285.9-164.8.1.2L0 298.5l-.1-.3zM-.1 302.3l285.9-164.8.1.2L0 302.6l-.1-.3zM-.1 306.4l285.9-164.8.1.2L0 306.6l-.1-.2zM-.1 310.5l285.9-164.8.1.2L0 310.7l-.1-.2zM-.1 314.6l285.9-164.8.1.2L0 314.8l-.1-.2zM-.1 318.7l285.9-164.8.1.2L0 318.9l-.1-.2zM-.1 322.8L285.8 158l.1.2L0 323l-.1-.2zM-.1 326.9L285.8 162l.1.2L0 327.1l-.1-.2zM-.1 330.9l285.9-164.8.1.2L0 331.1l-.1-.2zM-.1 335l285.9-164.8.1.2L0 335.2l-.1-.2zM-.1 339.1l285.9-164.8.1.2L0 339.3l-.1-.2zM-.1 343.2l285.9-164.8.1.2L0 343.4l-.1-.2zM-.1 347.3l285.9-164.8.1.2L0 347.5l-.1-.2zM-.1 351.3l285.9-164.8.1.2L0 351.6l-.1-.3zM-.1 355.4l285.9-164.8.1.2L0 355.7l-.1-.3zM-.1 359.5l285.9-164.8.1.2L0 359.8l-.1-.3zM-.1 363.6l285.9-164.8.1.2L0 363.9l-.1-.3zM-.1 367.7l285.9-164.8.1.2L0 368l-.1-.3zM-.1 371.8L285.8 207l.1.2L0 372l-.1-.2zM-.1 375.9L285.8 211l.1.2L0 376.1l-.1-.2zM-.1 380l285.9-164.8.1.2L0 380.2l-.1-.2zM-.1 384.1l285.9-164.8.1.2L0 384.3l-.1-.2zM-.1 388.2l285.9-164.8.1.2L0 388.4l-.1-.2zM-.1 392.3l285.9-164.8.1.2L0 392.5l-.1-.2zM-.1 396.3l285.9-164.8.1.2L0 396.5l-.1-.2zM-.1 400.4l285.9-164.8.1.2L0 400.6l-.1-.2zM-.1 404.5l285.9-164.8.1.2L0 404.7l-.1-.2zM-.1 408.6l285.9-164.8.1.2L0 408.8l-.1-.2zM-.1 412.7l285.9-164.8.1.2L0 412.9l-.1-.2zM-.1 416.7l285.9-164.8.1.2L0 417l-.1-.3zM-.1 420.8L285.8 256l.1.2L0 421.1l-.1-.3zM-.1 424.9l285.9-164.8.1.2L0 425.2l-.1-.3zM-.1 429l285.9-164.8.1.2L0 429.3l-.1-.3zM-.1 433.1l285.9-164.8.1.2L0 433.4l-.1-.3zM-.1 437.2l285.9-164.8.1.2L0 437.5l-.1-.3zM-.1 441.3l285.9-164.8.1.2L0 441.5l-.1-.2zM-.1 445.4l285.9-164.8.1.2L0 445.6l-.1-.2zM-.1 449.5l285.9-164.8.1.2L0 449.7l-.1-.2zM-.1 453.6l285.9-164.8.1.2L0 453.8l-.1-.2zM-.1 457.7l285.9-164.8.1.2L0 457.9l-.1-.2zM-.1 461.7l285.9-164.8.1.2L0 462l-.1-.3zM-.1 465.8L285.8 301l.1.2L0 466l-.1-.2zM-.1 469.9l285.9-164.8.1.2L0 470.1l-.1-.2zM-.1 474l285.9-164.8.1.2L0 474.2l-.1-.2zM-.1 478.1l285.9-164.8.1.2L0 478.3l-.1-.2zM-.1 482.2l285.9-164.8.1.2L0 482.4l-.1-.2zM-.1 486.3l285.9-164.8.1.2L0 486.5l-.1-.2zM-.1 490.3l285.9-164.8.1.2L0 490.6l-.1-.3zM-.1 494.4l285.9-164.8.1.2L0 494.7l-.1-.3z"/></g></svg>