<svg id="Layer_1" xmlns="http://www.w3.org/2000/svg" viewBox="0 0 330 330"><style>.st0,.st1,.st2{fill:none;stroke:#231f20;stroke-width:1.821;stroke-miterlimit:10}.st1{stroke-linecap:round}.st2{stroke-linejoin:bevel}</style><path class="st0" d="M34.6 21.8L2 3v75.3l32.6 18.8 32.6-18.8V40.6z"/><path class="st1" d="M34.6 21.8v37.7L2 78.3"/><path class="st2" d="M2 40.6l32.6-18.8"/><path class="st0" d="M99.8 21.8L67.2 3v75.3l32.6 18.8 32.6-18.8V40.6z"/><path class="st1" d="M99.8 21.8v37.7L67.2 78.3"/><path class="st2" d="M67.2 40.6l32.6-18.8"/><path class="st0" d="M165 21.8L132.4 3v75.3L165 97.1l32.6-18.8V40.6z"/><path class="st1" d="M165 21.8v37.7l-32.6 18.8"/><path class="st2" d="M132.4 40.6L165 21.8"/><path class="st0" d="M230.2 21.8L197.6 3v75.3l32.6 18.8 32.6-18.8V40.6z"/><path class="st1" d="M230.2 21.8v37.7l-32.6 18.8"/><path class="st2" d="M197.6 40.6l32.6-18.8"/><path class="st0" d="M295.4 21.8L262.8 3v75.3l32.6 18.8L328 78.3V40.6z"/><path class="st1" d="M295.4 21.8v37.7l-32.6 18.8"/><path class="st2" d="M262.8 40.6l32.6-18.8"/><path class="st0" d="M34.6 97.1L2 78.3v75.3l32.6 18.8 32.6-18.8v-37.7z"/><path class="st1" d="M34.6 97.1v37.7L2 153.6"/><path class="st2" d="M2 115.9l32.6-18.8"/><path class="st0" d="M99.8 97.1L67.2 78.3v75.3l32.6 18.8 32.6-18.8v-37.7z"/><path class="st1" d="M99.8 97.1v37.7l-32.6 18.8"/><path class="st2" d="M67.2 115.9l32.6-18.8"/><path class="st0" d="M165 97.1l-32.6-18.8v75.3l32.6 18.8 32.6-18.8v-37.7z"/><path class="st1" d="M165 97.1v37.7l-32.6 18.8"/><path class="st2" d="M132.4 115.9L165 97.1"/><path class="st0" d="M230.2 97.1l-32.6-18.8v75.3l32.6 18.8 32.6-18.8v-37.7z"/><path class="st1" d="M230.2 97.1v37.7l-32.6 18.8"/><path class="st2" d="M197.6 115.9l32.6-18.8"/><path class="st0" d="M295.4 97.1l-32.6-18.8v75.3l32.6 18.8 32.6-18.8v-37.7z"/><path class="st1" d="M295.4 97.1v37.7l-32.6 18.8"/><path class="st2" d="M262.8 115.9l32.6-18.8"/><path class="st0" d="M34.6 172.4L2 153.6v75.3l32.6 18.8 32.6-18.8v-37.7z"/><path class="st1" d="M34.6 172.4V210L2 228.9"/><path class="st2" d="M2 191.2l32.6-18.8"/><path class="st0" d="M99.8 172.4l-32.6-18.8v75.3l32.6 18.8 32.6-18.8v-37.7z"/><path class="st1" d="M99.8 172.4V210l-32.6 18.9"/><path class="st2" d="M67.2 191.2l32.6-18.8"/><g><path class="st0" d="M165 172.4l-32.6-18.8v75.3l32.6 18.8 32.6-18.8v-37.7z"/><path class="st1" d="M165 172.4V210l-32.6 18.9"/><path class="st2" d="M132.4 191.2l32.6-18.8"/></g><g><path class="st0" d="M230.2 172.4l-32.6-18.8v75.3l32.6 18.8 32.6-18.8v-37.7z"/><path class="st1" d="M230.2 172.4V210l-32.6 18.9"/><path class="st2" d="M197.6 191.2l32.6-18.8"/></g><g><path class="st0" d="M295.4 172.4l-32.6-18.8v75.3l32.6 18.8 32.6-18.8v-37.7z"/><path class="st1" d="M295.4 172.4V210l-32.6 18.9"/><path class="st2" d="M262.8 191.2l32.6-18.8"/></g><g><path class="st0" d="M34.6 247.7L2 228.9v75.2L34.6 323l32.6-18.9v-37.6z"/><path class="st1" d="M34.6 247.7v37.6L2 304.1"/><path class="st2" d="M2 266.5l32.6-18.8"/></g><g><path class="st0" d="M99.8 247.7l-32.6-18.8v75.2L99.8 323l32.6-18.9v-37.6z"/><path class="st1" d="M99.8 247.7v37.6l-32.6 18.8"/><path class="st2" d="M67.2 266.5l32.6-18.8"/></g><g><path class="st0" d="M165 247.7l-32.6-18.8v75.2L165 323l32.6-18.9v-37.6z"/><path class="st1" d="M165 247.7v37.6l-32.6 18.8"/><path class="st2" d="M132.4 266.5l32.6-18.8"/></g><g><path class="st0" d="M230.2 247.7l-32.6-18.8v75.2l32.6 18.9 32.6-18.9v-37.6z"/><path class="st1" d="M230.2 247.7v37.6l-32.6 18.8"/><path class="st2" d="M197.6 266.5l32.6-18.8"/></g><g><path class="st0" d="M295.4 247.7l-32.6-18.8v75.2l32.6 18.9 32.6-18.9v-37.6z"/><path class="st1" d="M295.4 247.7v37.6l-32.6 18.8"/><path class="st2" d="M262.8 266.5l32.6-18.8"/></g></svg>