<svg width="510" height="275" viewBox="0 0 510 275" xmlns="http://www.w3.org/2000/svg"><title>roboto-sample</title><g fill="none" fill-rule="evenodd"><path d="M0 0h510v275H0z"/><path d="M37.428 60.714H11.812L6 76.524H1L22.353 20.1h4.534L48.24 76.525h-4.96l-5.852-15.811zm-24.143-4.07h22.632L24.6 25.915l-11.316 30.73zm68.632 19.88c-.465-1.317-.762-3.267-.892-5.85-1.627 2.118-3.7 3.752-6.22 4.901a19.05 19.05 0 0 1-8.002 1.725c-4.03 0-7.292-1.124-9.785-3.372-2.493-2.247-3.74-5.09-3.74-8.525 0-4.082 1.699-7.312 5.096-9.689 3.398-2.376 8.132-3.565 14.203-3.565h8.41v-4.766c0-2.997-.924-5.355-2.771-7.073s-4.54-2.577-8.08-2.577c-3.23 0-5.904.827-8.022 2.48-2.119 1.654-3.178 3.643-3.178 5.968l-4.65-.039c0-3.332 1.55-6.22 4.65-8.66 3.1-2.442 6.911-3.663 11.432-3.663 4.676 0 8.364 1.169 11.064 3.507 2.7 2.338 4.089 5.6 4.166 9.785v19.842c0 4.056.427 7.092 1.28 9.107v.465h-4.961zm-14.571-3.332c3.1 0 5.87-.75 8.312-2.248 2.442-1.498 4.218-3.5 5.329-6.006v-9.224h-8.294c-4.624.052-8.241.898-10.85 2.539-2.61 1.64-3.915 3.894-3.915 6.762 0 2.351.872 4.302 2.616 5.852 1.744 1.55 4.011 2.325 6.802 2.325zm31.118 3.333V20.1h18.447c6.123 0 10.728 1.266 13.815 3.798 3.088 2.532 4.631 6.278 4.631 11.239 0 2.635-.749 4.966-2.247 6.994-1.499 2.029-3.54 3.598-6.123 4.709 3.048.853 5.457 2.474 7.227 4.864 1.77 2.39 2.655 5.238 2.655 8.545 0 5.063-1.64 9.042-4.922 11.936-3.281 2.893-7.918 4.34-13.912 4.34h-19.57zm7.44-26.391v20.307h12.286c3.462 0 6.194-.898 8.196-2.694 2.002-1.795 3.003-4.269 3.003-7.42 0-6.796-3.694-10.193-11.083-10.193h-12.401zm0-5.968h11.24c3.255 0 5.858-.814 7.808-2.441 1.95-1.628 2.926-3.837 2.926-6.627 0-3.1-.904-5.355-2.713-6.763-1.808-1.408-4.56-2.112-8.254-2.112h-11.006v17.943zm76.345 11.858c0 6.408-1.473 11.555-4.418 15.444-2.945 3.888-6.898 5.832-11.859 5.832-5.296 0-9.39-1.873-12.284-5.62l-.35 4.845h-6.587V17h7.17v22.206c2.893-3.592 6.884-5.387 11.974-5.387s9.088 1.925 11.994 5.774c2.907 3.85 4.36 9.12 4.36 15.811v.62zm-7.17-.813c0-4.883-.943-8.655-2.829-11.316-1.886-2.661-4.598-3.992-8.138-3.992-4.728 0-8.125 2.196-10.192 6.588v18.137c2.196 4.392 5.62 6.588 10.27 6.588 3.436 0 6.11-1.33 8.022-3.992 1.912-2.66 2.867-6.665 2.867-12.013zm59.564 2.945c-.568 6.02-2.79 10.715-6.665 14.087-3.876 3.371-9.03 5.057-15.463 5.057-4.495 0-8.455-1.066-11.878-3.197-3.423-2.132-6.065-5.16-7.925-9.088-1.86-3.927-2.829-8.487-2.906-13.68v-5.27c0-5.322.943-10.011 2.829-14.068 1.886-4.056 4.592-7.182 8.118-9.378 3.527-2.196 7.603-3.294 12.227-3.294 6.226 0 11.238 1.692 15.036 5.077 3.798 3.384 6.007 8.164 6.627 14.339h-9.766c-.465-4.057-1.647-6.982-3.546-8.778-1.899-1.796-4.682-2.693-8.35-2.693-4.264 0-7.538 1.556-9.825 4.67-2.286 3.113-3.455 7.679-3.507 13.699v4.999c0 6.097 1.092 10.747 3.275 13.95 2.183 3.205 5.38 4.806 9.591 4.806 3.85 0 6.743-.865 8.68-2.596 1.938-1.731 3.166-4.612 3.682-8.642h9.766zm25.073 11.626c2.351 0 4.302-.685 5.852-2.054 1.55-1.37 2.377-3.062 2.48-5.077h8.875c-.103 2.61-.917 5.045-2.442 7.305-1.524 2.26-3.59 4.05-6.2 5.368-2.61 1.317-5.426 1.976-8.448 1.976-5.865 0-10.515-1.899-13.951-5.697-3.437-3.798-5.155-9.042-5.155-15.734v-.968c0-6.382 1.705-11.49 5.116-15.327 3.41-3.837 8.06-5.755 13.951-5.755 4.986 0 9.049 1.453 12.188 4.36 3.139 2.906 4.786 6.723 4.94 11.451h-8.874c-.103-2.403-.923-4.379-2.46-5.929-1.538-1.55-3.495-2.325-5.872-2.325-3.048 0-5.4 1.104-7.053 3.313-1.653 2.21-2.493 5.561-2.519 10.057v1.511c0 4.547.82 7.938 2.461 10.173 1.64 2.235 4.011 3.352 7.111 3.352zm50.535 6.743h-11.2V33.354l-13.37 4.146v-9.107l23.368-8.37h1.202v56.502zm57.006 0H328.58v-7.673l18.253-19.454c2.506-2.739 4.36-5.129 5.56-7.17 1.202-2.04 1.803-3.978 1.803-5.813 0-2.506-.633-4.476-1.9-5.91-1.265-1.433-3.074-2.15-5.425-2.15-2.531 0-4.527.872-5.987 2.616-1.46 1.743-2.19 4.036-2.19 6.878h-11.238c0-3.436.82-6.575 2.46-9.417 1.641-2.842 3.96-5.07 6.957-6.685 2.997-1.614 6.394-2.422 10.192-2.422 5.813 0 10.328 1.395 13.544 4.186 3.217 2.79 4.825 6.73 4.825 11.82 0 2.79-.723 5.631-2.17 8.525s-3.927 6.265-7.44 10.115l-12.828 13.524h24.26v9.03zm18.252-33.173h5.968c2.842 0 4.948-.71 6.317-2.131 1.37-1.421 2.054-3.307 2.054-5.658 0-2.274-.678-4.043-2.034-5.31-1.357-1.265-3.223-1.898-5.6-1.898-2.145 0-3.94.587-5.387 1.763-1.447 1.175-2.17 2.706-2.17 4.592h-11.2c0-2.945.795-5.587 2.383-7.925 1.59-2.338 3.811-4.166 6.666-5.483 2.855-1.318 6-1.977 9.436-1.977 5.968 0 10.645 1.428 14.03 4.282 3.384 2.855 5.076 6.789 5.076 11.8 0 2.584-.788 4.961-2.364 7.131-1.576 2.17-3.643 3.837-6.2 5 3.177 1.136 5.547 2.841 7.11 5.115 1.564 2.273 2.345 4.96 2.345 8.06 0 5.013-1.828 9.03-5.484 12.053-3.655 3.023-8.493 4.534-14.513 4.534-5.632 0-10.237-1.486-13.815-4.457-3.578-2.97-5.367-6.898-5.367-11.78h11.2c0 2.118.794 3.849 2.383 5.192 1.588 1.344 3.545 2.016 5.87 2.016 2.662 0 4.748-.705 6.26-2.113 1.51-1.408 2.266-3.274 2.266-5.6 0-5.632-3.1-8.448-9.3-8.448h-5.93v-8.758zM10.283 188.527c-.14-.281-.255-.782-.343-1.503-1.133 1.178-2.487 1.767-4.06 1.767-1.406 0-2.56-.398-3.46-1.194-.902-.795-1.352-1.804-1.352-3.025 0-1.486.565-2.64 1.694-3.46 1.13-.823 2.718-1.234 4.766-1.234H9.9v-1.12c0-.853-.255-1.532-.765-2.037-.51-.505-1.261-.758-2.254-.758-.87 0-1.6.22-2.189.66-.589.439-.883.97-.883 1.594H1.358c0-.712.253-1.4.758-2.063.505-.664 1.19-1.189 2.057-1.575.865-.387 1.817-.58 2.854-.58 1.643 0 2.931.41 3.863 1.232.931.822 1.415 1.954 1.45 3.395v6.565c0 1.31.167 2.351.5 3.125v.21h-2.557zm-4.047-1.859c.764 0 1.49-.198 2.175-.593.686-.396 1.182-.91 1.49-1.543v-2.927H7.989c-2.988 0-4.482.875-4.482 2.624 0 .765.255 1.362.764 1.793.51.43 1.165.646 1.965.646zm23.003-5.115c0 2.18-.5 3.93-1.503 5.253-1.002 1.323-2.346 1.985-4.034 1.985-1.802 0-3.195-.638-4.18-1.912l-.118 1.648h-2.24v-20.25h2.438v7.554c.984-1.222 2.342-1.832 4.074-1.832 1.731 0 3.091.654 4.08 1.964.989 1.31 1.483 3.102 1.483 5.379v.21zm-2.439-.277c0-1.661-.32-2.944-.962-3.85-.642-.905-1.565-1.358-2.769-1.358-1.608 0-2.764.747-3.467 2.242v6.17c.747 1.494 1.912 2.24 3.494 2.24 1.169 0 2.078-.452 2.729-1.357.65-.905.975-2.268.975-4.087zm12.233 5.524c.87 0 1.63-.264 2.28-.791.65-.528 1.011-1.187 1.082-1.978h2.307c-.044.818-.326 1.595-.844 2.334-.519.738-1.21 1.327-2.077 1.766-.865.44-1.781.66-2.748.66-1.943 0-3.487-.649-4.634-1.945-1.147-1.296-1.72-3.07-1.72-5.32v-.408c0-1.389.254-2.624.764-3.705s1.241-1.92 2.195-2.518c.954-.598 2.08-.896 3.382-.896 1.6 0 2.928.479 3.988 1.437 1.059.958 1.623 2.201 1.694 3.73h-2.307c-.07-.922-.42-1.68-1.049-2.274-.628-.593-1.404-.89-2.326-.89-1.24 0-2.2.446-2.881 1.339-.681.892-1.022 2.181-1.022 3.869v.461c0 1.644.339 2.91 1.015 3.797.677.888 1.644 1.332 2.9 1.332zm8.818-5.524c0-2.189.518-3.949 1.555-5.28 1.037-1.332 2.395-1.997 4.074-1.997 1.67 0 2.993.57 3.968 1.713v-7.435h2.44v20.25h-2.242l-.119-1.53c-.975 1.196-2.333 1.794-4.073 1.794-1.653 0-3-.677-4.041-2.03-1.042-1.354-1.562-3.12-1.562-5.3v-.185zm2.439.277c0 1.617.334 2.883 1.002 3.797.667.914 1.59 1.37 2.768 1.37 1.547 0 2.676-.694 3.388-2.082v-6.553c-.73-1.344-1.85-2.017-3.362-2.017-1.195 0-2.127.462-2.794 1.385-.668.922-1.002 2.29-1.002 4.1zm20.3 7.238c-1.933 0-3.506-.635-4.72-1.906-1.212-1.27-1.819-2.968-1.819-5.095v-.448c0-1.415.27-2.679.811-3.79.54-1.112 1.296-1.982 2.268-2.61a5.701 5.701 0 0 1 3.157-.943c1.855 0 3.296.61 4.324 1.832 1.029 1.222 1.543 2.97 1.543 5.247v1.015H66.49c.035 1.407.446 2.542 1.233 3.408.787.866 1.786 1.299 3 1.299.86 0 1.59-.176 2.188-.528a5.499 5.499 0 0 0 1.568-1.397l1.49 1.16c-1.195 1.837-2.988 2.756-5.379 2.756zm-.303-12.789c-.984 0-1.81.359-2.478 1.075-.668.716-1.081 1.72-1.24 3.012h7.146v-.184c-.07-1.24-.404-2.2-1.002-2.88-.598-.682-1.406-1.023-2.426-1.023zm10.888 12.525v-12.38H78.92v-1.885h2.255V172.8c0-1.53.408-2.712 1.226-3.547.817-.835 1.973-1.252 3.467-1.252a6.4 6.4 0 0 1 1.674.224l-.131 1.978a7.005 7.005 0 0 0-1.319-.119c-.79 0-1.402.23-1.832.692-.43.462-.646 1.123-.646 1.984v1.503h3.045v1.885h-3.045v12.38h-2.44zm8.594-7.251c0-2.224.514-3.993 1.542-5.307 1.028-1.313 2.39-1.97 4.087-1.97 1.74 0 3.098.615 4.074 1.845l.118-1.582h2.228v13.922c0 1.846-.547 3.3-1.641 4.364-1.094 1.063-2.564 1.595-4.41 1.595a7.337 7.337 0 0 1-3.019-.66c-.984-.439-1.736-1.04-2.254-1.805l1.265-1.464c1.046 1.292 2.325 1.938 3.837 1.938 1.186 0 2.111-.334 2.775-1.002.663-.668.995-1.608.995-2.82v-1.227c-.975 1.125-2.307 1.688-3.994 1.688-1.67 0-3.022-.673-4.054-2.018-1.033-1.344-1.55-3.177-1.55-5.497zm2.452.277c0 1.608.33 2.872.988 3.79.66.918 1.582 1.378 2.769 1.378 1.538 0 2.668-.699 3.388-2.096v-6.513c-.747-1.362-1.867-2.044-3.362-2.044-1.186 0-2.113.462-2.781 1.385-.668.922-1.002 2.29-1.002 4.1zm16.715-5.564c1.08-1.327 2.487-1.99 4.218-1.99 3.015 0 4.535 1.7 4.562 5.102v9.426h-2.44v-9.44c-.008-1.028-.243-1.788-.704-2.28-.462-.493-1.18-.739-2.156-.739-.791 0-1.485.211-2.083.633a4.297 4.297 0 0 0-1.397 1.661v10.165h-2.44v-20.25h2.44v7.712zm16.082 12.538h-2.44v-14.265h2.44v14.265zm-2.637-18.048c0-.396.12-.73.362-1.002.242-.273.6-.41 1.075-.41.474 0 .835.137 1.08.41.247.272.37.606.37 1.002 0 .395-.123.725-.37.988-.245.264-.606.396-1.08.396-.475 0-.833-.132-1.075-.396-.241-.263-.362-.593-.362-.988zm10.057 3.783v15.913c0 2.742-1.244 4.113-3.731 4.113-.536 0-1.033-.079-1.49-.237V192.1c.282.07.65.105 1.108.105.545 0 .96-.147 1.246-.442.285-.294.428-.806.428-1.535v-15.966h2.439zm-2.69-3.783c0-.387.121-.719.363-.996s.596-.415 1.061-.415c.475 0 .835.136 1.081.409.247.272.37.606.37 1.002 0 .395-.123.725-.37.988-.246.264-.606.396-1.08.396-.475 0-.831-.132-1.069-.396-.237-.263-.355-.593-.355-.988zm11.6 11.443l-1.53 1.595v5.01h-2.438v-20.25h2.439v12.247l1.305-1.568 4.443-4.694h2.966l-5.55 5.96 6.196 8.305h-2.86l-4.97-6.605zm13.353 6.605h-2.439v-20.25h2.44v20.25zm7.196-14.265l.066 1.582c1.046-1.23 2.457-1.845 4.232-1.845 1.995 0 3.353.764 4.074 2.293a5.404 5.404 0 0 1 1.852-1.66c.76-.423 1.66-.633 2.696-.633 3.13 0 4.72 1.656 4.773 4.97v9.558h-2.44v-9.413c0-1.02-.232-1.782-.698-2.288-.466-.505-1.248-.758-2.347-.758-.905 0-1.656.27-2.254.811-.598.54-.945 1.268-1.041 2.182v9.466h-2.453v-9.347c0-2.075-1.015-3.112-3.045-3.112-1.6 0-2.694.682-3.283 2.044v10.415h-2.439v-14.265h2.307zm24.678 0l.08 1.793c1.09-1.37 2.513-2.056 4.27-2.056 3.015 0 4.536 1.7 4.562 5.102v9.426h-2.439v-9.44c-.008-1.028-.244-1.788-.705-2.28-.461-.493-1.18-.739-2.155-.739-.792 0-1.486.211-2.084.633a4.297 4.297 0 0 0-1.397 1.661v10.165h-2.439v-14.265h2.307zm12.945 7c0-1.397.274-2.654.824-3.77.549-1.116 1.313-1.977 2.293-2.584.98-.606 2.099-.91 3.356-.91 1.942 0 3.513.673 4.713 2.018 1.2 1.344 1.8 3.133 1.8 5.365v.172c0 1.388-.266 2.634-.798 3.737-.532 1.103-1.292 1.962-2.281 2.578-.989.615-2.125.923-3.408.923-1.934 0-3.5-.673-4.7-2.018-1.2-1.344-1.8-3.124-1.8-5.339v-.171zm2.452.29c0 1.583.367 2.853 1.1 3.81.734.959 1.717 1.438 2.947 1.438 1.24 0 2.224-.486 2.953-1.457.73-.971 1.094-2.331 1.094-4.08 0-1.565-.37-2.833-1.114-3.804-.742-.971-1.729-1.457-2.96-1.457-1.203 0-2.175.48-2.913 1.437-.738.958-1.107 2.33-1.107 4.114zm26.642 0c0 2.172-.497 3.92-1.49 5.248-.993 1.327-2.338 1.99-4.034 1.99-1.732 0-3.094-.549-4.087-1.647v6.868h-2.439v-19.749h2.228l.119 1.582c.993-1.23 2.373-1.845 4.14-1.845 1.713 0 3.069.646 4.066 1.938.998 1.292 1.497 3.089 1.497 5.392v.224zm-2.44-.276c0-1.609-.342-2.879-1.028-3.81-.685-.932-1.625-1.398-2.82-1.398-1.477 0-2.585.655-3.323 1.965v6.816c.73 1.3 1.846 1.95 3.349 1.95 1.169 0 2.098-.463 2.788-1.39.69-.927 1.035-2.305 1.035-4.133zm5.945 0c0-2.241.514-4.015 1.542-5.32 1.028-1.305 2.408-1.957 4.14-1.957 1.687 0 3.019.566 3.994 1.7l.106-1.437h2.241v19.75h-2.439v-6.804c-.984 1.055-2.294 1.583-3.929 1.583-1.722 0-3.096-.67-4.12-2.011-1.023-1.34-1.535-3.118-1.535-5.333v-.171zm2.439.277c0 1.635.345 2.918 1.035 3.85.69.931 1.619 1.397 2.788 1.397 1.45 0 2.557-.642 3.322-1.925v-6.987c-.773-1.257-1.872-1.886-3.296-1.886-1.178 0-2.114.468-2.808 1.404-.694.937-1.041 2.319-1.041 4.147zm21.395-5.102a7.309 7.309 0 0 0-1.2-.093c-1.6 0-2.685.682-3.256 2.044v10.125h-2.44v-14.265h2.374l.04 1.648c.799-1.274 1.933-1.911 3.4-1.911.475 0 .836.061 1.082.184v2.268zm11.547 8.292c0-.659-.249-1.171-.745-1.536-.497-.364-1.363-.679-2.598-.942-1.234-.264-2.214-.58-2.94-.95-.725-.369-1.26-.808-1.608-1.318-.347-.51-.52-1.116-.52-1.82 0-1.168.494-2.157 1.483-2.966.988-.808 2.252-1.212 3.79-1.212 1.617 0 2.929.417 3.935 1.252 1.006.835 1.51 1.903 1.51 3.204h-2.453c0-.668-.283-1.244-.85-1.727-.567-.484-1.28-.726-2.142-.726-.888 0-1.582.194-2.083.58-.501.387-.752.893-.752 1.517 0 .589.233 1.032.7 1.331.465.299 1.306.585 2.524.857 1.217.273 2.204.598 2.96.976.755.378 1.316.832 1.68 1.364.365.532.547 1.18.547 1.945 0 1.274-.51 2.296-1.529 3.065-1.02.769-2.342 1.154-3.968 1.154-1.143 0-2.153-.203-3.032-.607-.88-.404-1.567-.969-2.064-1.694a4.083 4.083 0 0 1-.744-2.353h2.439c.043.817.37 1.465.982 1.944.61.48 1.417.719 2.419.719.923 0 1.663-.187 2.221-.56.558-.374.838-.873.838-1.497zm9.925-13.935v3.454h2.663v1.885h-2.663v8.847c0 .57.118 1 .356 1.285.237.286.641.429 1.213.429.28 0 .668-.053 1.16-.159v1.978a7.07 7.07 0 0 1-1.872.264c-1.09 0-1.912-.33-2.466-.99-.553-.658-.83-1.594-.83-2.807v-8.847h-2.597v-1.885h2.597v-3.454h2.439zm15.317 16.308c-.949 1.116-2.342 1.675-4.179 1.675-1.52 0-2.678-.442-3.474-1.325-.795-.884-1.197-2.191-1.206-3.923v-9.28h2.439v9.215c0 2.162.879 3.243 2.636 3.243 1.864 0 3.103-.695 3.718-2.083v-10.376h2.44v14.265h-2.321l-.053-1.41zm11.784-1.898l3.534-10.956h2.491l-5.115 14.265h-1.859l-5.168-14.265h2.492l3.625 10.956zm22.002-.053l2.742-10.903h2.439l-4.153 14.265h-1.977l-3.468-10.81-3.375 10.81h-1.977l-4.14-14.265h2.426l2.808 10.679 3.322-10.679h1.965l3.388 10.903zm13.445-5.695l3.164-5.208h2.848l-4.667 7.053 4.812 7.212h-2.821l-3.296-5.34-3.296 5.34h-2.835l4.812-7.212-4.667-7.053h2.822l3.124 5.208zm14.263 5.484l3.322-10.692h2.61l-5.734 16.467c-.888 2.373-2.299 3.56-4.232 3.56l-.462-.04-.91-.172V192.1l.66.052c.826 0 1.47-.167 1.931-.5.462-.335.842-.945 1.14-1.833l.541-1.45-5.089-14.107h2.663l3.56 10.692zm11.402 1.582h8.345v1.99h-11.325v-1.792l7.87-10.455h-7.751v-2.017h10.81v1.727l-7.95 10.547zm-353.18 36.981H4.417l-1.807 5.01H0l7.33-19.195h2.215l7.343 19.195h-2.597l-1.833-5.01zm-7.277-2.083h6.526l-3.27-8.978-3.256 8.978zm15.291 7.093v-19.195h6.276c2.083 0 3.65.43 4.7 1.292 1.05.86 1.575 2.135 1.575 3.823 0 .896-.255 1.69-.765 2.38s-1.204 1.223-2.083 1.601c1.037.29 1.857.842 2.459 1.655.602.813.903 1.782.903 2.907 0 1.722-.558 3.076-1.674 4.06-1.116.985-2.694 1.477-4.733 1.477h-6.658zm2.531-8.978v6.908h4.18c1.177 0 2.107-.305 2.788-.916.681-.611 1.022-1.453 1.022-2.525 0-2.311-1.257-3.467-3.77-3.467h-4.22zm0-2.03h3.824c1.107 0 1.993-.277 2.656-.831.664-.554.996-1.305.996-2.254 0-1.055-.308-1.822-.923-2.3-.616-.48-1.552-.72-2.808-.72h-3.745v6.105zm29.398 4.917c-.237 2.03-.987 3.597-2.248 4.7-1.261 1.103-2.938 1.655-5.03 1.655-2.267 0-4.084-.813-5.45-2.44-1.368-1.625-2.05-3.8-2.05-6.525v-1.846c0-1.784.318-3.353.955-4.707.637-1.353 1.54-2.392 2.71-3.117 1.168-.726 2.522-1.088 4.06-1.088 2.039 0 3.673.569 4.904 1.707 1.23 1.138 1.947 2.714 2.149 4.726h-2.545c-.22-1.529-.696-2.636-1.43-3.322-.734-.685-1.76-1.028-3.078-1.028-1.618 0-2.885.598-3.804 1.793-.918 1.195-1.377 2.896-1.377 5.102v1.859c0 2.083.435 3.74 1.305 4.97.87 1.23 2.087 1.846 3.652 1.846 1.406 0 2.485-.319 3.236-.956.752-.637 1.25-1.747 1.496-3.329h2.545zm4.454 6.09v-19.194h5.418c1.67 0 3.147.369 4.43 1.107s2.274 1.789 2.973 3.15c.699 1.363 1.053 2.928 1.061 4.694v1.226c0 1.81-.35 3.397-1.048 4.76-.699 1.362-1.696 2.408-2.992 3.137-1.297.73-2.806 1.103-4.529 1.12h-5.313zm2.531-17.111v15.042h2.663c1.951 0 3.47-.606 4.555-1.82 1.086-1.212 1.628-2.94 1.628-5.18v-1.121c0-2.18-.512-3.874-1.535-5.082-1.024-1.209-2.477-1.822-4.358-1.84h-2.953zm27.025 8.24h-8.32v6.802h9.664v2.07H75.561v-19.195h12.063v2.083h-9.532v6.17h8.319v2.07zm16.082.395h-8.055v8.477h-2.532v-19.195h11.892v2.083h-9.36v6.565h8.055v2.07zm19.51 5.959c-.651.931-1.558 1.628-2.723 2.09-1.165.46-2.52.692-4.067.692-1.565 0-2.953-.367-4.166-1.101-1.213-.734-2.151-1.778-2.815-3.131-.663-1.354-1.004-2.923-1.022-4.707v-1.674c0-2.892.675-5.133 2.024-6.724 1.35-1.59 3.245-2.386 5.689-2.386 2.004 0 3.617.512 4.838 1.536 1.222 1.024 1.969 2.476 2.241 4.357h-2.53c-.475-2.54-1.987-3.81-4.536-3.81-1.696 0-2.982.595-3.856 1.786-.875 1.191-1.316 2.916-1.325 5.175v1.569c0 2.153.492 3.865 1.476 5.135.985 1.27 2.316 1.905 3.995 1.905.95 0 1.78-.106 2.492-.317.712-.21 1.3-.567 1.766-1.068v-4.31h-4.442v-2.057h6.96v7.04zm19.97 2.518h-2.544v-8.873h-9.677v8.873h-2.53v-19.195h2.53v8.252h9.677v-8.252h2.545v19.195zm8.212 0h-2.531v-19.195h2.531v19.195zm13.67-19.195h2.544v13.592c0 1.837-.552 3.274-1.655 4.31-1.103 1.038-2.573 1.557-4.41 1.557-1.907 0-3.392-.488-4.456-1.464-1.063-.975-1.595-2.342-1.595-4.1h2.531c0 1.099.301 1.956.904 2.57.602.616 1.474.924 2.616.924 1.046 0 1.892-.33 2.538-.99.646-.658.974-1.581.982-2.768v-13.631zm12.733 10.27l-2.347 2.439v6.486h-2.531v-19.195h2.531v9.492l8.53-9.492h3.059l-7.555 8.477 8.148 10.718h-3.032l-6.803-8.925zm15.594 6.855h9.097v2.07h-11.641v-19.195h2.544v17.125zm16.254-17.125l6.275 15.662 6.275-15.662h3.283v19.195h-2.531v-7.475l.237-8.069-6.302 15.544h-1.938l-6.288-15.504.25 8.029v7.475h-2.531v-19.195h3.27zm36.055 19.195h-2.545l-9.663-14.792v14.792h-2.545v-19.195h2.545l9.69 14.857v-14.857h2.518v19.195zm20.261-8.978c0 1.88-.316 3.522-.95 4.924-.632 1.402-1.529 2.472-2.689 3.21-1.16.738-2.513 1.108-4.06 1.108-1.512 0-2.852-.372-4.021-1.114-1.17-.743-2.077-1.802-2.723-3.178-.646-1.375-.977-2.968-.995-4.779v-1.384c0-1.846.32-3.476.962-4.891.642-1.415 1.55-2.498 2.723-3.25 1.173-.751 2.516-1.127 4.027-1.127 1.538 0 2.894.371 4.068 1.114 1.173.743 2.076 1.82 2.709 3.23s.949 3.052.949 4.924v1.213zm-2.518-1.24c0-2.276-.457-4.023-1.371-5.24-.914-1.217-2.193-1.826-3.837-1.826-1.6 0-2.858.609-3.777 1.826-.918 1.217-1.39 2.907-1.417 5.07v1.41c0 2.206.464 3.94 1.39 5.2.928 1.262 2.205 1.893 3.83 1.893 1.636 0 2.901-.596 3.798-1.787.896-1.19 1.358-2.898 1.384-5.122v-1.423zm9.846 2.703v7.515h-2.531v-19.195h7.08c2.1 0 3.746.536 4.937 1.608 1.19 1.072 1.786 2.492 1.786 4.258 0 1.864-.582 3.298-1.747 4.305-1.164 1.006-2.832 1.51-5.003 1.51h-4.522zm0-2.07h4.548c1.354 0 2.391-.318 3.112-.955.72-.638 1.08-1.558 1.08-2.762 0-1.143-.36-2.057-1.08-2.743-.721-.685-1.71-1.041-2.967-1.067h-4.693v7.527zm30.162.607c0 1.854-.294 3.452-.883 4.792-.589 1.34-1.415 2.388-2.479 3.144l3.428 2.69-1.727 1.595-4.047-3.217c-.633.158-1.301.238-2.004.238-1.512 0-2.852-.372-4.021-1.114-1.17-.743-2.077-1.802-2.723-3.178-.646-1.375-.977-2.968-.995-4.779v-1.384c0-1.846.32-3.476.962-4.891.642-1.415 1.55-2.498 2.723-3.25 1.173-.751 2.516-1.127 4.027-1.127 1.547 0 2.907.373 4.08 1.12 1.174.748 2.077 1.822 2.71 3.224.633 1.402.95 3.039.95 4.91v1.227zm-2.531-1.24c0-2.258-.45-4-1.351-5.227-.901-1.226-2.187-1.839-3.857-1.839-1.59 0-2.845.609-3.763 1.826-.919 1.217-1.391 2.907-1.418 5.07v1.41c0 2.197.46 3.929 1.378 5.194.918 1.266 2.195 1.899 3.83 1.899 1.635 0 2.9-.596 3.797-1.787.896-1.19 1.358-2.898 1.384-5.122v-1.423zm14.474 2.453h-4.51v7.765h-2.544v-19.195h6.355c2.162 0 3.825.492 4.99 1.476 1.164.984 1.747 2.417 1.747 4.298 0 1.195-.323 2.237-.97 3.124-.645.888-1.544 1.552-2.695 1.991l4.508 8.148v.158h-2.715l-4.166-7.765zm-4.51-2.07h3.89c1.257 0 2.257-.325 3-.976.742-.65 1.113-1.52 1.113-2.61 0-1.187-.354-2.096-1.061-2.729-.708-.633-1.73-.954-3.065-.962h-3.876v7.277zm20.75 1.279c-2.171-.624-3.75-1.391-4.74-2.3-.988-.91-1.483-2.033-1.483-3.37 0-1.511.604-2.761 1.813-3.75 1.208-.989 2.78-1.483 4.713-1.483 1.318 0 2.494.255 3.527.765 1.032.51 1.832 1.212 2.4 2.109.566.896.85 1.876.85 2.94h-2.545c0-1.16-.37-2.072-1.107-2.736-.739-.663-1.78-.995-3.125-.995-1.248 0-2.221.275-2.92.824-.699.55-1.048 1.312-1.048 2.287 0 .782.332 1.444.995 1.984.664.54 1.793 1.035 3.388 1.483 1.596.449 2.844.943 3.744 1.484.901.54 1.57 1.17 2.004 1.891.435.721.653 1.57.653 2.545 0 1.556-.606 2.801-1.82 3.737-1.212.937-2.834 1.405-4.864 1.405a9.022 9.022 0 0 1-3.692-.759c-1.142-.505-2.023-1.197-2.643-2.076-.62-.879-.93-1.876-.93-2.993h2.545c0 1.16.429 2.077 1.286 2.75.856.672 2.001 1.008 3.434 1.008 1.336 0 2.36-.273 3.072-.818.712-.545 1.068-1.287 1.068-2.228 0-.94-.33-1.667-.99-2.182-.658-.514-1.854-1.021-3.585-1.522zm24.625-8.556h-6.17v17.112h-2.518v-17.112h-6.157v-2.083h14.845v2.083zm17.36-2.083v13.051c-.008 1.81-.577 3.292-1.707 4.443-1.129 1.152-2.66 1.798-4.594 1.938l-.672.027c-2.101 0-3.775-.567-5.023-1.701-1.248-1.134-1.881-2.694-1.899-4.68v-13.078h2.505v12.999c0 1.388.382 2.467 1.147 3.236.765.77 1.854 1.154 3.27 1.154 1.432 0 2.529-.383 3.289-1.147.76-.765 1.14-1.842 1.14-3.23v-13.012h2.545zm11.35 15.833l5.484-15.833h2.769l-7.12 19.195h-2.24l-7.107-19.195h2.756l5.458 15.833zm15.963-2.69l.37 2.532.54-2.28 3.797-13.395h2.135l3.705 13.394.527 2.32.41-2.584 2.979-13.13h2.544l-4.654 19.195h-2.307l-3.955-13.988-.303-1.463-.303 1.463-4.1 13.988H398.8l-4.64-19.195h2.53l3.033 13.144zm27.077-5.787l4.601-7.356h2.98l-6.065 9.518 6.21 9.677h-3.006l-4.72-7.488-4.746 7.488h-2.992l6.222-9.677-6.077-9.518h2.966l4.627 7.356zm17.52 2.28l5.01-9.636h2.873l-6.618 12.036v7.159h-2.531v-7.159l-6.618-12.036h2.9l4.983 9.637zm13.26 7.489h10.982v2.07h-13.975v-1.899l10.52-15.213H454.76v-2.083h13.381v1.858l-10.56 15.267zM13.263 260.34c0 2.856-.488 4.979-1.464 6.368-.975 1.388-2.5 2.083-4.574 2.083-2.048 0-3.564-.68-4.549-2.037-.984-1.358-1.494-3.386-1.529-6.085v-3.256c0-2.821.488-4.917 1.463-6.288.976-1.372 2.505-2.057 4.588-2.057 2.066 0 3.586.661 4.562 1.984.975 1.323 1.476 3.364 1.503 6.124v3.164zm-2.44-3.336c0-2.065-.29-3.57-.87-4.515-.58-.945-1.498-1.417-2.755-1.417-1.248 0-2.157.47-2.729 1.41-.571.94-.865 2.387-.883 4.338v3.902c0 2.074.301 3.606.903 4.595.602.988 1.514 1.483 2.736 1.483 1.204 0 2.098-.466 2.682-1.398.585-.931.89-2.4.917-4.403v-3.995zm14.58 11.523H22.95V252.27l-4.918 1.807v-2.215l6.988-2.624h.382v19.288zm20.722 0H33.548v-1.754l6.645-7.382c.984-1.117 1.663-2.024 2.037-2.723.373-.699.56-1.421.56-2.168 0-1.002-.303-1.824-.91-2.466-.606-.641-1.415-.962-2.425-.962-1.213 0-2.156.345-2.828 1.035-.673.69-1.009 1.65-1.009 2.88H33.18c0-1.766.57-3.195 1.707-4.284 1.139-1.09 2.661-1.635 4.569-1.635 1.784 0 3.194.468 4.232 1.404 1.037.936 1.555 2.182 1.555 3.737 0 1.89-1.204 4.14-3.612 6.75l-5.142 5.577h9.637v1.99zm7.13-10.784h1.833c1.152-.018 2.057-.321 2.716-.91.66-.589.989-1.384.989-2.386 0-2.25-1.12-3.375-3.362-3.375-1.055 0-1.896.3-2.525.903-.628.602-.942 1.4-.942 2.393h-2.44c0-1.52.557-2.784 1.669-3.79 1.111-1.007 2.524-1.51 4.238-1.51 1.81 0 3.23.479 4.258 1.437 1.029.958 1.543 2.29 1.543 3.995 0 .834-.27 1.643-.81 2.425-.541.783-1.277 1.367-2.21 1.754 1.056.334 1.87.887 2.446 1.66.576.774.864 1.72.864 2.835 0 1.723-.563 3.09-1.688 4.1-1.125 1.011-2.588 1.517-4.39 1.517-1.801 0-3.267-.488-4.396-1.464-1.13-.975-1.694-2.263-1.694-3.863h2.452c0 1.011.33 1.82.988 2.426.66.607 1.543.91 2.65.91 1.178 0 2.079-.308 2.703-.923.624-.615.936-1.499.936-2.65 0-1.116-.343-1.973-1.028-2.57-.686-.598-1.675-.906-2.967-.924h-1.832v-1.99zm22.912 4.337h2.663v1.99h-2.663v4.457h-2.452v-4.456h-8.74v-1.437l8.595-13.302h2.597v12.748zm-8.424 0h5.972v-9.413l-.29.527-5.682 8.886zm15.41-3.177l.975-9.571h9.835v2.254h-7.765l-.58 5.234c.94-.554 2.008-.83 3.203-.83 1.75 0 3.138.577 4.166 1.733 1.029 1.156 1.543 2.718 1.543 4.687 0 1.977-.534 3.535-1.602 4.673s-2.56 1.708-4.476 1.708c-1.696 0-3.08-.47-4.153-1.411-1.072-.94-1.683-2.241-1.832-3.902h2.307c.15 1.098.54 1.927 1.173 2.485.633.558 1.468.837 2.505.837 1.134 0 2.024-.387 2.67-1.16.646-.774.969-1.842.969-3.204 0-1.283-.35-2.314-1.048-3.092-.699-.777-1.628-1.166-2.789-1.166-1.063 0-1.898.233-2.504.698l-.646.528-1.952-.501zm24.611-9.585v2.07h-.448c-1.899.035-3.41.598-4.535 1.688-1.125 1.09-1.776 2.623-1.951 4.6 1.01-1.16 2.39-1.74 4.14-1.74 1.67 0 3.003.59 4 1.767.998 1.178 1.497 2.698 1.497 4.562 0 1.977-.539 3.56-1.615 4.746-1.077 1.186-2.52 1.78-4.331 1.78-1.837 0-3.327-.706-4.47-2.116-1.142-1.411-1.713-3.228-1.713-5.452v-.936c0-3.533.754-6.234 2.26-8.101 1.508-1.868 3.752-2.824 6.731-2.868h.435zm-3.203 8.649c-.835 0-1.604.25-2.308.751-.703.501-1.19 1.13-1.463 1.886v.896c0 1.582.356 2.856 1.068 3.823.712.967 1.6 1.45 2.663 1.45 1.099 0 1.962-.404 2.59-1.212.629-.81.943-1.868.943-3.178 0-1.318-.318-2.384-.956-3.197-.637-.813-1.483-1.22-2.537-1.22zm22.186-7.264l-7.95 17.824h-2.558l7.924-17.192h-10.39v-2.003h12.974v1.37zm15.41 3.638c0 .958-.253 1.81-.759 2.558-.505.747-1.189 1.331-2.05 1.753 1.002.431 1.795 1.06 2.38 1.886.584.826.876 1.762.876 2.808 0 1.66-.56 2.984-1.68 3.968-1.121.984-2.595 1.477-4.424 1.477-1.845 0-3.324-.495-4.436-1.484-1.112-.988-1.668-2.309-1.668-3.961 0-1.037.284-1.973.85-2.808.568-.835 1.352-1.468 2.354-1.899-.852-.422-1.525-1.006-2.017-1.753-.492-.747-.738-1.595-.738-2.545 0-1.617.518-2.9 1.555-3.85 1.038-.949 2.404-1.423 4.1-1.423 1.688 0 3.052.474 4.094 1.424 1.042.949 1.562 2.232 1.562 3.85zm-1.991 8.952c0-1.072-.341-1.947-1.022-2.624-.681-.676-1.571-1.015-2.67-1.015s-1.98.334-2.643 1.002c-.664.668-.996 1.547-.996 2.637s.323 1.947.97 2.57c.645.625 1.544.937 2.695.937 1.143 0 2.04-.314 2.69-.943.65-.628.976-1.483.976-2.564zm-3.666-12.221c-.958 0-1.733.296-2.326.89-.594.593-.89 1.4-.89 2.419 0 .975.292 1.764.876 2.366.585.602 1.365.903 2.34.903.976 0 1.756-.3 2.34-.903.585-.602.877-1.39.877-2.366 0-.976-.303-1.771-.91-2.386-.606-.616-1.375-.923-2.307-.923zm19.523 9.017a5.967 5.967 0 0 1-1.825 1.464 4.954 4.954 0 0 1-2.327.553c-1.108 0-2.072-.272-2.894-.817-.822-.545-1.457-1.312-1.905-2.3-.448-.99-.673-2.081-.673-3.277 0-1.283.244-2.439.732-3.467s1.18-1.815 2.077-2.36c.896-.545 1.942-.817 3.137-.817 1.899 0 3.395.71 4.49 2.129 1.093 1.42 1.64 3.355 1.64 5.807v.712c0 3.736-.738 6.462-2.214 8.18-1.477 1.719-3.705 2.6-6.684 2.644h-.475v-2.057h.514c2.013-.035 3.56-.56 4.64-1.575 1.082-1.015 1.67-2.621 1.767-4.819zm-3.757 0c.817 0 1.571-.25 2.261-.751.69-.501 1.193-1.12 1.51-1.859v-.976c0-1.6-.348-2.9-1.042-3.902-.694-1.002-1.573-1.503-2.637-1.503-1.072 0-1.933.411-2.584 1.233-.65.822-.975 1.905-.975 3.25 0 1.31.314 2.388.942 3.236.629.848 1.47 1.272 2.525 1.272zm20.261 3.494c0-.809-.283-1.49-.85-2.043-.567-.554-1.523-1.055-2.867-1.503-1.873-.572-3.237-1.317-4.094-2.235-.857-.918-1.285-2.085-1.285-3.5 0-1.442.42-2.624 1.259-3.547.84-.922 1.993-1.472 3.46-1.648v-2.887h1.965v2.9c1.476.203 2.625.822 3.447 1.86.822 1.037 1.233 2.456 1.233 4.258h-2.426c0-1.24-.294-2.224-.883-2.953-.589-.73-1.384-1.095-2.386-1.095-1.046 0-1.846.27-2.4.811-.554.54-.83 1.294-.83 2.261 0 .897.292 1.61.876 2.143.585.531 1.547 1.015 2.888 1.45 1.34.435 2.386.914 3.137 1.437.752.523 1.305 1.131 1.661 1.826.356.694.534 1.507.534 2.439 0 1.485-.446 2.68-1.338 3.586-.892.905-2.142 1.441-3.75 1.608v2.518h-1.952v-2.518c-1.635-.15-2.915-.732-3.843-1.747-.927-1.015-1.39-2.393-1.39-4.133h2.438c0 1.222.321 2.162.963 2.821.641.66 1.551.99 2.729.99 1.151 0 2.056-.278 2.716-.831.659-.554.988-1.31.988-2.268zm6.26-10.56c0-1.151.368-2.1 1.101-2.848.734-.747 1.677-1.12 2.828-1.12 1.17 0 2.116.375 2.841 1.127.725.751 1.088 1.725 1.088 2.92v.936c0 1.16-.367 2.107-1.1 2.841-.735.734-1.669 1.101-2.802 1.101-1.143 0-2.088-.367-2.835-1.1-.747-.735-1.12-1.713-1.12-2.934v-.923zm1.82 1.015c0 .686.193 1.25.58 1.694.387.444.905.666 1.556.666.624 0 1.127-.215 1.51-.646.382-.43.573-1.02.573-1.767v-.962c0-.686-.19-1.252-.567-1.7-.378-.449-.892-.673-1.543-.673-.65 0-1.164.224-1.542.672-.378.449-.567 1.033-.567 1.754v.962zm7.528 9.782c0-1.151.367-2.098 1.1-2.84.734-.743 1.677-1.115 2.828-1.115 1.152 0 2.097.37 2.835 1.108.738.738 1.107 1.718 1.107 2.94v.936c0 1.151-.367 2.098-1.1 2.84-.734.743-1.673 1.115-2.815 1.115-1.143 0-2.088-.367-2.835-1.101-.747-.734-1.12-1.712-1.12-2.933v-.95zm1.82 1.029c0 .694.192 1.263.58 1.707.386.444.904.666 1.555.666.633 0 1.138-.218 1.516-.653.378-.435.567-1.026.567-1.773v-.976c0-.694-.191-1.26-.574-1.7-.382-.44-.894-.66-1.536-.66-.624 0-1.131.218-1.522.653-.391.435-.587 1.022-.587 1.76v.976zm-6.659 2.228l-1.384-.87 9.374-15.003 1.384.87-9.374 15.003zm16.214-3.705c0-.923.257-1.77.771-2.544.515-.774 1.497-1.675 2.947-2.703-.853-1.037-1.424-1.872-1.714-2.505a4.495 4.495 0 0 1-.435-1.885c0-1.46.43-2.602 1.292-3.428.861-.826 2.03-1.24 3.507-1.24 1.318 0 2.408.385 3.27 1.154.86.77 1.291 1.738 1.291 2.907 0 .774-.195 1.488-.586 2.143-.391.655-1.075 1.342-2.05 2.063l-1.41 1.041 4.27 5.103c.598-1.143.897-2.413.897-3.81h2.202c0 2.24-.54 4.1-1.622 5.576l2.742 3.283h-2.926l-1.28-1.516a6.683 6.683 0 0 1-2.287 1.325 8.096 8.096 0 0 1-2.67.455c-1.871 0-3.374-.497-4.508-1.49s-1.7-2.303-1.7-3.929zm6.21 3.428c1.292 0 2.474-.492 3.546-1.477l-4.68-5.603-.435.317c-1.468 1.08-2.202 2.192-2.202 3.335 0 1.037.336 1.868 1.009 2.492.672.624 1.593.936 2.762.936zm-2.202-13.144c0 .844.519 1.898 1.556 3.164l1.555-1.094c.598-.422 1.007-.824 1.226-1.207.22-.382.33-.846.33-1.39 0-.59-.22-1.08-.66-1.47-.439-.392-.992-.587-1.66-.587-.721 0-1.292.244-1.714.731-.422.488-.633 1.106-.633 1.853zm35.357 8.253c-.106 2.127-.633 3.805-1.583 5.036-.949 1.23-2.219 1.846-3.81 1.846-1.643 0-2.698-.739-3.164-2.215-.474.747-1.017 1.303-1.628 1.667-.61.365-1.241.548-1.892.548-1.248 0-2.193-.51-2.834-1.53-.642-1.02-.879-2.43-.712-4.232.132-1.45.464-2.744.995-3.882.532-1.138 1.218-2.033 2.057-2.683.84-.65 1.72-.976 2.643-.976.712 0 1.35.095 1.912.284.562.189 1.195.56 1.898 1.114l-.685 7.303c-.167 2.03.395 3.046 1.687 3.046.993 0 1.798-.492 2.413-1.477.615-.984.95-2.267 1.002-3.85.167-3.418-.468-6.024-1.905-7.817-1.437-1.793-3.623-2.69-6.559-2.69-1.767 0-3.335.438-4.707 1.312-1.37.875-2.452 2.138-3.243 3.79-.79 1.653-1.235 3.56-1.331 5.722-.106 2.18.158 4.072.79 5.676.634 1.604 1.598 2.83 2.895 3.678 1.296.848 2.863 1.272 4.7 1.272.79 0 1.584-.097 2.38-.29.795-.193 1.456-.444 1.983-.751l.488 1.516c-.545.342-1.268.624-2.169.843-.9.22-1.812.33-2.735.33-2.198 0-4.087-.494-5.67-1.483-1.581-.989-2.766-2.413-3.552-4.272-.787-1.859-1.127-4.032-1.022-6.519.106-2.417.646-4.59 1.622-6.52.975-1.928 2.298-3.418 3.968-4.468 1.67-1.05 3.555-1.576 5.656-1.576 2.188 0 4.065.492 5.63 1.477 1.564.984 2.728 2.403 3.493 4.258.764 1.854 1.094 4.025.989 6.513zm-13.527 1.12c-.123 1.248-.006 2.206.35 2.874.355.668.92 1.002 1.694 1.002.527 0 1.035-.224 1.522-.672.488-.448.89-1.09 1.207-1.925l.013-.119.606-6.63a3.39 3.39 0 0 0-1.582-.383c-1.028 0-1.878.523-2.55 1.569-.673 1.046-1.093 2.474-1.26 4.284zm19.418-15.003l1.397.95c-.817 1.116-1.24 2.32-1.266 3.612v1.793h-2.425v-1.53c0-.896.213-1.784.64-2.663.425-.878.977-1.6 1.654-2.162zm7.183 7.541l-3.982-1.186.607-1.99 3.981 1.476-.118-4.535h2.017l-.132 4.6 3.915-1.45.607 2.004-4.048 1.2 2.61 3.573-1.634 1.239-2.452-3.797-2.373 3.705-1.648-1.2 2.65-3.639zm10.03 5.168c0-1.986.266-3.893.798-5.721a16.621 16.621 0 0 1 2.38-4.984c1.054-1.494 2.149-2.549 3.282-3.164l.501 1.609c-1.283.984-2.335 2.487-3.157 4.508-.822 2.022-1.272 4.285-1.351 6.79l-.014 1.12c0 3.393.62 6.337 1.86 8.834.746 1.494 1.634 2.663 2.662 3.506l-.5 1.49c-1.17-.65-2.286-1.74-3.35-3.27-2.073-2.988-3.11-6.56-3.11-10.718zm10.242 11.615l-1.384-.95c.826-1.15 1.257-2.337 1.292-3.559v-2.201h2.386v1.911c0 .888-.217 1.776-.652 2.663-.436.888-.983 1.6-1.642 2.136zm6.432-5.102c0-.422.125-.773.376-1.055.25-.28.626-.422 1.127-.422.5 0 .88.141 1.14.422.26.282.39.633.39 1.055 0 .404-.13.743-.39 1.015-.26.273-.64.409-1.14.409-.501 0-.877-.136-1.127-.409-.25-.272-.376-.61-.376-1.015zm7.67-11.641c0-.422.126-.774.376-1.055.251-.281.627-.422 1.128-.422.5 0 .88.141 1.14.422.26.281.389.633.389 1.055 0 .404-.13.743-.389 1.015-.26.273-.64.409-1.14.409-.501 0-.877-.136-1.128-.409-.25-.272-.375-.61-.375-1.015zm.462 16.743l-1.384-.95c.826-1.15 1.257-2.337 1.292-3.559v-2.201h2.386v1.911c0 .888-.217 1.776-.652 2.663-.436.888-.983 1.6-1.642 2.136zm14.87-9.228h-3.481l-1.055 5.405h-1.885l1.055-5.405h-3.151v-1.807h3.493l.91-4.667h-3.401v-1.832h3.757l1.081-5.484h1.885l-1.08 5.484h3.48l1.08-5.484h1.9l-1.082 5.484h2.69v1.832h-3.046l-.91 4.667h2.967v1.807h-3.31l-1.054 5.405H300.6l1.054-5.405zm-3.138-1.807h3.48l.91-4.667h-3.48l-.91 4.667zm15.251 1.793h-2.202l-.171-13.776h2.558l-.185 13.776zm-2.465 4.193c0-.396.12-.728.362-.996s.6-.402 1.075-.402c.474 0 .835.134 1.08.402.247.268.37.6.37.996 0 .395-.123.723-.37.982-.245.26-.606.389-1.08.389-.475 0-.833-.13-1.075-.389-.241-.26-.362-.587-.362-.982zm10.545-4.18c.017-1.045.136-1.871.356-2.478.22-.606.668-1.279 1.344-2.017l1.727-1.78c.739-.835 1.108-1.731 1.108-2.69 0-.922-.242-1.645-.725-2.168-.484-.523-1.187-.784-2.11-.784-.896 0-1.617.237-2.162.712-.545.474-.817 1.111-.817 1.911h-2.44c.018-1.424.526-2.573 1.524-3.447.997-.875 2.296-1.312 3.895-1.312 1.661 0 2.956.446 3.883 1.338.927.892 1.39 2.116 1.39 3.672 0 1.538-.711 3.054-2.135 4.548l-1.437 1.424c-.642.712-.962 1.736-.962 3.072h-2.44zm-.106 4.18c0-.396.121-.728.363-.996.241-.268.6-.402 1.074-.402.475 0 .835.134 1.081.402s.37.6.37.996c0 .395-.124.723-.37.982-.246.26-.606.389-1.08.389-.475 0-.834-.13-1.075-.389-.242-.26-.363-.587-.363-.982zm16.623-6.434c0 1.96-.257 3.839-.771 5.636a16.665 16.665 0 0 1-2.36 4.977c-1.06 1.52-2.17 2.602-3.33 3.243l-.513-1.49c1.353-1.037 2.44-2.647 3.263-4.831.821-2.184 1.241-4.608 1.259-7.271v-.422c0-1.846-.194-3.562-.58-5.148-.387-1.587-.926-3.008-1.615-4.265-.69-1.257-1.466-2.237-2.327-2.94l.514-1.49c1.16.642 2.265 1.714 3.315 3.217a16.701 16.701 0 0 1 2.36 4.97c.523 1.81.785 3.749.785 5.814zM10.005 133.782H5.874V142H2.168v-21.328h7.5c2.46 0 4.36.552 5.698 1.655 1.338 1.104 2.007 2.7 2.007 4.79 0 1.426-.344 2.62-1.033 3.582-.688.962-1.648 1.701-2.878 2.219l4.79 8.892v.19h-3.97l-4.277-8.218zm-4.131-2.973h3.809c1.25 0 2.226-.315 2.93-.945.702-.63 1.054-1.492 1.054-2.586 0-1.142-.325-2.026-.974-2.651-.65-.625-1.619-.947-2.908-.967H5.874v7.149zm14.004 3.12c0-1.553.308-2.952.923-4.197s1.48-2.202 2.593-2.871c1.113-.67 2.392-1.004 3.837-1.004 2.14 0 3.875.689 5.208 2.066 1.333 1.377 2.053 3.203 2.16 5.478l.015.835c0 1.563-.3 2.96-.9 4.19-.601 1.23-1.46 2.182-2.579 2.856-1.118.674-2.41 1.011-3.874 1.011-2.237 0-4.026-.745-5.369-2.234-1.343-1.49-2.014-3.474-2.014-5.955v-.175zm3.56.307c0 1.631.336 2.908 1.01 3.83.674.924 1.612 1.385 2.813 1.385 1.2 0 2.136-.469 2.805-1.406.669-.938 1.003-2.31 1.003-4.116 0-1.602-.344-2.871-1.032-3.809-.689-.937-1.624-1.406-2.806-1.406-1.162 0-2.085.461-2.768 1.384-.684.923-1.026 2.302-1.026 4.138zm28.095 0c0 2.461-.55 4.42-1.648 5.874-1.098 1.455-2.61 2.183-4.533 2.183-1.856 0-3.301-.669-4.336-2.007L40.84 142h-3.223v-22.5h3.56v8.174c1.025-1.211 2.407-1.817 4.145-1.817 1.934 0 3.452.718 4.556 2.154 1.103 1.435 1.655 3.442 1.655 6.02v.205zm-3.56-.307c0-1.719-.302-3.008-.908-3.867-.605-.86-1.484-1.29-2.636-1.29-1.543 0-2.627.674-3.252 2.022v6.533c.635 1.377 1.728 2.066 3.281 2.066 1.113 0 1.973-.415 2.578-1.246.606-.83.918-2.084.938-3.764v-.454zm5.875 0c0-1.553.307-2.952.923-4.197.615-1.245 1.479-2.202 2.592-2.871 1.114-.67 2.393-1.004 3.838-1.004 2.139 0 3.875.689 5.208 2.066 1.333 1.377 2.053 3.203 2.16 5.478l.015.835c0 1.563-.3 2.96-.9 4.19-.601 1.23-1.46 2.182-2.579 2.856-1.118.674-2.41 1.011-3.875 1.011-2.236 0-4.025-.745-5.368-2.234-1.343-1.49-2.014-3.474-2.014-5.955v-.175zm3.56.307c0 1.631.336 2.908 1.01 3.83.674.924 1.611 1.385 2.812 1.385 1.202 0 2.137-.469 2.806-1.406.669-.938 1.003-2.31 1.003-4.116 0-1.602-.344-2.871-1.033-3.809-.688-.937-1.623-1.406-2.805-1.406-1.162 0-2.085.461-2.768 1.384-.684.923-1.026 2.302-1.026 4.138zm18.647-11.938v3.852h2.798v2.637h-2.798v8.848c0 .605.12 1.042.359 1.31.239.27.666.404 1.281.404.41 0 .826-.05 1.245-.147v2.754a8.767 8.767 0 0 1-2.343.337c-2.735 0-4.102-1.509-4.102-4.526v-8.98h-2.607v-2.637h2.607v-3.852h3.56zm4.848 11.63c0-1.552.308-2.95.923-4.196.615-1.245 1.48-2.202 2.593-2.871 1.113-.67 2.393-1.004 3.838-1.004 2.139 0 3.874.689 5.207 2.066 1.333 1.377 2.054 3.203 2.161 5.478l.015.835c0 1.563-.3 2.96-.901 4.19-.6 1.23-1.46 2.182-2.578 2.856-1.119.674-2.41 1.011-3.875 1.011-2.236 0-4.026-.745-5.369-2.234-1.342-1.49-2.014-3.474-2.014-5.955v-.175zm3.56.308c0 1.631.337 2.908 1.01 3.83.674.924 1.612 1.385 2.813 1.385s2.136-.469 2.805-1.406c.67-.938 1.004-2.31 1.004-4.116 0-1.602-.345-2.871-1.033-3.809-.688-.937-1.624-1.406-2.805-1.406-1.162 0-2.085.461-2.769 1.384-.683.923-1.025 2.302-1.025 4.138z" fill="#000"/></g></svg>